<svg  viewBox="0 0 14 15" xmlns="http://www.w3.org/2000/svg">
<path d="M13.1672 3.87134C12.3232 3.87134 11.5445 3.59176 10.9192 3.1201C10.202 2.57941 9.68677 1.78628 9.50481 0.87213C9.45975 0.646265 9.43549 0.413179 9.43318 0.174316H7.02231V6.76196L7.01942 10.3703C7.01942 11.335 6.39122 12.153 5.52039 12.4406C5.26767 12.5241 4.99472 12.5637 4.71051 12.5481C4.34774 12.5282 4.00779 12.4187 3.71231 12.2419C3.08353 11.8659 2.65722 11.1837 2.64566 10.4032C2.62747 9.18351 3.61353 8.18907 4.8324 8.18907C5.07299 8.18907 5.30406 8.22835 5.52039 8.29969V6.49912V5.85185C5.29222 5.81806 5.06 5.80044 4.82518 5.80044C3.49107 5.80044 2.24332 6.355 1.35142 7.35406C0.677286 8.10906 0.272923 9.07231 0.210536 10.0824C0.128797 11.4092 0.61432 12.6706 1.55591 13.6012C1.69426 13.7378 1.83954 13.8646 1.99146 13.9816C2.79874 14.6028 3.78568 14.9396 4.82518 14.9396C5.06 14.9396 5.29222 14.9223 5.52039 14.8885C6.49144 14.7446 7.38739 14.3001 8.09445 13.6012C8.96325 12.7425 9.44329 11.6025 9.44848 10.3891L9.43606 5.00067C9.85054 5.32041 10.3037 5.58497 10.7901 5.79033C11.5465 6.10949 12.3486 6.27124 13.1741 6.27095V4.52035V3.87077C13.1747 3.87134 13.1678 3.87134 13.1672 3.87134Z" />
</svg>
