<svg viewBox="0 0 15 13"  xmlns="http://www.w3.org/2000/svg">
<path d="M14.5733 2.11122C14.0349 2.34741 13.4611 2.50397 12.863 2.57999C13.4783 2.21258 13.948 1.63522 14.1688 0.939314C13.5951 1.28138 12.9616 1.52301 12.2865 1.65784C11.7417 1.07777 10.9653 0.718506 10.1182 0.718506C8.47485 0.718506 7.15182 2.0524 7.15182 3.68765C7.15182 3.92293 7.17173 4.14917 7.22059 4.36455C4.7528 4.24419 2.56915 3.06142 1.10223 1.25967C0.846129 1.704 0.695908 2.21258 0.695908 2.76007C0.695908 3.78809 1.2253 4.69938 2.01442 5.22696C1.53751 5.21791 1.06965 5.07946 0.673284 4.86136C0.673284 4.87041 0.673284 4.88218 0.673284 4.89394C0.673284 6.33643 1.70221 7.53459 3.05149 7.8106C2.80987 7.87666 2.54653 7.90833 2.27323 7.90833C2.0832 7.90833 1.89135 7.89747 1.71126 7.85765C2.09586 9.03318 3.18723 9.89741 4.48493 9.92546C3.47501 10.7155 2.19269 11.1915 0.804502 11.1915C0.56107 11.1915 0.327593 11.1806 0.0941162 11.1508C1.40901 11.9987 2.96733 12.4828 4.64782 12.4828C10.1101 12.4828 13.0964 7.9581 13.0964 4.03605C13.0964 3.90483 13.0919 3.77814 13.0856 3.65235C13.6747 3.23427 14.1697 2.71211 14.5733 2.11122Z" />
</svg>
