<svg width="66" height="56" viewBox="0 0 66 56" fill="none" xmlns="http://www.w3.org/2000/svg">
<path d="M30.6794 15.0173L17.7646 8.6936V22.9686L30.6794 28.7157V15.0173Z" fill="#1F1F1F"/>
<path d="M1.40592 50.0963L13.4738 55.4628V41.7635L0.559082 35.4398V48.7929C0.559082 49.3566 0.890937 49.8673 1.40592 50.0963Z" fill="#1F1F1F"/>
<path d="M30.6797 35.4388L17.7529 41.7639V55.4647L30.6797 49.7243V35.4388Z" fill="#EB1C24"/>
<path d="M27.7615 32.1023L15.6303 26.7076L3.47778 32.1043L15.6133 38.0464L27.7615 32.1023Z" fill="#1F1F1F"/>
<path d="M65.091 35.6731L52.1526 41.7845V55.4647L64.1077 50.1556C64.7056 49.8901 65.091 49.2972 65.091 48.6429V35.6731Z" fill="#EB1C24"/>
<path d="M44.9386 5.59186L34.0076 0.646797C33.241 0.300069 32.3636 0.294145 31.5925 0.630664L20.719 5.37533L32.8359 11.3084L44.9386 5.59186Z" fill="#1F1F1F"/>
<path d="M62.1737 32.319L50.0209 26.7123L37.8787 32.1044L50.0306 38.0546L62.1737 32.319Z" fill="#1F1F1F"/>
<path d="M34.9711 49.7246L47.8748 55.4628V41.7634L34.9622 35.4408L34.9711 49.7246Z" fill="#1F1F1F"/>
<path d="M47.8985 22.9727V8.92688L34.96 15.0382V28.7183L40.6818 26.1774L47.8985 22.9727Z" fill="#EB1C24"/>
</svg>
