<svg viewBox="0 0 113 105" fill="none"  xmlns="http://www.w3.org/2000/svg">
<path d="M17.5028 104.265L10.9476 97.8882L4.46362 104.265H0.901001L9.27316 96.1425L1.50665 88.6254H5.28303L11.2326 94.4324L17.1109 88.661H20.6736L12.8714 96.1781L21.3505 104.301H17.5028V104.265Z" fill="url(#paint0_linear)"/>
<path d="M27.2287 104.265C26.1243 104.265 25.1268 104.051 24.2005 103.66C23.2742 103.268 22.4548 102.698 21.7779 101.985C21.101 101.273 20.5666 100.418 20.1748 99.4556C19.7829 98.4937 19.6047 97.4249 19.6047 96.2849C19.6047 95.1449 19.7829 94.0761 20.1748 93.1498C20.5666 92.1879 21.101 91.4041 21.7779 90.7272C22.4548 90.0503 23.2742 89.5515 24.2005 89.1953C25.1268 88.839 26.1243 88.6609 27.2287 88.6609H31.0408C32.1808 88.6609 33.214 88.839 34.1402 89.2309C35.0665 89.5872 35.8859 90.1216 36.5628 90.7985C37.2397 91.4754 37.7741 92.2948 38.1304 93.2211C38.4866 94.1473 38.7004 95.1805 38.7004 96.3205C38.7004 97.4606 38.5223 98.4937 38.1304 99.4913C37.7385 100.453 37.2041 101.308 36.5272 102.021C35.8503 102.733 35.0309 103.303 34.1046 103.695C33.1783 104.087 32.1452 104.301 31.0408 104.301H27.2287V104.265ZM31.0408 101.558C31.7533 101.558 32.4302 101.415 33.0358 101.166C33.6415 100.916 34.1402 100.56 34.6034 100.097C35.0309 99.6338 35.3872 99.0994 35.6365 98.4581C35.8859 97.8168 35.9928 97.1399 35.9928 96.4274C35.9928 95.6793 35.8859 95.0024 35.6365 94.3967C35.3872 93.7554 35.0665 93.2567 34.6034 92.7935C34.1759 92.366 33.6415 92.0098 33.0358 91.7604C32.4302 91.511 31.7889 91.3685 31.0408 91.3685H27.2287C26.5162 91.3685 25.875 91.511 25.2693 91.7604C24.6637 92.0098 24.1649 92.366 23.7374 92.7935C23.3099 93.221 22.9536 93.7554 22.7398 94.3967C22.4905 95.0024 22.3836 95.6793 22.3836 96.4274C22.3836 97.1756 22.4905 97.8525 22.7398 98.4581C22.9892 99.0994 23.3099 99.6338 23.7374 100.097C24.1649 100.56 24.6637 100.916 25.2693 101.166C25.875 101.415 26.5162 101.558 27.2287 101.558H31.0408Z" fill="url(#paint1_linear)"/>
<path d="M38.9854 104.265V101.522H44.7212C46.5381 101.522 47.8563 101.166 48.6401 100.453C49.4595 99.7407 49.8513 98.6363 49.8513 97.1044V88.5897H52.5946V97.1044C52.5946 99.527 51.9533 101.308 50.7064 102.484C49.4595 103.66 47.4644 104.23 44.7212 104.23H38.9854V104.265Z" />
<path d="M68.4839 88.6252H71.1559V97.3537C71.1559 98.565 71.0134 99.5981 70.6928 100.489C70.3721 101.379 69.8733 102.128 69.1965 102.698C68.5196 103.303 67.6645 103.731 66.5957 104.016C65.5269 104.301 64.2444 104.443 62.7125 104.443C61.2162 104.443 59.9336 104.301 58.8648 104.016C57.7961 103.731 56.941 103.303 56.2641 102.698C55.5872 102.128 55.0885 101.379 54.7678 100.489C54.4472 99.5981 54.3047 98.5293 54.3047 97.3537V88.6252H57.1192V97.3537C57.1192 98.1374 57.226 98.8143 57.4042 99.3844C57.5823 99.9544 57.9029 100.418 58.3661 100.774C58.7936 101.13 59.3992 101.379 60.1118 101.558C60.8599 101.736 61.7506 101.807 62.8194 101.807C63.8881 101.807 64.8144 101.736 65.5269 101.558C66.2751 101.379 66.8451 101.13 67.2726 100.774C67.7002 100.418 68.0208 99.9544 68.2345 99.3844C68.4127 98.8143 68.5196 98.1374 68.5196 97.3537V88.6252H68.4839Z" />
<path d="M91.6766 104.265L88.684 93.2923L84.2663 103.446C84.1238 103.766 83.9101 104.016 83.6963 104.194C83.4826 104.372 83.1976 104.479 82.8769 104.479C82.2357 104.479 81.7725 104.123 81.4875 103.446L77.0698 93.2567L74.0772 104.23H71.4053L75.431 89.5159C75.6092 88.7678 76.0723 88.4115 76.7848 88.4115C77.0698 88.4115 77.3549 88.4828 77.6042 88.6609C77.8536 88.8034 78.0318 89.0528 78.1743 89.3378L82.9838 100.382L87.7933 89.3378C88.0427 88.7321 88.5059 88.4115 89.1115 88.4115C89.7884 88.4115 90.2159 88.7678 90.4297 89.5159L94.4198 104.23H91.6766V104.265Z" />
<path d="M100.334 99.9188V97.2824H106.604C107.566 97.2824 108.314 96.9974 108.848 96.463C109.383 95.9286 109.668 95.2161 109.668 94.3255C109.668 93.4348 109.383 92.7223 108.848 92.1879C108.314 91.6535 107.566 91.4041 106.604 91.4041H98.3387V104.301H95.6311V88.6609H106.604C107.495 88.6609 108.314 88.8034 109.027 89.0528C109.739 89.3022 110.345 89.6941 110.808 90.1572C111.307 90.6203 111.663 91.226 111.912 91.9029C112.162 92.5798 112.304 93.3636 112.304 94.2186C112.304 95.0736 112.162 95.8218 111.912 96.5343C111.663 97.2468 111.271 97.8168 110.808 98.3156C110.309 98.8144 109.739 99.2062 109.027 99.4913C108.314 99.7763 107.495 99.9188 106.604 99.9188H100.334Z" />
<path d="M57.3158 81.605C79.5079 81.2225 97.1881 62.9222 96.8056 40.7301C96.4231 18.538 78.1228 0.857796 55.9307 1.24029C33.7385 1.62279 16.0584 19.9231 16.4409 42.1152C16.8234 64.3073 35.1237 81.9875 57.3158 81.605Z" fill="#020202"/>
<path d="M56.6204 2.55237C35.209 2.55237 17.7522 19.9736 17.7522 41.4206C17.7522 62.8676 35.1734 80.2888 56.6204 80.2888C78.0674 80.2888 95.4886 62.8676 95.4886 41.4206C95.4886 19.9736 78.0674 2.55237 56.6204 2.55237Z" fill="#37B34A"/>
<path d="M56.6204 78.935C77.339 78.935 94.1348 62.1392 94.1348 41.4205C94.1348 20.7019 77.339 3.90613 56.6204 3.90613C35.9017 3.90613 19.106 20.7019 19.106 41.4205C19.106 62.1392 35.9017 78.935 56.6204 78.935Z" fill="#EC1C24"/>
<path d="M56.6204 5.33118C36.7053 5.33118 20.531 21.5411 20.531 41.4205C20.531 61.3356 36.7409 77.5099 56.6204 77.5099C76.4998 77.5099 92.7097 61.3 92.7097 41.4205C92.7097 21.5055 76.5354 5.33118 56.6204 5.33118Z" fill="url(#paint2_linear)"/>
<path d="M56.6204 77.5099C76.5354 77.5099 92.7097 61.3 92.7097 41.4205C92.7097 21.5055 76.4998 5.33118 56.6204 5.33118C36.7409 5.33118 20.531 21.5055 20.531 41.4205C20.531 61.3 36.7409 77.5099 56.6204 77.5099Z" fill="url(#paint3_linear)"/>
<path opacity="0.5" d="M60.5037 34.3666V47.8689L76.5711 56.3836V25.8519L60.5037 34.3666Z" fill="url(#paint4_linear)"/>
<path d="M33.4277 62.8675V19.3679L54.8747 30.7327V51.5028L33.4277 62.8675ZM35.0309 23.9637V58.2361L53.3428 48.5458V33.6897L35.0309 23.9637Z" fill="white"/>
<path opacity="0.5" d="M52.2027 34.3666V47.8689L36.1353 56.3836V25.8519L52.2027 34.3666Z" fill="url(#paint5_linear)"/>
<path d="M78.9936 52.5003C78.9223 52.5003 78.8511 52.5359 78.7798 52.5359C78.6373 52.5716 78.4948 52.6072 78.3167 52.6072C78.1386 52.6428 77.9248 52.6428 77.7111 52.6428C77.6754 52.6428 77.6754 52.6428 77.6398 52.6428V58.2361L59.3279 48.5458V33.6897L77.6398 23.9993V32.4427C77.9604 32.514 78.2811 32.5852 78.6017 32.7278C78.7798 32.799 78.9936 32.9059 79.2074 33.0128V19.3679L57.7604 30.7327V51.5028L79.2074 62.8675V52.4291C79.1717 52.4647 79.1005 52.5003 78.9936 52.5003Z" fill="white"/>
<path d="M38.5935 42.81C38.8785 42.7031 39.2704 42.5606 39.6979 42.3112C40.1254 42.0618 40.3748 41.5274 40.6598 41.2781C40.9448 41.0287 42.1918 40.5299 42.1918 40.5299L42.3343 40.3874L42.9043 40.2805L43.0824 40.4586C43.0824 40.4586 43.0112 40.5299 43.0824 40.5655C43.1537 40.6012 43.2605 40.5655 43.2249 40.6368C43.2249 40.708 43.2605 41.0999 43.2249 41.1712C43.1893 41.2424 43.1537 41.3493 43.118 41.4918C43.0824 41.6343 42.9399 41.7412 42.9399 41.7768C42.9755 41.8124 42.9043 41.8837 42.8687 41.8124C42.833 41.7412 42.4768 42.0618 42.4768 42.0618L42.2274 42.7031L41.4436 43.8075L40.6242 44.3063L39.7692 44.6982L39.2348 44.9476L38.736 45.1257L37.9166 45.2682H37.5247L36.9903 44.9119L36.7409 44.6625L36.2422 44.52C36.2422 44.52 35.8859 44.4844 35.8503 44.4844C35.8147 44.4844 35.4584 44.4844 35.4584 44.4844L34.354 44.9476L33.4277 45.4819L31.8958 46.6932L31.0764 47.4414C31.0764 47.4414 30.7201 47.4414 30.6845 47.4414C30.6489 47.4414 30.3995 47.3345 30.3282 47.2989C30.257 47.2633 30.0432 47.2276 30.0432 47.1564C30.0432 47.1208 30.0788 47.0495 30.0432 46.9426C30.0076 46.8357 29.972 46.7645 30.0432 46.5864C30.1145 46.4082 30.0432 46.337 30.1857 46.1588C30.3282 45.9807 31.2189 44.8407 31.3258 44.7338C31.4326 44.6269 32.6083 43.5938 32.6796 43.4156C32.7508 43.2375 33.4277 42.4893 33.8908 42.2756C34.354 42.0618 34.639 42.0975 34.7815 42.1331C34.924 42.1687 36.6697 42.5606 36.9191 42.5962C37.1685 42.6318 37.9522 42.7031 38.2372 42.6675C38.4866 42.7387 38.5935 42.81 38.5935 42.81Z" fill="white"/>
<path d="M68.8402 33.6185L66.7739 33.4047L63.425 33.3334L62.7125 33.3691L62.285 33.2622C62.285 33.2622 62 32.9059 62 32.8703C62 32.8347 61.9644 32.4784 61.9644 32.4072C61.9644 32.3359 62.0356 32.1221 62.0712 32.0865C62.1069 32.0509 62.4988 31.944 62.5344 31.944C62.57 31.944 64.1019 31.8015 64.1019 31.8015H65.4557L67.1658 31.944L69.4459 32.3003L70.6215 32.514L72.2603 32.8703L72.581 33.0841L72.4741 33.2978C72.4741 33.2978 72.2603 33.4403 72.1178 33.4759C71.9753 33.5472 71.4766 33.6897 71.4766 33.6897L70.8353 33.761H70.0159L69.3034 33.6897L68.8402 33.6185Z" fill="white"/>
<path d="M83.1976 49.6145C83.1976 49.472 83.162 49.3652 83.0907 49.2583C83.0551 49.187 83.2332 49.7927 83.162 49.8283C83.0907 49.8639 82.9482 49.6858 82.9482 49.7214C82.9482 49.7571 82.9126 49.8283 82.9126 49.8639C82.9126 49.8996 82.8769 49.757 82.8769 49.8283C82.8413 49.8996 82.7344 49.8283 82.6632 49.8639C82.6632 49.757 82.5919 49.6858 82.5207 49.6145C82.3426 49.4008 82.1288 49.2227 81.8794 49.0802C81.63 48.9376 81.3806 48.8664 81.0956 48.8664C81.06 48.8664 81.0244 48.8664 80.9531 48.8664C80.8819 48.902 80.8462 48.9376 80.8462 49.0445C80.8462 49.1158 80.9175 49.187 80.9531 49.187C80.9888 49.187 80.9888 49.187 81.0244 49.187C81.345 49.1514 81.63 49.2939 81.8794 49.472C82.0219 49.5789 82.1644 49.7214 82.3069 49.8639C82.3426 49.8996 82.3782 49.9352 82.4138 50.0064C82.3426 50.0421 82.3069 50.0777 82.2357 50.0777C81.9507 50.1846 81.6657 50.2914 81.345 50.3627C81.2025 50.3983 81.06 50.4339 80.8819 50.4696C80.6325 50.5052 80.3831 50.5765 80.1337 50.6121C79.8843 50.6477 79.635 50.6833 79.3856 50.719C79.2074 50.7546 79.0293 50.7902 78.8156 50.8258C78.6374 50.8615 78.4949 50.8971 78.3168 50.9327C77.9962 51.004 77.7111 51.004 77.3905 51.004C76.6424 50.9327 75.8942 50.7546 75.1461 50.5765C74.7185 50.4696 74.291 50.3627 73.8635 50.2558C73.6141 50.1846 73.3647 50.0777 73.1154 50.0064C72.581 49.7927 72.0466 49.5789 71.5122 49.3295C71.1559 49.1514 70.7997 48.9733 70.4434 48.7595C70.1228 48.5814 69.8021 48.4389 69.4815 48.2251C68.9827 47.9401 68.5196 47.6551 68.0564 47.3701C67.7714 47.192 67.4864 47.0138 67.2014 46.8357C66.7739 46.5863 66.382 46.3013 65.9545 46.0163C65.8832 45.9807 65.812 45.945 65.7407 45.8738C65.6695 45.8382 65.5626 45.8738 65.527 45.945C65.4913 46.0163 65.4913 46.0875 65.5626 46.1588C65.6339 46.1944 65.6695 46.2301 65.7407 46.2657C66.2751 46.5863 66.7739 46.9426 67.3083 47.2632C67.3439 47.2632 67.3439 47.2988 67.3795 47.3345C67.1658 47.5482 66.952 47.762 66.7383 47.9401C66.7026 47.9401 66.7026 47.9401 66.7026 47.9045C66.6314 47.7976 66.5601 47.7976 66.4533 47.8689C66.382 47.9045 66.3107 47.9401 66.2395 48.0114C65.9189 48.1895 65.5626 48.332 65.1707 48.4389C64.8501 48.5458 64.5294 48.617 64.1732 48.6526C63.7457 48.7239 63.3181 48.7595 62.8906 48.7951C62.57 48.8308 62.2137 48.8308 61.8575 48.8664C61.5368 48.8664 61.2162 48.8664 60.8599 48.8664C60.3968 48.8664 59.9693 48.8664 59.5061 48.8664C59.1499 48.8664 58.7936 48.8308 58.4374 48.8308C58.0811 48.8308 57.7248 48.7951 57.3329 48.7951C57.0479 48.7951 56.7986 48.7595 56.5135 48.7595C56.2642 48.7239 56.0148 48.7239 55.7654 48.6883C55.6941 48.6883 55.6229 48.6526 55.516 48.6526C55.3379 48.617 55.1954 48.617 55.0172 48.5814C54.9104 48.5814 54.8035 48.5458 54.6966 48.5101C54.4116 48.4745 54.1622 48.4389 53.8772 48.3676C53.2359 48.2251 52.6303 48.047 51.989 47.9045C51.4546 47.762 50.9559 47.6195 50.4215 47.4413C50.2433 47.3701 50.0296 47.2988 49.8158 47.2276C49.6733 47.192 49.6021 47.192 49.5664 47.2988C49.5308 47.3701 49.5664 47.477 49.7089 47.5126C49.6733 47.6195 49.6021 47.7264 49.5308 47.8332C49.5664 47.7976 49.5664 47.7976 49.5664 47.762C49.6021 47.6907 49.5664 47.6195 49.4952 47.5839C49.4239 47.5482 49.317 47.5482 49.2814 47.6195C49.0677 47.9045 48.747 48.0826 48.462 48.2964C48.1058 48.5458 47.7139 48.7595 47.322 48.9376C47.1082 49.0445 46.8945 49.1158 46.6807 49.1514C46.4669 49.2227 46.2532 49.2583 46.0038 49.2939C45.5407 49.3652 45.0775 49.3652 44.5788 49.3652C43.8662 49.3652 43.1537 49.3295 42.4768 49.2227C42.1205 49.187 41.7643 49.1514 41.4436 49.0802C40.9449 49.0089 40.4817 48.8308 40.0186 48.6526C39.4842 48.4389 38.9498 48.1895 38.4154 48.0114C37.9523 47.8689 37.5248 47.762 37.0616 47.6907C36.8479 47.6551 36.6341 47.6907 36.456 47.7264C36.0997 47.7976 35.7435 47.9401 35.4228 48.1182C34.9597 48.332 34.5322 48.5814 34.1046 48.8664C33.8553 49.0445 33.6059 49.2227 33.3209 49.4008C33.0359 49.5789 32.7865 49.7927 32.5015 50.0064C32.2521 50.1846 32.0027 50.3983 31.7889 50.5765C31.6821 50.6477 31.5752 50.7546 31.4683 50.7902C31.2545 50.8971 31.0408 50.9327 30.827 50.8615C30.6133 50.8258 30.4708 50.6833 30.3283 50.5408C30.1501 50.3627 30.0076 50.1489 29.8651 49.9352C29.7226 49.7214 29.7226 49.472 29.7939 49.2227C29.9008 48.8664 30.0789 48.5814 30.257 48.2607C30.5777 47.7976 30.9339 47.4413 31.2902 47.0495C31.4683 46.907 31.6108 46.7288 31.7889 46.5863C31.9671 46.4082 32.1808 46.2657 32.359 46.1232C32.6083 45.945 32.8934 45.7313 33.1427 45.5532C33.5346 45.3038 33.9265 45.09 34.354 44.8763C34.4965 44.805 34.6747 44.7338 34.8172 44.6625C34.9953 44.5912 35.1378 44.52 35.3159 44.52C35.4941 44.4844 35.6366 44.4844 35.8147 44.4844C36.1353 44.4844 36.3847 44.6269 36.6341 44.805C36.8122 44.9119 36.9547 45.0188 37.1329 45.1256C37.4179 45.3038 37.7029 45.3038 38.0235 45.2681C38.166 45.2325 38.2729 45.1969 38.4154 45.1969C38.5223 45.1613 38.6292 45.1613 38.7361 45.1256C39.1636 44.9831 39.5555 44.8406 39.9473 44.6269C40.2324 44.4844 40.5174 44.3419 40.8024 44.1637C41.0874 43.9856 41.408 43.7718 41.6218 43.5225C41.8712 43.2018 42.0493 42.8812 42.2274 42.5606C42.2987 42.3824 42.4056 42.2043 42.5124 41.9905C42.5124 41.9549 42.5481 41.9193 42.5837 41.9193C42.6906 41.9193 42.7618 41.848 42.8687 41.8124C43.0825 41.6699 43.225 41.4918 43.2962 41.2424C43.3318 41.0999 43.3318 40.993 43.2962 40.8505C43.2606 40.7792 43.2962 40.708 43.3318 40.6367C43.4743 40.423 43.6168 40.2092 43.795 40.0311C43.9375 39.8173 44.1512 39.6748 44.365 39.4967C44.8638 39.1761 45.3625 38.9623 45.9326 38.7842C46.1107 38.7129 46.2532 38.6773 46.4313 38.606C46.752 38.5348 47.1082 38.4279 47.4645 38.3567C47.6782 38.321 47.9276 38.2854 48.1414 38.2498C48.2839 38.2142 48.4264 38.2142 48.5689 38.2142C49.032 38.2142 49.5308 38.2498 49.9939 38.2854C50.279 38.321 50.5283 38.321 50.8133 38.3567C51.0271 38.3923 51.2409 38.3923 51.4546 38.4279C51.5615 38.4635 51.6684 38.4635 51.7753 38.4635C51.8465 38.4635 51.9178 38.4992 52.0246 38.4992C52.1671 38.4992 52.3096 38.5348 52.4522 38.5348C52.559 38.5348 52.6659 38.5704 52.7728 38.606C53.3428 38.6773 53.8772 38.7485 54.4472 38.8198C54.9816 38.891 55.516 38.9623 56.0504 38.9979C56.7629 39.0692 57.4398 39.0692 58.1523 39.0692C58.5442 39.0692 58.9005 39.0336 59.2924 39.0336C59.7555 38.9979 60.2187 38.9979 60.6818 38.9623C61.0381 38.9267 61.3943 38.891 61.7506 38.8198C61.9287 38.7842 62.1069 38.7485 62.285 38.7129C62.7125 38.606 63.1756 38.4635 63.6032 38.3567C63.9594 38.2498 64.3513 38.1429 64.7076 38.0716C65.1351 38.0004 65.5626 37.8579 65.9901 37.7154C66.1326 37.6798 66.2751 37.6441 66.382 37.6085C66.5601 37.5373 66.5601 37.5016 66.5245 37.3235V37.2879C66.5601 37.2879 66.5958 37.2522 66.5958 37.2522C66.7739 37.181 66.9164 37.1097 67.0945 37.0385C67.237 37.0029 67.237 36.9672 67.237 36.8247V36.7891C67.2727 36.7891 67.3083 36.7535 67.3439 36.7535C67.7002 36.7178 68.0921 36.6822 68.4483 36.6466C68.484 36.6466 68.484 36.6466 68.5196 36.6466C68.769 36.6466 69.0183 36.6822 69.2321 36.6822C69.339 36.6822 69.4459 36.7535 69.5527 36.7535C69.624 36.7891 69.6952 36.7535 69.7309 36.6822C69.7665 36.611 69.7665 36.5041 69.6596 36.4685C69.5527 36.3972 69.4102 36.3616 69.3034 36.3616C69.1252 36.3616 68.9827 36.326 68.8046 36.326C68.484 36.326 68.1633 36.326 67.8427 36.3616C67.7002 36.3616 67.522 36.3972 67.3795 36.4328C67.0945 36.4685 66.8095 36.4685 66.5601 36.4685C66.1326 36.4328 65.7051 36.4328 65.2776 36.3972C64.8501 36.3616 64.4226 36.2903 63.9594 36.2191C63.4607 36.1478 62.9975 36.041 62.4987 35.8984C62.1781 35.7916 61.8575 35.6847 61.5725 35.5422C61.3587 35.4709 61.1806 35.3284 61.0024 35.2215C60.8956 35.1503 60.7887 35.0434 60.6818 34.9365C60.6106 34.8653 60.5749 34.7584 60.5393 34.6872C60.5037 34.5803 60.5393 34.4734 60.6462 34.4021C60.7531 34.3309 60.8599 34.224 60.9668 34.1884C61.1806 34.0459 61.3943 33.939 61.6437 33.8678C61.715 33.8321 61.7862 33.7965 61.8575 33.7609C61.9287 33.7252 62.0356 33.7252 62.1069 33.6896C62.3206 33.6184 62.5344 33.5827 62.7481 33.5471C63.2825 33.4402 63.8169 33.369 64.3513 33.369C64.7432 33.369 65.1707 33.3334 65.5626 33.369C66.0614 33.4046 66.5958 33.4402 67.0945 33.4759C67.5577 33.5115 68.0564 33.5827 68.5196 33.654C68.9827 33.7252 69.4459 33.8321 69.909 33.9034C70.1584 33.9746 70.4434 33.9746 70.6928 33.939C70.9065 33.9034 71.1559 33.8321 71.3697 33.7965C71.7259 33.7252 72.0466 33.6184 72.4028 33.5115C72.7947 33.4046 73.2222 33.369 73.6498 33.369C74.1129 33.369 74.576 33.4046 75.0036 33.4759C75.5379 33.5471 76.0723 33.654 76.6067 33.7252C76.9274 33.7965 77.2836 33.8678 77.6043 33.939C77.9605 34.0459 78.2812 34.1884 78.6018 34.3665C78.8868 34.5446 79.1718 34.6872 79.4212 34.8653C79.7418 35.1147 80.0981 35.3641 80.3831 35.6491C80.6325 35.8628 80.8819 36.1122 81.0956 36.326C81.3094 36.5397 81.5232 36.7891 81.7013 37.0029C81.7725 37.1097 81.8794 37.2166 81.9507 37.3235C82.0575 37.5016 82.1644 37.6441 82.2 37.8579C82.2 37.9291 82.2 37.9648 82.2 38.036C81.9507 38.0716 81.7369 38.1429 81.5232 38.1073C81.3806 38.0716 81.2381 38.036 81.1313 37.9648C81.1313 37.9648 81.0956 37.9648 81.0956 37.9291C80.8463 37.8223 80.5969 37.751 80.3475 37.6441C80.2406 37.6085 80.1693 37.6441 80.1337 37.751C80.0981 37.8579 80.1337 37.9291 80.2406 37.9648C80.4187 38.036 80.5612 38.0716 80.7394 38.1429C80.8463 38.1785 80.9888 38.2142 81.0956 38.2854C81.2381 38.3567 81.4163 38.3923 81.5944 38.4279C81.63 38.4279 81.7013 38.4279 81.7369 38.4279C81.8794 38.4279 82.0219 38.3923 82.1644 38.3923C82.1644 38.4992 82.1288 38.606 82.0575 38.6773C81.9863 38.8554 81.8794 39.0336 81.8082 39.2117C81.7013 39.4254 81.5588 39.6392 81.4163 39.8173C81.3094 39.9598 81.2025 40.0667 81.06 40.2092C80.775 40.4942 80.49 40.708 80.1337 40.9217C79.8131 41.0999 79.5281 41.278 79.1718 41.3849C79.0293 41.4205 78.9224 41.4918 78.7799 41.5274C78.6731 41.563 78.5662 41.5986 78.4237 41.6343C78.1387 41.7055 77.8536 41.7768 77.5686 41.848C77.248 41.9193 76.9274 41.9549 76.6067 42.0262C76.0723 42.0974 75.5379 42.133 75.0036 42.133C74.6829 42.133 74.3979 42.0974 74.0773 42.0974C74.006 42.0974 73.9348 42.0974 73.8991 42.1687C73.8279 42.2399 73.8635 42.3468 73.9348 42.3824C73.9704 42.418 74.0416 42.418 74.1129 42.4537H74.1841C74.1841 42.5962 74.1129 42.6674 74.0773 42.7387C74.1129 42.6674 74.1129 42.5962 74.0773 42.5606C74.006 42.4893 73.8991 42.4537 73.8279 42.5249C73.6498 42.6674 73.5073 42.8099 73.3291 42.9524C73.0797 43.1662 72.7947 43.38 72.4741 43.4868C72.296 43.5581 72.1178 43.5581 71.9397 43.5937C71.7616 43.6293 71.5834 43.6293 71.4409 43.7006C71.4053 43.7006 71.3697 43.7362 71.334 43.7362C71.1915 43.7362 71.1203 43.8075 70.9778 43.8431C70.9422 43.8431 70.9065 43.8787 70.9065 43.8787C70.7997 43.8787 70.7284 43.95 70.6572 44.0212C70.5859 44.0925 70.6215 44.1994 70.7284 44.235C70.764 44.2706 70.7997 44.2706 70.8709 44.2706C70.8709 44.3775 70.9422 44.4487 71.0134 44.4844C71.4053 44.8406 71.8328 45.1613 72.2603 45.4819C72.6522 45.7669 73.0441 46.0519 73.4716 46.3369C73.9704 46.6932 74.5048 47.0138 75.0392 47.2276C75.6805 47.5126 76.3217 47.6907 76.9986 47.762C77.4618 47.8332 77.9605 47.8332 78.4237 47.8332C78.6374 47.7976 78.8512 47.7976 79.0649 47.762C79.5637 47.6907 80.0625 47.6551 80.5612 47.6907C80.775 47.7264 81.0244 47.762 81.2381 47.7976C81.5232 47.8689 81.7725 47.9401 82.0575 48.0114C82.3426 48.1182 82.6632 48.1539 82.9126 48.332C83.0195 48.4745 83.0551 48.7239 83.0907 48.8664C83.2332 49.2227 83.1976 49.472 83.1976 49.6145Z" fill="white"/>
<path d="M82.5915 37.8223C82.5558 37.6798 82.5202 37.5373 82.4133 37.3948C82.3065 37.2523 82.2352 37.1098 82.1283 36.9673C81.8077 36.5754 81.4514 36.1835 81.0595 35.8272C80.7033 35.471 80.3114 35.1503 79.8839 34.8297C79.7414 34.7228 79.5989 34.6516 79.4564 34.5447C79.3139 34.4734 79.1713 34.3665 79.0288 34.2953C78.7438 34.1172 78.4588 34.0103 78.1738 33.8678C77.7819 33.6896 77.3188 33.6184 76.8913 33.5471C76.535 33.4759 76.2144 33.4046 75.8581 33.369C75.2881 33.2978 74.7181 33.2265 74.1481 33.1909C73.7562 33.1909 73.3286 33.1909 72.9368 33.2265C72.9011 33.2265 72.8655 33.2265 72.7943 33.2621H72.6874C72.7586 33.0484 72.723 33.0128 72.5092 32.9415C72.2599 32.8702 71.9749 32.7634 71.7255 32.6921C71.298 32.5852 70.8704 32.4784 70.4429 32.3715C70.0154 32.2646 69.6235 32.1933 69.196 32.0865C68.9822 32.0508 68.7685 32.0152 68.5191 31.9796C68.4122 31.9796 68.341 31.944 68.2341 31.9083C67.9491 31.8727 67.6997 31.8371 67.4147 31.8015C67.0941 31.7658 66.7378 31.7658 66.4172 31.7302C66.1678 31.7302 65.9184 31.6946 65.6334 31.6946C65.2059 31.6946 64.7784 31.6946 64.3865 31.6946C63.9946 31.6946 63.6027 31.7302 63.2108 31.7658C62.997 31.8015 62.7833 31.8015 62.5695 31.8371C62.3558 31.8371 62.1776 31.9083 61.9995 32.0152C61.7858 32.1577 61.7145 32.3715 61.7501 32.6209C61.7501 32.8346 61.857 33.0127 62.0351 33.1553C62.1064 33.2265 62.2133 33.2621 62.3201 33.3334C62.3201 33.3334 62.3558 33.369 62.3914 33.369V33.4046C62.3558 33.4046 62.3558 33.4046 62.3201 33.4403C62.2133 33.4759 62.0708 33.5115 61.9639 33.5471C61.8926 33.5828 61.7858 33.5828 61.7145 33.6184C61.5007 33.6896 61.2514 33.7965 61.0732 33.9034C60.8951 34.0103 60.717 34.1172 60.5745 34.224C60.432 34.3309 60.3607 34.4734 60.3607 34.6516C60.3607 34.8653 60.4676 35.0434 60.6101 35.2216C60.7526 35.3997 60.9663 35.5422 61.1801 35.6847C61.5364 35.8628 61.8926 36.041 62.2489 36.1479C62.8545 36.3616 63.4958 36.5041 64.1371 36.611C64.4933 36.6823 64.8852 36.7179 65.2771 36.7535C65.7403 36.8248 66.1678 36.8248 66.6309 36.8604C66.7022 36.8604 66.7734 36.8604 66.8447 36.8604C66.8447 36.8604 66.8803 36.8604 66.9159 36.8604V36.896C66.8447 36.9316 66.8091 36.9673 66.7378 36.9673C66.5597 37.0385 66.4172 37.1098 66.239 37.1454C66.0609 37.2166 66.0609 37.2523 66.0965 37.4304C66.0965 37.4304 66.0609 37.466 66.0253 37.466C65.669 37.5729 65.3127 37.6798 64.9565 37.751C64.4221 37.8935 63.9233 38.0004 63.3889 38.1429C63.1039 38.2142 62.7833 38.2854 62.4983 38.3923C62.1776 38.4636 61.857 38.5348 61.5007 38.6061C61.0376 38.6773 60.5388 38.7129 60.0757 38.7129C59.7551 38.7129 59.3988 38.7486 59.0425 38.7486C58.615 38.7486 58.1519 38.7842 57.7244 38.7842C57.2612 38.7842 56.7625 38.7486 56.2993 38.7486C56.0856 38.7486 55.8362 38.7129 55.6224 38.7129C54.9811 38.6417 54.3399 38.5704 53.6986 38.4992C53.4136 38.4636 53.1286 38.4279 52.8792 38.3923C52.7367 38.3923 52.5586 38.3567 52.4161 38.3211C52.1667 38.2854 51.9173 38.2498 51.6679 38.2498C51.3116 38.2142 50.9554 38.1786 50.5991 38.1429C49.9935 38.1073 49.3522 38.036 48.7109 38.036C48.7109 38.036 48.6753 38.036 48.6397 38.0004C48.6397 38.0004 48.6397 37.9648 48.6753 37.9648C48.9603 37.8223 49.2809 37.7154 49.6016 37.6442C49.9222 37.6085 50.2429 37.5373 50.5279 37.5017C50.5991 37.5017 50.706 37.5017 50.8129 37.5017C51.0266 37.5017 51.276 37.466 51.4898 37.5017C51.561 37.5017 51.6323 37.5017 51.7392 37.5017C51.9529 37.5017 52.1667 37.5373 52.3804 37.5373C52.4873 37.5373 52.5586 37.5729 52.6654 37.5729C52.8079 37.5729 52.8792 37.5017 52.8436 37.3592C52.8436 37.2879 52.8079 37.2166 52.7723 37.1454C52.6298 36.8248 52.4517 36.5397 52.2023 36.2547C51.8104 35.8272 51.3473 35.471 50.8485 35.186C50.421 34.9722 49.9578 34.7941 49.4947 34.6516C49.2097 34.5803 48.8891 34.5091 48.604 34.4734C48.1053 34.4022 47.6065 34.3665 47.1077 34.3665C46.8227 34.3665 46.5377 34.4378 46.2527 34.5091C45.9677 34.5803 45.6471 34.6872 45.3621 34.7941C45.2196 34.8297 45.1127 34.9009 44.9702 34.9722C44.8633 35.0434 44.7564 35.0791 44.6139 35.1503C44.5783 35.1859 44.507 35.2216 44.4714 35.2572C44.4002 35.3285 44.2933 35.3641 44.222 35.4353C44.1151 35.5422 43.9726 35.6135 43.8658 35.7203C43.7233 35.8272 43.6164 35.9697 43.5095 36.1122C43.2601 36.4329 43.0464 36.8248 42.9395 37.2166C42.8326 37.5373 42.797 37.8935 42.797 38.2142C42.797 38.4279 42.797 38.6417 42.797 38.8911C42.797 38.9623 42.8326 39.0336 42.8682 39.1405C42.9395 39.4255 43.0107 39.7105 43.0464 40.0311C43.0464 40.138 43.0464 40.2449 43.0107 40.3518C42.9751 40.4943 43.0107 40.5299 43.1176 40.6011L43.1532 40.6368C43.1532 40.708 43.1176 40.7436 43.1176 40.8149C43.1176 40.8505 43.1532 40.9218 43.1532 40.993C43.1889 41.1712 43.1532 41.3493 43.0107 41.5274C42.9751 41.4562 43.0107 41.4562 43.0107 41.4205C43.0464 41.3137 43.0107 41.2424 42.9395 41.2068C42.8682 41.1712 42.797 41.2068 42.7257 41.278C42.7257 41.3137 42.6901 41.3137 42.6901 41.3493C42.5476 41.6343 42.4407 41.9549 42.2982 42.2399C42.1557 42.5606 41.9776 42.8456 41.7994 43.1306C41.5857 43.4512 41.3363 43.7006 41.0157 43.8787C40.7663 44.0213 40.4813 44.1994 40.2319 44.3419C39.9469 44.4844 39.6619 44.5913 39.3769 44.7338C39.0918 44.8407 38.7712 44.9475 38.4506 45.0188C38.2368 45.0544 38.0231 45.09 37.8093 45.0544C37.7024 45.0544 37.6312 44.9832 37.5243 44.9475C37.3462 44.8407 37.2037 44.7338 37.0255 44.6269C36.883 44.52 36.6693 44.4488 36.4911 44.3775C36.2061 44.3063 35.9211 44.3063 35.6361 44.3775C35.4223 44.4131 35.2086 44.4844 34.9948 44.5556C34.8523 44.5913 34.7098 44.6625 34.5673 44.7338C34.3892 44.805 34.2111 44.8763 34.0329 44.9832C33.641 45.1969 33.2491 45.4107 32.8929 45.6957C32.5366 45.9451 32.1804 46.2301 31.8241 46.5151C31.5391 46.7645 31.2897 47.0139 31.0403 47.2632C31.0047 47.2989 30.9691 47.3345 30.8978 47.3345C30.8266 47.3345 30.7553 47.3345 30.6841 47.3701C30.6128 47.4057 30.5059 47.3701 30.399 47.3701C30.2922 47.3701 30.2209 47.2632 30.1853 47.192C30.1497 47.1207 30.1497 47.0139 30.1497 46.9426C30.1497 46.8714 30.1497 46.7645 30.1853 46.6932C30.2209 46.5507 30.2922 46.4438 30.3634 46.337C30.5059 46.1588 30.6484 45.9807 30.7909 45.7669C31.0403 45.4107 31.361 45.09 31.646 44.7694C32.1091 44.2706 32.5722 43.8075 33.0354 43.3087C33.2135 43.1306 33.356 42.9525 33.5698 42.81C33.8192 42.6318 34.1042 42.4537 34.4248 42.4537C34.6742 42.4537 34.9236 42.4893 35.173 42.5962C35.3511 42.6675 35.4936 42.7387 35.6717 42.7743C36.1349 42.9168 36.5624 42.9881 37.0612 43.0237C37.738 43.0593 38.4149 43.0593 39.0562 42.9168C39.2344 42.8812 39.4481 42.81 39.6262 42.7387C39.84 42.6318 40.0181 42.4893 40.2319 42.3468C40.4813 42.1331 40.6594 41.8837 40.8375 41.5987C40.9088 41.4918 40.98 41.4205 41.0869 41.3849C41.1938 41.3137 41.3007 41.2424 41.4432 41.2068C41.5501 41.1712 41.6569 41.1355 41.7638 41.0999C42.0132 41.0287 42.8326 40.7436 43.0464 40.6724C43.1532 40.6368 43.1889 40.6011 43.1889 40.4943C43.1889 40.3874 43.1176 40.3518 43.0107 40.3518H42.9751C42.6901 40.4586 41.8351 40.7436 41.5501 40.8149C41.3719 40.8861 41.1938 40.9574 41.0157 41.0643C40.8019 41.1712 40.6238 41.3137 40.5169 41.5274C40.4813 41.5987 40.41 41.6699 40.3744 41.7768C40.3031 41.8481 40.2319 41.9549 40.1606 42.0262C40.125 42.0618 40.0894 42.0618 40.0894 42.0974C40.0181 42.1687 39.9113 42.2399 39.84 42.3112C39.7687 42.3468 39.6975 42.3824 39.6262 42.4181C39.4481 42.4893 39.27 42.5606 39.0918 42.6318C38.985 42.6675 38.8781 42.6675 38.8068 42.7031C38.4149 42.7387 38.0231 42.7743 37.6312 42.7743C37.2393 42.7743 36.8474 42.7387 36.4555 42.6675C36.0992 42.5962 35.7786 42.525 35.458 42.3824C35.1373 42.2399 34.7811 42.1687 34.4248 42.2399C34.1398 42.2756 33.8548 42.4181 33.6054 42.5962C33.4629 42.7031 33.3204 42.8456 33.1779 42.9525C32.9641 43.1662 32.7148 43.38 32.501 43.6294C32.1447 44.0213 31.7528 44.4131 31.3966 44.805C31.2897 44.9119 31.1828 45.0544 31.0759 45.1613C30.7909 45.5176 30.4703 45.8738 30.2209 46.2657C30.1497 46.4082 30.0428 46.5863 29.9715 46.7288C29.9715 46.8001 29.9359 46.8357 29.9359 46.907C29.9359 47.1564 29.9359 47.3701 30.0784 47.5839C30.2209 47.762 30.4347 47.8333 30.6484 47.8333H30.6841C30.6841 47.8333 30.6841 47.8333 30.7197 47.8333C30.7197 47.8689 30.6841 47.8689 30.6841 47.9045C30.4703 48.1539 30.2922 48.4389 30.114 48.7239C29.9715 48.9733 29.8647 49.2583 29.7934 49.5789C29.7578 49.7571 29.7578 49.9708 29.8647 50.149C29.9003 50.2202 29.9359 50.2915 30.0072 50.3627C30.1853 50.6121 30.3634 50.8971 30.6128 51.0752C30.7909 51.2177 30.9691 51.289 31.1828 51.3603C31.361 51.3959 31.5391 51.3959 31.7172 51.3603C31.8241 51.3246 31.8954 51.289 32.0022 51.2534C32.1447 51.1821 32.2872 51.1109 32.4297 51.004C32.4654 50.9684 32.5366 50.9327 32.6079 50.8615C32.7148 50.7902 32.8216 50.6834 32.9641 50.6121C33.1779 50.434 33.3917 50.2915 33.641 50.1133C33.8548 49.9708 34.0685 49.7927 34.2823 49.6502C34.4961 49.5077 34.7454 49.3296 34.9592 49.1871C35.2086 49.0446 35.4936 48.8664 35.743 48.7239C35.9567 48.617 36.1705 48.5102 36.3843 48.4033C36.598 48.2964 36.8118 48.2608 37.0612 48.1895C37.2393 48.1539 37.4174 48.1539 37.6312 48.1895C37.8093 48.2251 38.0231 48.2608 38.2012 48.2964C38.3081 48.332 38.4149 48.3677 38.5218 48.4033C38.985 48.5458 39.4481 48.7239 39.9113 48.9377C40.3388 49.1158 40.7663 49.2939 41.1938 49.4364C41.3719 49.4721 41.5501 49.5077 41.7282 49.5433C41.8707 49.5789 42.0132 49.6146 42.1913 49.6146C42.6545 49.6858 43.1176 49.7215 43.5808 49.7927C44.1151 49.864 44.6495 49.864 45.1839 49.864C45.4333 49.864 45.7183 49.864 46.0033 49.8283C46.3952 49.7927 46.8227 49.7571 47.2146 49.6502C47.6778 49.5433 48.1053 49.3652 48.4972 49.1158C48.7466 48.9733 48.9959 48.8308 49.2453 48.6527C49.4947 48.4745 50.0291 47.9758 50.2072 47.7264C50.2429 47.6908 50.2429 47.6551 50.2785 47.6195C50.2785 47.6195 50.2785 47.6195 50.2785 47.5839C50.2785 47.5483 50.2785 47.5126 50.2785 47.477C50.2785 47.4414 50.2429 47.4414 50.2429 47.4414C50.1716 47.4057 50.1003 47.4057 50.0291 47.477C49.9935 47.5483 49.9222 47.6195 49.851 47.6551C49.8153 47.7264 49.4591 48.1183 49.3878 48.1895C49.3166 48.2251 49.2453 48.2964 49.1741 48.332C49.1028 48.3677 49.0316 48.4389 48.9603 48.4745C48.8891 48.5102 48.8534 48.5458 48.7822 48.5814C48.5684 48.7239 48.3547 48.8664 48.1053 48.9733C47.9984 49.0446 47.9271 49.0802 47.8203 49.1158C47.7134 49.1514 47.6065 49.1871 47.4996 49.2227C47.3928 49.2583 47.2859 49.2939 47.179 49.2939C46.9652 49.3296 46.7515 49.4008 46.5021 49.4008C46.039 49.4721 45.5758 49.4721 45.0771 49.4721H44.8633C44.5783 49.4721 44.2576 49.4721 43.9726 49.4364C43.937 49.4364 43.9014 49.4364 43.8658 49.4364C43.5808 49.4364 43.2601 49.4008 42.9751 49.3652C42.6188 49.3296 42.2626 49.2939 41.9419 49.2227C41.8351 49.1871 41.6926 49.1871 41.5857 49.1514C41.2294 49.0802 40.8732 48.9377 40.5525 48.7952C40.41 48.7595 40.3031 48.6883 40.1606 48.617C39.9112 48.5102 39.6262 48.4033 39.3412 48.2964C39.1987 48.2608 39.0562 48.1895 38.9493 48.1539C38.6287 48.047 38.2724 47.9401 37.9162 47.9045C37.8093 47.8689 37.6668 47.8689 37.5599 47.8689C37.3462 47.8333 37.168 47.8689 36.9543 47.9045C36.7049 47.9758 36.4199 48.047 36.1705 48.1895C36.0992 48.2251 35.9924 48.2608 35.9211 48.2964C35.7074 48.4033 35.4936 48.5458 35.2442 48.6527C35.0305 48.7952 34.8167 48.902 34.6029 49.0445C34.3536 49.2227 34.1042 49.4008 33.8548 49.5789C33.5698 49.7571 33.3204 49.9708 33.0354 50.1846C32.786 50.3627 32.5366 50.5765 32.2872 50.7546C32.1804 50.8259 32.0735 50.9327 31.9666 50.9684C31.7528 51.0752 31.5391 51.1109 31.3253 51.0396C31.1472 51.004 30.9691 50.8971 30.8266 50.719C30.7553 50.6477 30.6484 50.5409 30.5772 50.434C30.5059 50.3271 30.4347 50.2202 30.3634 50.1133C30.2922 49.9708 30.2209 49.8283 30.2209 49.6858C30.2209 49.5789 30.2209 49.5077 30.2565 49.4008C30.3634 49.0445 30.5416 48.7595 30.7197 48.4389C31.0047 48.0114 31.3966 47.6195 31.7528 47.2276C31.8953 47.0851 32.0735 46.907 32.2516 46.7645C32.4297 46.622 32.6079 46.4438 32.8216 46.3013C33.071 46.1232 33.356 45.9451 33.6054 45.7669C33.9973 45.5176 34.3892 45.3038 34.8167 45.09C34.9592 45.0188 35.1373 44.9475 35.2798 44.8763C35.458 44.8407 35.6005 44.7694 35.7786 44.7338C35.8499 44.7338 35.9211 44.6982 36.028 44.6982C36.0992 44.6982 36.2061 44.6982 36.2774 44.6982C36.598 44.6982 36.8474 44.8407 37.0968 45.0188C37.2749 45.1257 37.4174 45.2325 37.5955 45.3394C37.8806 45.5176 38.1656 45.5176 38.4862 45.4819C38.5931 45.4819 38.7356 45.4463 38.8425 45.4107C38.9493 45.375 39.0562 45.3751 39.1631 45.3394C39.5906 45.1969 39.9825 45.0544 40.3744 44.8407C40.6594 44.6982 40.9444 44.5556 41.2294 44.3775C41.5144 44.1994 41.8351 43.9856 42.0488 43.7006C42.2982 43.4156 42.4763 43.0593 42.6545 42.7387C42.7257 42.5606 42.8326 42.3824 42.9395 42.1687C42.9395 42.1687 42.9751 42.1331 43.0107 42.1331C43.1176 42.1331 43.1889 42.0618 43.2601 42.0262C43.2957 41.9906 43.367 41.9549 43.4026 41.9193C43.4739 41.8481 43.5451 41.7412 43.6164 41.6343C43.652 41.5987 43.652 41.5274 43.6876 41.4562C43.7233 41.3137 43.7233 41.2068 43.6876 41.0643C43.6876 40.993 43.6876 40.9218 43.7233 40.8505C43.8658 40.6368 44.0083 40.4586 44.1864 40.2449C44.3289 40.0311 44.5427 39.8886 44.7564 39.7461C45.2552 39.4255 45.754 39.2117 46.324 39.0336C46.5021 38.998 46.6446 38.9267 46.8227 38.8911C47.1434 38.8198 47.4996 38.7486 47.8559 38.6417C48.0697 38.6061 48.2834 38.5704 48.4972 38.5348C48.6397 38.5348 48.7822 38.4992 48.9247 38.4992H49.1028C49.3166 38.4992 49.5303 38.4992 49.7085 38.4992C49.9222 38.4992 50.136 38.5348 50.3497 38.5348C50.4922 38.5348 50.6347 38.5348 50.7772 38.5704C50.9198 38.5704 51.0266 38.6061 51.1691 38.6061C51.3116 38.6061 51.4898 38.6061 51.6323 38.6417C51.6679 38.6417 51.7392 38.6417 51.7748 38.6773C51.8104 38.6773 51.8817 38.6773 51.9529 38.6773C51.9885 38.6773 52.0598 38.6773 52.0954 38.6773C52.131 38.6773 52.1667 38.6773 52.2023 38.6773C52.2379 38.6773 52.2736 38.6773 52.3092 38.6773C52.4517 38.6773 52.5942 38.7129 52.7367 38.7129C52.8436 38.7129 52.9504 38.7486 53.0573 38.7486C53.5917 38.8198 54.1617 38.8911 54.6961 38.9623C55.2305 39.0336 55.7649 39.0692 56.2993 39.1405C57.0118 39.1761 57.6887 39.2117 58.4013 39.1761C58.7931 39.1761 59.1494 39.1405 59.5413 39.1405C59.7551 39.1405 60.0044 39.1405 60.2182 39.1048C60.432 39.1048 60.6813 39.1048 60.9307 39.0692C61.1089 39.0692 61.287 39.0336 61.4651 38.998C61.6432 38.9623 61.8214 38.9267 61.9995 38.8911C62.1776 38.8555 62.3558 38.8198 62.5339 38.7842C62.9614 38.6773 63.4246 38.5348 63.8521 38.4279C64.2083 38.3211 64.6002 38.2142 64.9565 38.1429C65.0634 38.1429 65.1702 38.1073 65.2771 38.0717C65.4909 38.0004 65.7046 37.9648 65.9184 37.8935C66.0253 37.8579 66.1321 37.8223 66.239 37.8223C66.3815 37.7867 66.4884 37.751 66.6309 37.7154C66.7734 37.6798 66.809 37.6442 66.7734 37.5017C66.7734 37.466 66.7734 37.466 66.7734 37.4304V37.3948C66.809 37.3948 66.8091 37.3592 66.8447 37.3592C67.0228 37.2879 67.1653 37.2166 67.3434 37.181C67.4503 37.1454 67.4859 37.1098 67.4859 36.9673V36.9316C67.5216 36.9316 67.5572 36.9316 67.5928 36.9316C67.9491 36.896 68.341 36.8604 68.6972 36.8248C68.7329 36.8248 68.7329 36.8248 68.7685 36.8248C69.0179 36.8248 69.2673 36.8248 69.481 36.8604C69.5879 36.8604 69.6948 36.896 69.8017 36.9316C69.8729 36.9673 69.9442 36.9316 70.0154 36.8604V36.8248C70.0154 36.7891 70.0154 36.7535 70.0154 36.7179C70.0154 36.7179 69.9798 36.6823 69.9442 36.6823C69.8373 36.6466 69.6948 36.5754 69.5879 36.5754C69.4454 36.5754 69.2673 36.5397 69.0891 36.5397C68.7685 36.5397 68.4479 36.5397 68.1272 36.5754C67.9847 36.5754 67.8066 36.611 67.6641 36.6466C67.3791 36.6823 67.0941 36.6823 66.8447 36.6823H66.809C66.4172 36.6823 65.9896 36.6466 65.5978 36.611H65.5621C65.1346 36.5754 64.6715 36.5041 64.244 36.4329C63.7452 36.3616 63.2464 36.2547 62.7833 36.1122C62.4626 36.0054 62.142 35.8985 61.857 35.7916C61.6432 35.7203 61.4651 35.5778 61.287 35.471C61.1801 35.3997 61.0732 35.2928 60.9664 35.186C60.8951 35.1147 60.8595 35.0434 60.8238 34.9366C60.8238 34.9009 60.8238 34.9009 60.8238 34.8653C60.8238 34.8297 60.8238 34.7941 60.8595 34.7584C60.8595 34.7228 60.8951 34.6872 60.9307 34.6872C61.0376 34.6159 61.1445 34.5447 61.2514 34.4734C61.287 34.4378 61.3582 34.4022 61.4295 34.4022C61.5007 34.3665 61.6076 34.2953 61.6789 34.2597C61.7501 34.224 61.8214 34.1884 61.9283 34.1528C61.9995 34.1172 62.0708 34.0815 62.142 34.0459C62.2133 34.0103 62.3201 34.0103 62.3914 33.9747C62.4983 33.939 62.6052 33.9034 62.712 33.9034C62.8189 33.8678 62.9258 33.8678 63.0327 33.8322C63.5671 33.7253 64.1015 33.6896 64.6715 33.654C65.0634 33.654 65.4552 33.654 65.8828 33.654C66.3815 33.654 66.9159 33.7253 67.4147 33.7609C67.8778 33.7965 68.3766 33.8678 68.8754 33.939C69.0891 33.9747 69.3385 34.0103 69.5523 34.0459C69.766 34.0815 70.0154 34.1528 70.2648 34.1884C70.4073 34.224 70.5854 34.224 70.7279 34.224C70.8348 34.224 70.9417 34.224 71.0129 34.1884C71.2267 34.1528 71.4761 34.0815 71.6898 34.0459C71.7611 34.0459 71.8323 34.0103 71.9036 34.0103C72.1886 33.939 72.438 33.8678 72.723 33.7965C73.008 33.7253 73.3286 33.6896 73.6493 33.654C73.7562 33.654 73.863 33.654 73.9699 33.654C74.1837 33.654 74.4331 33.654 74.6468 33.6896C74.8606 33.6896 75.11 33.7253 75.3237 33.7609C75.5731 33.7965 75.8581 33.8322 76.1431 33.8678C76.3925 33.9034 76.6775 33.939 76.9625 34.0103C77.105 34.0459 77.2832 34.0815 77.4613 34.1172C77.6394 34.1528 77.7819 34.1884 77.9601 34.224C78.3163 34.2953 78.637 34.4734 78.9576 34.6159C79.2426 34.7584 79.5276 34.9366 79.777 35.1147C80.0976 35.3285 80.4539 35.6135 80.7389 35.8985C80.9883 36.1122 81.2377 36.3616 81.4514 36.5754C81.5583 36.6823 81.6652 36.7891 81.7721 36.9316C81.8789 37.0385 81.9858 37.1454 82.0571 37.2879C82.0927 37.3235 82.1283 37.3948 82.164 37.4304C82.1996 37.466 82.2352 37.5373 82.2708 37.5729C82.2708 37.5729 82.3065 37.6085 82.3065 37.6442C82.3421 37.6798 82.3777 37.751 82.4133 37.8223C82.449 37.8935 82.4846 38.0004 82.5202 38.1073C82.5202 38.1786 82.5202 38.2142 82.5202 38.2854C82.3065 38.3211 82.0571 38.3923 81.8433 38.3567C81.7008 38.3567 81.5583 38.2854 81.4514 38.2142C81.4514 38.2142 81.4514 38.2142 81.4158 38.2142C81.3089 38.1786 81.1664 38.1073 81.0595 38.0717C80.9527 38.036 80.8102 37.9648 80.7033 37.9292C80.632 37.8935 80.5964 37.9292 80.5608 37.9292C80.5251 37.9292 80.5251 37.9648 80.5251 38.0004C80.5251 38.036 80.5251 38.036 80.5251 38.0717C80.5251 38.1073 80.5251 38.1073 80.5608 38.1429C80.5608 38.1786 80.5964 38.1786 80.632 38.2142C80.7745 38.2854 80.9527 38.3211 81.1308 38.3923C81.202 38.4279 81.2377 38.4279 81.3089 38.4636C81.3802 38.4992 81.4158 38.4992 81.4871 38.5348C81.5583 38.5704 81.6296 38.6061 81.7364 38.6061C81.8077 38.6417 81.9146 38.6417 81.9858 38.6417C82.0215 38.6417 82.0571 38.6417 82.1283 38.6417C82.2708 38.6417 82.4133 38.6061 82.5558 38.6061C82.5558 38.7129 82.5202 38.8198 82.4846 38.8911C82.4133 39.0692 82.3065 39.2473 82.2352 39.4255C82.1996 39.5323 82.1283 39.6392 82.0571 39.7461C81.9858 39.853 81.9146 39.9242 81.8433 40.0311C81.7364 40.1736 81.6296 40.2805 81.4871 40.423C81.202 40.708 80.917 40.9218 80.5608 41.1355C80.2758 41.3137 79.9551 41.4918 79.5989 41.5987C79.492 41.6343 79.3495 41.7055 79.207 41.7412C79.1001 41.7768 78.9932 41.8124 78.8507 41.8481C78.5657 41.9193 78.2807 41.9906 77.9957 42.0618C77.675 42.1331 77.3544 42.1687 77.0338 42.2043C76.4994 42.2756 75.965 42.3112 75.4306 42.3112C75.1456 42.3112 74.825 42.3112 74.5043 42.2756C74.4687 42.2756 74.3974 42.2756 74.3618 42.3112C74.3618 42.3112 74.3262 42.3112 74.3262 42.3468C74.2549 42.4181 74.2906 42.525 74.3618 42.5606C74.3974 42.5962 74.4687 42.5962 74.5399 42.5962H74.6112C75.0387 42.6318 75.4306 42.6318 75.8581 42.5962C76.3212 42.5962 76.7488 42.5606 77.2119 42.4893C77.4969 42.4537 77.7819 42.3824 78.0669 42.3468C78.4232 42.2756 78.8151 42.1687 79.1713 42.0618C79.2782 42.0262 79.4207 41.9549 79.5632 41.9193C79.6345 41.8837 79.7057 41.8481 79.8126 41.8481C80.2758 41.6699 80.7033 41.4205 81.0952 41.1355C81.4158 40.8861 81.7364 40.6368 81.9858 40.3161C82.0571 40.2092 82.1283 40.1024 82.2352 39.9955C82.3065 39.9242 82.3421 39.8174 82.4133 39.7461C82.5915 39.4967 82.734 39.2117 82.8409 38.8911C82.8765 38.7842 82.9121 38.6417 82.9477 38.4992C82.6627 38.2142 82.6271 38.036 82.5915 37.8223ZM47.8915 38.1073C47.8559 38.1073 47.8203 38.1429 47.7846 38.1429C47.6778 38.1786 47.5353 38.1786 47.4284 38.2142C46.9652 38.3211 46.4665 38.4279 46.0033 38.6061C45.5402 38.7486 45.0771 38.9267 44.6495 39.1761C44.4002 39.283 44.1508 39.4611 43.937 39.6392C43.6876 39.853 43.5095 40.138 43.2957 40.3874C43.2601 40.423 43.2601 40.4586 43.2245 40.4943C43.2245 40.4586 43.2245 40.4586 43.2245 40.4586C43.2601 40.138 43.1889 39.8174 43.1176 39.5323C43.0107 39.2117 42.9751 38.8911 42.9751 38.5348C42.9751 38.2498 43.0107 37.9648 43.082 37.6798C43.1889 37.2166 43.4026 36.7891 43.7233 36.3972C43.9014 36.1835 44.1151 36.0054 44.3289 35.8272C44.5783 35.6491 44.8277 35.471 45.1127 35.3641C45.1839 35.3285 45.2908 35.2928 45.3621 35.2572C45.4689 35.2216 45.5758 35.1859 45.6827 35.1503C46.2171 34.9722 46.7515 34.8297 47.3215 34.8653C47.6065 34.8653 47.9272 34.9009 48.2122 34.9366C48.4972 34.9722 48.7822 35.0434 49.0672 35.0791C49.4947 35.1503 49.8866 35.2928 50.2785 35.471C50.7773 35.6847 51.2404 35.9697 51.6323 36.3616C51.7748 36.5041 51.8817 36.611 52.0242 36.7891C52.131 36.9316 52.2023 37.1098 52.3092 37.2523C52.3092 37.2523 52.3092 37.2879 52.3092 37.3235C52.2736 37.3235 52.2379 37.3235 52.2023 37.3235C52.131 37.3235 52.0242 37.2879 51.9173 37.2879C51.6679 37.2879 51.4185 37.2523 51.1691 37.2523C51.0979 37.2523 51.0266 37.2523 50.9198 37.2523C50.6704 37.2523 50.4566 37.2879 50.2072 37.2879C49.7441 37.3235 49.3166 37.3948 48.8891 37.5373C48.5328 37.6442 48.1765 37.8223 47.8915 38.1073ZM70.8348 33.6896C70.6211 33.7253 70.3717 33.7609 70.1223 33.6896C70.0154 33.654 69.8729 33.654 69.766 33.6184C69.196 33.5115 68.5904 33.4046 67.9847 33.2978C67.8066 33.2621 67.6641 33.2621 67.4859 33.2265C67.3434 33.2265 67.2009 33.2265 67.0584 33.1909C66.809 33.1553 66.5597 33.1553 66.3459 33.1196C65.8471 33.084 65.3484 33.0484 64.814 33.084C64.3865 33.084 63.959 33.1196 63.4958 33.1553C63.3177 33.1909 63.1752 33.1909 62.997 33.1553C62.8902 33.1196 62.7833 33.1196 62.6408 33.084C62.4627 33.0484 62.3201 32.9771 62.1776 32.8702C62.0351 32.7634 61.9995 32.5852 62.0351 32.4071C62.0351 32.3359 62.0708 32.2646 62.142 32.229C62.2133 32.1933 62.3201 32.1577 62.3914 32.1221C62.4983 32.0865 62.6408 32.0865 62.7833 32.0865C62.9614 32.0865 63.1395 32.0508 63.3177 32.0152C63.8164 31.9796 64.3152 31.944 64.814 31.944C65.2771 31.944 65.7403 31.944 66.2034 31.9796C66.4528 31.9796 66.7022 32.0152 66.9515 32.0508C67.0941 32.0508 67.2009 32.0508 67.3434 32.0865C67.4859 32.0865 67.5928 32.1221 67.7353 32.1577C67.9491 32.1933 68.1628 32.1933 68.4122 32.229C68.626 32.2646 68.8397 32.3002 69.0535 32.3359C69.5523 32.4427 70.0154 32.5496 70.5142 32.6565C70.7636 32.7277 71.0486 32.799 71.3336 32.8702C71.6898 32.9771 72.0105 33.084 72.3667 33.1909C72.3667 33.1909 72.4024 33.1909 72.438 33.2265C72.4024 33.2265 72.4024 33.2621 72.3667 33.2621C72.1886 33.2978 72.0105 33.369 71.8323 33.4046C71.5117 33.5115 71.1911 33.654 70.8348 33.6896Z" fill="black"/>
<path d="M52.3097 37.2879C52.274 37.2879 52.2384 37.2879 52.2028 37.2879C52.1315 37.2879 52.0246 37.2523 51.9178 37.2523C51.6684 37.2523 51.419 37.2167 51.1696 37.2167C51.0984 37.2167 51.0271 37.2167 50.9202 37.2167C50.6708 37.2167 50.4571 37.2523 50.2077 37.2523C49.7446 37.2879 49.3171 37.3592 48.8895 37.5017C48.4977 37.6086 48.1414 37.7867 47.892 38.1073C47.8564 38.1073 47.8208 38.143 47.7851 38.143C47.6783 38.1786 47.5357 38.1786 47.4289 38.2142C46.9657 38.3211 46.467 38.428 46.0038 38.6061C45.5407 38.7486 45.0775 38.9267 44.65 39.1761C44.4006 39.283 44.1513 39.4611 43.9375 39.6393C43.6881 39.853 43.51 40.138 43.2962 40.3874C43.2606 40.423 43.2606 40.4587 43.225 40.4943C43.225 40.4587 43.225 40.4587 43.225 40.4587C43.2606 40.138 43.1893 39.8174 43.1181 39.5324C43.0112 39.2118 42.9756 38.8911 42.9756 38.5349C42.9756 38.2498 43.0112 37.9648 43.0825 37.6798C43.1893 37.2167 43.4031 36.7892 43.7237 36.3973C43.9019 36.1835 44.1156 36.0054 44.3294 35.8273C44.5788 35.6491 44.8281 35.471 45.1132 35.3641C45.1844 35.3285 45.2913 35.2929 45.3625 35.2572C45.4694 35.2216 45.5763 35.186 45.6832 35.1504C46.2176 34.9722 46.752 34.8297 47.322 34.8654C47.607 34.8654 47.9276 34.901 48.2126 34.9366C48.4977 34.9722 48.7827 35.0435 49.0677 35.0791C49.4952 35.1504 49.8871 35.2929 50.279 35.471C50.7777 35.6848 51.2409 35.9698 51.6328 36.3617C51.7753 36.5042 51.8821 36.611 52.0246 36.7892C52.1315 36.9317 52.2028 37.1098 52.3097 37.2523C52.3097 37.2167 52.3097 37.2523 52.3097 37.2879Z" fill="white"/>
<path d="M83.3757 49.294C83.34 49.3653 83.34 49.4365 83.3044 49.4721C83.2688 49.5434 83.1975 49.6146 83.1975 49.6503C83.1975 49.6859 83.1975 49.7571 83.1619 49.7928C83.1263 49.8997 83.0194 50.0065 82.9125 50.1134C82.77 50.2203 82.5919 50.3272 82.4138 50.3984C82.0931 50.5053 81.8081 50.6478 81.4875 50.6834C81.3093 50.7191 81.1312 50.7903 80.9887 50.8259C80.7749 50.8616 80.5256 50.8972 80.2762 50.9684C80.1337 51.0041 79.9912 51.0041 79.813 51.0397C79.7062 51.0397 79.5993 51.0753 79.528 51.1109C79.2786 51.1466 79.0293 51.1822 78.8155 51.2178C78.6017 51.2535 78.388 51.3247 78.1742 51.3603C77.9248 51.396 77.6398 51.396 77.3905 51.3603C76.7136 51.2891 76.1079 51.1466 75.431 50.9684C75.0391 50.8616 74.6116 50.7903 74.2197 50.6834C73.8635 50.5766 73.4716 50.4697 73.1153 50.3272C72.7947 50.2203 72.474 50.0778 72.1534 49.9353C71.7971 49.7571 71.4409 49.6146 71.0846 49.4365C70.5146 49.1515 69.9446 48.8309 69.3746 48.5459C69.0183 48.3321 68.662 48.1183 68.3058 47.9046C68.1276 47.7977 67.9851 47.7265 67.807 47.6196C67.7001 47.5483 67.7001 47.5483 67.6289 47.6196C67.3439 47.869 67.0588 48.154 66.7738 48.439C66.7382 48.4746 66.7026 48.5102 66.667 48.5459C66.5957 48.6171 66.4532 48.5459 66.4176 48.4746C66.4176 48.439 66.4176 48.439 66.4176 48.3677C66.3463 48.4034 66.2751 48.439 66.2394 48.439C66.1326 48.4746 66.0613 48.5102 65.9544 48.5815C65.7051 48.6884 65.42 48.7952 65.135 48.8309C65.0282 48.8665 64.9569 48.9021 64.85 48.9021C64.5294 48.9734 64.1731 49.009 63.8525 49.0803C63.6031 49.1159 63.3181 49.1515 63.0331 49.1515C62.7481 49.1871 62.4274 49.1871 62.1424 49.1871C61.8218 49.1871 61.5012 49.1871 61.1805 49.1871C60.8599 49.1871 60.5393 49.1871 60.2186 49.1871C59.898 49.1871 59.5773 49.1871 59.2567 49.1871C58.9717 49.1871 58.6867 49.1871 58.4373 49.1515C57.9385 49.1515 57.4754 49.1159 56.9766 49.1159C56.7985 49.1159 56.6204 49.0803 56.4422 49.0803C56.2997 49.0803 56.1572 49.0446 55.9791 49.0446C55.801 49.0446 55.6585 49.009 55.4803 49.009C55.3734 49.009 55.3022 48.9734 55.1953 48.9734C54.8391 48.9377 54.4828 48.8665 54.0909 48.7952C53.984 48.7952 53.8771 48.7596 53.8059 48.7596C53.6278 48.724 53.4496 48.6884 53.2715 48.6527C52.9152 48.5815 52.5946 48.5102 52.2383 48.4033C51.8465 48.2965 51.4189 48.154 51.027 48.0471C50.6352 47.9402 50.2076 47.7977 49.8158 47.6552C49.6733 47.6196 49.6376 47.5127 49.6732 47.4058C49.7089 47.2989 49.7801 47.2989 49.9226 47.3346C50.1364 47.4058 50.3145 47.4771 50.5283 47.5483C51.027 47.6908 51.5614 47.869 52.0958 48.0115C52.7015 48.1896 53.3428 48.3321 53.984 48.4746C54.2334 48.5459 54.5184 48.5815 54.8034 48.6171C54.9103 48.6171 55.0172 48.6527 55.1241 48.6884C55.3022 48.724 55.4447 48.724 55.6228 48.7596C55.6941 48.7596 55.7653 48.7952 55.8722 48.7952C56.1216 48.8309 56.371 48.8309 56.6204 48.8665C56.9054 48.8665 57.1548 48.9021 57.4398 48.9021C57.796 48.9021 58.1523 48.9021 58.5442 48.9377C58.9004 48.9377 59.2567 48.9734 59.613 48.9734C60.0761 48.9734 60.5036 48.9734 60.9668 48.9734C61.2874 48.9734 61.608 48.9734 61.9287 48.9734C62.2849 48.9734 62.6056 48.9377 62.9618 48.9377C63.3893 48.9021 63.8169 48.8665 64.2444 48.7952C64.565 48.724 64.9213 48.6884 65.2063 48.5815C65.5625 48.4746 65.9544 48.3321 66.2751 48.154C66.3463 48.1183 66.4176 48.0827 66.4888 48.0115C66.5957 47.9402 66.667 47.9758 66.7382 48.0471C66.7382 48.0471 66.7738 48.0471 66.7738 48.0827C66.9876 47.869 67.2014 47.6552 67.4151 47.4771C67.3795 47.4414 67.3439 47.4414 67.3439 47.4058C66.8095 47.0852 66.3107 46.7289 65.7763 46.4083C65.7407 46.3727 65.6694 46.337 65.5982 46.3014C65.5269 46.2658 65.5269 46.1589 65.5625 46.0876C65.5982 46.0164 65.7407 45.9808 65.7763 46.052C65.8476 46.0876 65.9188 46.1233 65.9901 46.1945C66.4176 46.4439 66.8095 46.7289 67.237 46.9783C67.522 47.1564 67.807 47.3346 68.092 47.5127C68.5552 47.7977 69.0539 48.0827 69.5171 48.3677C69.8377 48.5459 70.1583 48.724 70.479 48.8665C70.8352 49.0446 71.1915 49.2584 71.5478 49.4009C72.0821 49.6503 72.6165 49.8997 73.1509 50.1134C73.4003 50.1847 73.6497 50.2915 73.8991 50.3628C74.3266 50.4697 74.7541 50.5766 75.1816 50.6834C75.9298 50.8616 76.6423 51.0397 77.4261 51.1109C77.7467 51.1466 78.0317 51.1109 78.3524 51.0753C78.5305 51.0397 78.673 51.0041 78.8511 50.9684C79.0293 50.9328 79.243 50.8972 79.4211 50.8616C79.6705 50.8259 79.9199 50.7903 80.1693 50.7547C80.4187 50.7191 80.6681 50.6834 80.9175 50.6122C81.06 50.5766 81.2025 50.5409 81.3806 50.5053C81.6656 50.434 81.9862 50.3628 82.2712 50.2559C82.3069 50.2203 82.3781 50.1847 82.4494 50.1847C82.4137 50.1134 82.3781 50.0778 82.3425 50.0422C82.2356 49.8997 82.0931 49.7928 81.915 49.6503C81.6656 49.4721 81.3806 49.3296 81.06 49.3653H80.9887C80.9175 49.3653 80.8818 49.294 80.8818 49.2228C80.8818 49.1515 80.9175 49.0802 80.9887 49.0446C81.0243 49.0446 81.06 49.0446 81.0956 49.0446C81.3806 49.0446 81.63 49.1159 81.8794 49.2584C82.1287 49.4009 82.3425 49.579 82.5206 49.7928C82.5919 49.864 82.6631 49.9353 82.6631 50.0422C82.6988 50.0422 82.77 49.9709 82.8056 49.9353C82.8413 49.8997 82.8413 49.8997 82.8413 49.864C82.9125 49.7571 82.9838 49.6859 83.0194 49.579C83.1263 49.4009 83.3044 49.3296 83.3757 49.294Z" fill="black"/>
<path d="M84.6226 46.2657C84.587 45.9451 84.4801 45.6244 84.2664 45.375C84.1239 45.1969 83.9457 45.0544 83.6963 44.9475C83.3757 44.8406 83.0194 44.7694 82.6632 44.8406C82.485 44.8406 82.3069 44.9119 82.0932 44.9475C81.7725 45.0188 81.4519 45.1257 81.1312 45.1969C80.8106 45.2682 80.4544 45.3394 80.1693 45.4107C79.9912 45.4463 79.7775 45.4819 79.5993 45.4819C79.4212 45.4819 79.2431 45.4819 79.0293 45.4819C78.8868 45.4819 78.7443 45.4819 78.6018 45.4463C78.103 45.375 77.5686 45.2682 77.0699 45.1613C76.4998 45.0188 75.9654 44.8763 75.3954 44.6625C74.8967 44.4844 74.3979 44.2706 73.9348 43.9856C73.7566 43.8787 73.6141 43.7362 73.436 43.6294C73.3647 43.5937 73.3647 43.5581 73.436 43.5225C73.6854 43.3443 73.9348 43.1306 74.1841 42.8812C74.2198 42.8456 74.2198 42.8456 74.2198 42.81C74.2198 42.7743 74.2198 42.7031 74.1841 42.6675C74.1841 42.6675 74.1485 42.6318 74.1129 42.6318C74.0416 42.5962 73.9704 42.6318 73.9348 42.6675C73.7566 42.81 73.6141 42.9525 73.436 43.095C73.1866 43.3087 72.9016 43.5225 72.581 43.6294C72.4028 43.665 72.2247 43.7006 72.0466 43.7362C71.8684 43.7719 71.6903 43.7719 71.5478 43.8431C71.5122 43.8431 71.4765 43.8787 71.4409 43.8787C71.334 43.8787 71.2272 43.95 71.1203 43.9856C71.0847 43.9856 71.049 43.9856 71.049 44.0212C70.9421 44.0212 70.8709 44.0925 70.7996 44.1638C70.7284 44.235 70.764 44.3419 70.8709 44.3775C70.9065 44.3775 70.9422 44.3775 71.0134 44.4131C71.0134 44.4844 71.049 44.5556 71.1203 44.5913C71.1203 44.6269 71.1559 44.6269 71.1915 44.6269C71.4053 44.805 71.619 44.9832 71.7972 45.1257C72.0109 45.3038 72.2247 45.4463 72.4385 45.6244C72.8303 45.9094 73.2222 46.1944 73.6497 46.4795C74.1485 46.8357 74.6473 47.1564 75.2173 47.3701C75.6804 47.5839 76.1792 47.7264 76.678 47.8333C76.8561 47.8689 76.9986 47.9045 77.1767 47.9045C77.3549 47.9401 77.4974 47.9401 77.6755 47.9401C77.9961 47.9758 78.2812 47.9758 78.6018 47.9401C78.8155 47.9045 79.0293 47.9045 79.2431 47.8689C79.7418 47.7976 80.2406 47.762 80.7394 47.7976C80.9887 47.7976 81.2025 47.8689 81.4163 47.9045C81.7013 47.9758 81.9507 48.047 82.2357 48.1183C82.3069 48.1539 82.3782 48.1539 82.4494 48.1895C82.5207 48.2251 82.5919 48.2608 82.6632 48.2964C82.6988 48.2964 82.7701 48.332 82.8057 48.3676C82.8413 48.3676 82.8769 48.4033 82.9482 48.4389C82.9838 48.4389 82.9838 48.4745 83.0194 48.4745C83.0194 48.4745 83.0551 48.4745 83.0551 48.5101C83.1263 48.5458 83.1976 48.617 83.2688 48.6527C83.3401 48.7239 83.4113 48.8308 83.5182 48.902C83.5538 48.6883 83.6251 48.5102 83.4826 48.3676C83.447 48.332 83.4113 48.2964 83.3757 48.2964C83.2688 48.2251 83.1619 48.1539 83.0907 48.0826C83.0551 48.0826 83.0551 48.047 83.0194 48.047C83.1263 48.0114 83.1976 47.9758 83.3045 47.9401C83.3045 47.9401 83.3401 47.9401 83.3401 47.9758C83.4113 48.047 83.4826 48.047 83.5895 48.0114C83.9101 47.8689 84.2307 47.6551 84.4445 47.3345C84.5514 47.0495 84.6582 46.6932 84.6226 46.2657ZM84.017 47.192C83.9101 47.3345 83.7676 47.477 83.5895 47.5839C83.5182 47.6195 83.447 47.6551 83.3401 47.7264V47.477C83.3401 47.2276 83.2688 47.0138 83.1619 46.8001C83.0907 46.622 82.9838 46.5507 82.8413 46.4438C82.6988 46.337 82.485 46.2657 82.3069 46.2301C82.2 46.2301 82.0575 46.2301 81.9507 46.2301C81.8794 46.2301 81.8438 46.2657 81.8082 46.3013C81.7725 46.3726 81.8082 46.4082 81.8082 46.4795C81.8438 46.5151 81.915 46.5507 81.9507 46.5507C82.2 46.5507 82.4138 46.5863 82.6275 46.7288C82.6988 46.7645 82.8057 46.8357 82.8057 46.9426C82.8413 47.0495 82.8769 47.1207 82.8769 47.192C82.9126 47.3345 82.9482 47.477 82.9126 47.6551C82.9126 47.7264 82.8769 47.762 82.8057 47.7976C82.6632 47.8333 82.5207 47.8689 82.3782 47.9045C82.3069 47.9045 82.2357 47.9045 82.1288 47.9045C81.8438 47.8333 81.5588 47.7264 81.2738 47.6551C81.0244 47.6195 80.775 47.5839 80.5256 47.5482C80.2406 47.5126 79.92 47.5482 79.6349 47.5482C79.4212 47.5482 79.2074 47.5839 79.0293 47.6195C78.5305 47.6907 78.0674 47.7264 77.5686 47.6907C77.2124 47.6907 76.8561 47.6195 76.4998 47.5482C76.2505 47.477 75.9654 47.4414 75.7161 47.3345C75.4311 47.2276 75.1817 47.1207 74.8967 47.0138C74.5404 46.8713 74.2198 46.6932 73.8991 46.4438C73.436 46.1232 73.0085 45.8026 72.5453 45.4819C72.0822 45.1613 71.6547 44.805 71.2272 44.4488C71.1559 44.4131 71.1203 44.3419 71.0134 44.2706C71.0847 44.235 71.1203 44.235 71.1559 44.1994C71.4765 44.1281 71.7972 44.0925 72.0822 44.0212C72.3316 43.9856 72.581 43.95 72.7947 43.8075C72.8303 43.7719 72.866 43.7719 72.9372 43.8075C73.2935 44.1281 73.721 44.3775 74.1485 44.5913C74.3979 44.7338 74.6829 44.8406 74.9679 44.9119C75.5379 45.1257 76.108 45.3038 76.678 45.4463C76.9986 45.5175 77.3192 45.5888 77.6399 45.6601C77.7824 45.6957 77.9249 45.6957 78.0674 45.7313C78.3168 45.7669 78.5662 45.8026 78.8155 45.8026C79.1006 45.8026 79.3856 45.8026 79.6706 45.8026C79.9556 45.7669 80.2762 45.7313 80.5612 45.6601C81.0956 45.5532 81.63 45.4107 82.1644 45.2682C82.5207 45.1969 82.8769 45.1257 83.2332 45.1969C83.4826 45.2325 83.6607 45.375 83.8032 45.5175C84.017 45.7313 84.0882 45.9807 84.1239 46.2301C84.3376 46.622 84.2307 46.9426 84.017 47.192ZM83.3757 49.2583C83.3757 49.187 83.4113 49.1514 83.447 49.0802V49.0445V49.0089L83.4113 48.9733C83.3757 49.0445 83.3757 49.1514 83.3757 49.2583Z" fill="black"/>
<path d="M84.017 47.192C83.9101 47.3345 83.732 47.477 83.5895 47.5839C83.5182 47.6195 83.447 47.6551 83.3401 47.7264C83.3401 47.6195 83.3401 47.5482 83.3401 47.477C83.3401 47.2276 83.2688 47.0138 83.162 46.8001C83.0907 46.622 82.9838 46.5151 82.8413 46.4438C82.6632 46.3369 82.4851 46.2657 82.2713 46.2301C82.1644 46.2301 82.0219 46.1944 81.915 46.1944C81.8438 46.1944 81.8082 46.2301 81.7725 46.2657C81.7369 46.3369 81.7369 46.3726 81.7725 46.4438C81.8082 46.4794 81.8794 46.5151 81.9507 46.5151C82.2001 46.5151 82.4138 46.5507 82.6276 46.6932C82.6988 46.7288 82.8057 46.8001 82.8057 46.907C82.8413 46.9782 82.877 47.0851 82.877 47.1563C82.9126 47.2988 82.9482 47.4414 82.9126 47.6195C82.9126 47.6907 82.877 47.7264 82.8057 47.762C82.6632 47.7976 82.5207 47.8332 82.3782 47.8689C82.3069 47.8689 82.2357 47.8689 82.1288 47.8689C81.8438 47.7976 81.5588 47.6907 81.2738 47.6551C81.0244 47.5839 80.775 47.5839 80.5256 47.5482C80.2406 47.5126 79.92 47.5482 79.635 47.5482C79.4212 47.5839 79.2075 47.5839 79.0293 47.6195C78.5306 47.6907 78.0674 47.7264 77.5687 47.6907C77.2124 47.6551 76.8561 47.6195 76.4999 47.5482C76.2505 47.477 75.9655 47.4414 75.7161 47.3345C75.4311 47.2276 75.1817 47.1207 74.8967 47.0138C74.5404 46.8713 74.2198 46.6932 73.8991 46.4438C73.436 46.1232 73.0085 45.8025 72.5454 45.4819C72.0822 45.1613 71.6903 44.805 71.2272 44.4488C71.1559 44.4131 71.1203 44.3419 71.0134 44.2706C71.0847 44.235 71.1203 44.235 71.1916 44.1994C71.5122 44.1281 71.7972 44.0925 72.1178 44.0212C72.3672 43.9856 72.581 43.95 72.8304 43.8075C72.866 43.7719 72.9016 43.7719 72.9729 43.8075C73.3291 44.1281 73.7566 44.3775 74.1842 44.5913C74.4335 44.7338 74.7186 44.8406 75.0036 44.9119C75.5736 45.1257 76.1436 45.3038 76.7136 45.4463C77.0343 45.5175 77.3549 45.5888 77.6755 45.66C77.818 45.6957 77.9605 45.7313 78.103 45.7313C78.3524 45.7669 78.6018 45.8025 78.8512 45.8025C79.1362 45.8025 79.4212 45.8026 79.7062 45.7669C79.9912 45.7313 80.3119 45.6957 80.5969 45.6244C81.1313 45.5175 81.6657 45.375 82.2001 45.2325C82.5563 45.1613 82.9126 45.09 83.2688 45.1613C83.4826 45.2325 83.6964 45.3394 83.8389 45.4819C84.017 45.6957 84.1239 45.9451 84.1595 46.1944C84.3376 46.622 84.2308 46.9426 84.017 47.192Z" fill="white"/>
<path d="M75.7873 37.7867C75.8942 37.6442 76.0367 37.5373 76.2148 37.4661C76.3929 37.3592 76.6067 37.2879 76.7848 37.181C76.7848 37.181 76.7848 37.181 76.8205 37.1454C76.7492 37.1454 76.7136 37.1098 76.678 37.1098C76.5711 37.0742 76.4286 37.0742 76.3217 37.0742C76.1792 37.0742 76.0723 36.9673 75.9654 36.8604C75.8942 36.7892 75.8586 36.7179 75.7873 36.6466C75.6804 36.4685 75.5023 36.3616 75.2885 36.2904C75.1817 36.2548 75.0748 36.2548 75.0035 36.2548C74.861 36.2548 74.7541 36.326 74.6116 36.3616C74.576 36.3616 74.576 36.3973 74.5404 36.3973C74.4335 36.4685 74.3623 36.5754 74.291 36.6823C74.2198 36.7892 74.1841 36.9317 74.1485 37.0742C74.1129 37.5373 74.3979 38.0004 74.861 38.1073C75.2529 38.1429 75.5735 38.0361 75.7873 37.7867ZM74.7541 37.1454C74.6829 36.9673 74.7541 36.7892 74.9323 36.7179C75.1104 36.6466 75.2885 36.7179 75.3598 36.9317C75.431 37.0742 75.3242 37.2879 75.1817 37.3592C75.0392 37.3948 74.8254 37.3235 74.7541 37.1454Z" fill="black"/>
<path d="M67.3795 34.5803C67.0589 34.4734 66.7026 34.4378 66.382 34.4021C65.8832 34.3665 65.4201 34.4378 64.9569 34.5803C64.8857 34.6159 64.8144 34.6515 64.7432 34.6872C64.6363 34.7228 64.6007 34.8297 64.6363 34.9009C64.6719 34.9722 64.7788 35.0078 64.8857 34.9722C64.9569 34.9365 64.9926 34.9365 65.0638 34.9009C65.3488 34.794 65.6694 34.7228 65.9545 34.7228C66.2395 34.6872 66.5245 34.7228 66.8451 34.7584C67.2726 34.8297 67.7001 34.9722 68.092 35.1503C68.1277 35.1859 68.1989 35.1859 68.2345 35.2215C68.3058 35.2572 68.377 35.2215 68.4483 35.1503C68.4839 35.079 68.4839 34.9722 68.4127 34.9365C68.377 34.9009 68.3058 34.8653 68.2702 34.8653C67.9495 34.7584 67.6645 34.6515 67.3795 34.5803Z" fill="black"/>
<path d="M82.6273 48.1539C82.6273 48.1889 82.6273 48.1539 82.6273 48.1539C82.5922 48.1539 82.6273 48.1539 82.6273 48.1539Z" fill="black"/>
<path d="M83.4469 49.0445V49.0802C83.4469 49.1158 83.4469 49.1871 83.4113 49.2583C83.4113 49.3296 83.3756 49.3652 83.34 49.4364C83.3044 49.6146 83.2331 49.7214 83.1975 49.7571L83.055 49.8283H82.9837L82.9125 49.7927L82.8412 49.7215C82.8769 49.6858 82.8769 49.6858 82.8769 49.6502C82.9481 49.5433 83.0194 49.4721 83.055 49.3652C83.2688 48.8308 82.8769 48.3677 82.8769 48.3677L82.6987 48.0826C82.77 48.1183 82.9125 48.1539 83.1975 48.2251C83.2331 48.2251 83.2331 48.2251 83.2687 48.2608C83.3756 48.2964 83.4113 48.3677 83.4469 48.4389C83.4469 48.4389 83.4469 48.4389 83.4469 48.4745C83.4825 48.6883 83.4825 48.8664 83.4469 49.0445Z" fill="black"/>
<defs>
<linearGradient id="paint0_linear" x1="0.901001" y1="96.4566" x2="21.3337" y2="96.4566" gradientUnits="userSpaceOnUse">
<stop stop-color="#A6A8AB"/>
<stop offset="1"/>
</linearGradient>
<linearGradient id="paint1_linear" x1="19.6528" y1="96.4565" x2="38.709" y2="96.4565" gradientUnits="userSpaceOnUse">
<stop stop-color="#A6A8AB"/>
<stop offset="1"/>
</linearGradient>
<linearGradient id="paint2_linear" x1="56.627" y1="-60.5092" x2="56.627" y2="19.0978" gradientUnits="userSpaceOnUse">
<stop offset="0.3966" stop-color="white"/>
<stop offset="1" stop-color="white" stop-opacity="0"/>
</linearGradient>
<linearGradient id="paint3_linear" x1="56.627" y1="143.329" x2="56.627" y2="63.7223" gradientUnits="userSpaceOnUse">
<stop offset="0.2793" stop-color="white"/>
<stop offset="1" stop-color="white" stop-opacity="0"/>
</linearGradient>
<linearGradient id="paint4_linear" x1="68.5282" y1="58.3651" x2="68.5282" y2="29.4374" gradientUnits="userSpaceOnUse">
<stop stop-color="white"/>
<stop offset="1" stop-color="white" stop-opacity="0"/>
</linearGradient>
<linearGradient id="paint5_linear" x1="44.1703" y1="30.1585" x2="44.1703" y2="49.1569" gradientUnits="userSpaceOnUse">
<stop stop-color="white"/>
<stop offset="1" stop-color="white" stop-opacity="0"/>
</linearGradient>
</defs>
</svg>
