<svg width="507" height="475" viewBox="0 0 507 475" fill="none" xmlns="http://www.w3.org/2000/svg">
<path opacity="0.5" d="M283.72 172.085V294.476L429.363 371.657V94.9038L283.72 172.085Z" fill="url(#paint0_linear)"/>
<g filter="url(#filter0_d)">
<path d="M38.6128 430.431V36.13L233.018 139.146V327.415L38.6128 430.431ZM52.8218 77.7883V388.45L218.809 300.612V165.949L52.8218 77.7883Z" fill="#4277FF"/>
</g>
<path opacity="0.5" d="M208.476 172.085V294.476L63.156 371.657V94.9038L208.476 172.085Z" fill="url(#paint1_linear)"/>
<g filter="url(#filter1_d)">
<path d="M451.645 336.458C450.999 336.458 450.353 336.781 449.707 336.781C448.416 337.103 447.124 337.426 445.509 337.426C443.895 337.749 441.957 337.749 440.019 337.749C439.696 337.749 439.697 337.749 439.374 337.749V388.45L273.386 300.612V165.949L439.374 78.1113V154.646C442.28 155.292 445.186 155.938 448.093 157.23C449.707 157.876 451.645 158.844 453.583 159.813V36.13L259.177 139.146V327.415L453.583 430.431V335.812C453.26 336.135 452.291 336.458 451.645 336.458Z" fill="#EB1C24"/>
</g>
<g filter="url(#filter2_d)">
<path d="M85.4387 248.62C88.0221 247.651 91.5744 246.359 95.4496 244.099C99.3248 241.838 101.585 236.994 104.169 234.734C106.752 232.473 118.055 227.952 118.055 227.952L119.347 226.66L124.514 225.692L126.128 227.306C126.128 227.306 125.482 227.952 126.128 228.275C126.774 228.598 127.743 228.275 127.42 228.921C127.42 229.567 127.743 233.119 127.42 233.765C127.097 234.411 126.774 235.38 126.451 236.671C126.128 237.963 124.836 238.932 124.836 239.255C125.159 239.578 124.514 240.224 124.191 239.578C123.868 238.932 120.638 241.838 120.638 241.838L118.378 247.651L111.273 257.662L103.846 262.183L96.0955 265.735L91.2515 267.996L86.7304 269.61L79.3029 270.902H75.7507L70.9067 267.673L68.6462 265.412L64.1251 264.121C64.1251 264.121 60.8958 263.798 60.5728 263.798C60.2499 263.798 57.0206 263.798 57.0206 263.798L47.0097 267.996L38.6134 272.84L24.7273 283.819L17.2998 290.601C17.2998 290.601 14.0705 290.601 13.7476 290.601C13.4246 290.601 11.1641 289.632 10.5182 289.309C9.87238 288.986 7.93478 288.663 7.93478 288.018C7.93478 287.695 8.25771 287.049 7.93478 286.08C7.61185 285.111 7.28891 284.465 7.93478 282.851C8.58065 281.236 7.93477 280.59 9.2265 278.975C10.5182 277.361 18.5916 267.027 19.5604 266.058C20.5292 265.089 31.1859 255.724 31.8318 254.11C32.4777 252.495 38.6134 245.713 42.8115 243.776C47.0097 241.838 49.5931 242.161 50.8849 242.484C52.1766 242.807 68.0003 246.359 70.2608 246.682C72.5214 247.005 79.6259 247.651 82.2094 247.328C84.1469 247.974 85.4387 248.62 85.4387 248.62Z" fill="white"/>
<path d="M359.608 165.303L340.878 163.365L310.522 162.72L304.064 163.043L300.189 162.074C300.189 162.074 297.605 158.844 297.605 158.521C297.605 158.199 297.282 154.969 297.282 154.323C297.282 153.677 297.928 151.74 298.251 151.417C298.574 151.094 302.126 150.125 302.449 150.125C302.772 150.125 316.658 148.833 316.658 148.833H328.93L344.43 150.125L365.098 153.355L375.755 155.292L390.61 158.521L393.516 160.459L392.547 162.397C392.547 162.397 390.61 163.688 389.318 164.011C388.026 164.657 383.505 165.949 383.505 165.949L377.692 166.595H370.265L363.806 165.949L359.608 165.303Z" fill="white"/>
<path d="M489.428 310.3C489.428 309.008 489.105 308.04 488.459 307.071C488.136 306.425 489.751 311.915 489.105 312.238C488.459 312.561 487.167 310.946 487.167 311.269C487.167 311.592 486.844 312.238 486.844 312.561C486.844 312.884 486.521 311.592 486.521 312.238C486.198 312.884 485.23 312.238 484.584 312.561C484.584 311.592 483.938 310.946 483.292 310.3C481.677 308.363 479.74 306.748 477.479 305.456C475.219 304.164 472.958 303.518 470.375 303.518C470.052 303.518 469.729 303.518 469.083 303.518C468.437 303.841 468.114 304.164 468.114 305.133C468.114 305.779 468.76 306.425 469.083 306.425C469.406 306.425 469.406 306.425 469.729 306.425C472.635 306.102 475.219 307.394 477.479 309.008C478.771 309.977 480.063 311.269 481.354 312.561C481.677 312.884 482 313.206 482.323 313.852C481.677 314.175 481.354 314.498 480.708 314.498C478.125 315.467 475.542 316.436 472.635 317.082C471.343 317.405 470.052 317.728 468.437 318.05C466.176 318.373 463.916 319.019 461.655 319.342C459.395 319.665 457.134 319.988 454.874 320.311C453.259 320.634 451.645 320.957 449.707 321.28C448.092 321.603 446.801 321.926 445.186 322.249C442.279 322.894 439.696 322.894 436.79 322.894C430.008 322.249 423.226 320.634 416.445 319.019C412.57 318.05 408.694 317.082 404.819 316.113C402.559 315.467 400.298 314.498 398.038 313.852C393.194 311.915 388.35 309.977 383.506 307.717C380.276 306.102 377.047 304.487 373.818 302.55C370.911 300.935 368.005 299.643 365.098 297.706C360.577 295.122 356.379 292.539 352.181 289.955C349.598 288.341 347.014 286.726 344.431 285.111C340.556 282.851 337.003 280.267 333.128 277.684C332.482 277.361 331.836 277.038 331.191 276.392C330.545 276.069 329.576 276.392 329.253 277.038C328.93 277.684 328.93 278.33 329.576 278.976C330.222 279.299 330.545 279.621 331.191 279.944C336.035 282.851 340.556 286.08 345.4 288.987C345.723 288.987 345.722 289.309 346.045 289.632C344.108 291.57 342.17 293.508 340.233 295.122C339.91 295.122 339.91 295.122 339.91 294.799C339.264 293.831 338.618 293.83 337.649 294.476C337.003 294.799 336.357 295.122 335.712 295.768C332.805 297.383 329.576 298.675 326.024 299.643C323.117 300.612 320.211 301.258 316.981 301.581C313.106 302.227 309.231 302.55 305.356 302.873C302.449 303.196 299.22 303.196 295.991 303.518C293.084 303.518 290.178 303.518 286.949 303.518C282.751 303.518 278.875 303.518 274.677 303.518C271.448 303.518 268.219 303.196 264.989 303.196C261.76 303.196 258.531 302.873 254.978 302.873C252.395 302.873 250.134 302.55 247.551 302.55C245.29 302.227 243.03 302.227 240.769 301.904C240.123 301.904 239.478 301.581 238.509 301.581C236.894 301.258 235.602 301.258 233.988 300.935C233.019 300.935 232.05 300.612 231.081 300.289C228.498 299.966 226.237 299.643 223.654 298.997C217.841 297.706 212.351 296.091 206.538 294.799C201.694 293.508 197.173 292.216 192.329 290.601C190.715 289.955 188.777 289.309 186.84 288.664C185.548 288.341 184.902 288.341 184.579 289.309C184.256 289.955 184.579 290.924 185.871 291.247C185.548 292.216 184.902 293.185 184.256 294.153C184.579 293.831 184.579 293.831 184.579 293.508C184.902 292.862 184.579 292.216 183.933 291.893C183.287 291.57 182.318 291.57 181.996 292.216C180.058 294.799 177.152 296.414 174.568 298.352C171.339 300.612 167.786 302.55 164.234 304.164C162.297 305.133 160.359 305.779 158.421 306.102C156.484 306.748 154.546 307.071 152.286 307.394C148.088 308.04 143.889 308.04 139.368 308.04C132.91 308.04 126.451 307.717 120.315 306.748C117.086 306.425 113.857 306.102 110.95 305.456C106.429 304.81 102.231 303.196 98.033 301.581C93.189 299.643 88.345 297.383 83.501 295.768C79.3029 294.476 75.4277 293.508 71.2295 292.862C69.292 292.539 67.3544 292.862 65.7397 293.185C62.5104 293.831 59.281 295.122 56.3746 296.737C52.1765 298.675 48.3013 300.935 44.4261 303.518C42.1656 305.133 39.9051 306.748 37.3216 308.362C34.7381 309.977 32.4776 311.915 29.8941 313.852C27.6336 315.467 25.3731 317.405 23.4355 319.019C22.4667 319.665 21.4979 320.634 20.5291 320.957C18.5915 321.926 16.6539 322.249 14.7163 321.603C12.7787 321.28 11.487 319.988 10.1952 318.696C8.58057 317.082 7.28883 315.144 5.9971 313.206C4.70537 311.269 4.70538 309.008 5.35125 306.748C6.32004 303.518 7.93471 300.935 9.54937 298.029C12.4558 293.831 15.6851 290.601 18.9144 287.049C20.5291 285.757 21.8208 284.143 23.4355 282.851C25.0501 281.236 26.9877 279.944 28.6024 278.653C30.8629 277.038 33.4464 275.1 35.7069 273.486C39.2592 271.225 42.8115 269.288 46.6867 267.35C47.9784 266.704 49.593 266.058 50.8848 265.412C52.4994 264.767 53.7912 264.121 55.4058 264.121C57.0205 263.798 58.3122 263.798 59.9269 263.798C62.8333 263.798 65.0938 265.09 67.3544 266.704C68.969 267.673 70.2607 268.642 71.8754 269.611C74.4589 271.225 77.0423 271.225 79.9487 270.902C81.2405 270.579 82.2093 270.256 83.501 270.256C84.4698 269.933 85.4386 269.933 86.4074 269.611C90.2826 268.319 93.8349 267.027 97.3871 265.09C99.9706 263.798 102.554 262.506 105.138 260.891C107.721 259.277 110.627 257.339 112.565 255.079C114.825 252.172 116.44 249.266 118.055 246.359C118.701 244.745 119.669 243.13 120.638 241.192C120.638 240.87 120.961 240.547 121.284 240.547C122.253 240.547 122.899 239.901 123.868 239.578C125.805 238.286 127.097 236.671 127.743 234.411C128.066 233.119 128.066 232.15 127.743 230.859C127.42 230.213 127.743 229.567 128.066 228.921C129.357 226.983 130.649 225.046 132.264 223.431C133.556 221.494 135.493 220.202 137.431 218.587C141.952 215.681 146.473 213.743 151.64 212.129C153.254 211.483 154.546 211.16 156.161 210.514C159.067 209.868 162.297 208.899 165.526 208.253C167.464 207.93 169.724 207.607 171.662 207.285C172.953 206.962 174.245 206.962 175.537 206.962C179.735 206.962 184.256 207.285 188.454 207.607C191.038 207.93 193.298 207.93 195.882 208.253C197.819 208.576 199.757 208.576 201.694 208.899C202.663 209.222 203.632 209.222 204.601 209.222C205.247 209.222 205.893 209.545 206.861 209.545C208.153 209.545 209.445 209.868 210.737 209.868C211.705 209.868 212.674 210.191 213.643 210.514C218.81 211.16 223.654 211.806 228.821 212.451C233.665 213.097 238.509 213.743 243.353 214.066C249.811 214.712 255.947 214.712 262.406 214.712C265.958 214.712 269.187 214.389 272.74 214.389C276.938 214.066 281.136 214.066 285.334 213.743C288.563 213.42 291.793 213.097 295.022 212.451C296.637 212.128 298.251 211.806 299.866 211.483C303.741 210.514 307.939 209.222 311.815 208.253C315.044 207.284 318.596 206.316 321.825 205.67C325.701 205.024 329.576 203.732 333.451 202.441C334.743 202.118 336.035 201.795 337.003 201.472C338.618 200.826 338.618 200.503 338.295 198.888V198.565C338.618 198.565 338.941 198.242 338.941 198.242C340.556 197.597 341.847 196.951 343.462 196.305C344.754 195.982 344.754 195.659 344.754 194.367V194.044C345.077 194.044 345.4 193.721 345.723 193.721C348.952 193.398 352.504 193.075 355.733 192.753C356.056 192.753 356.056 192.753 356.379 192.753C358.64 192.753 360.9 193.075 362.838 193.075C363.807 193.075 364.776 193.721 365.744 193.721C366.39 194.044 367.036 193.721 367.359 193.075C367.682 192.43 367.682 191.461 366.713 191.138C365.744 190.492 364.453 190.169 363.484 190.169C361.869 190.169 360.577 189.846 358.963 189.846C356.056 189.846 353.15 189.846 350.244 190.169C348.952 190.169 347.337 190.492 346.045 190.815C343.462 191.138 340.879 191.138 338.618 191.138C334.743 190.815 330.868 190.815 326.992 190.492C323.117 190.169 319.242 189.523 315.044 188.877C310.523 188.231 306.325 187.263 301.804 185.971C298.897 185.002 295.991 184.033 293.407 182.742C291.47 182.096 289.855 180.804 288.24 179.835C287.272 179.189 286.303 178.221 285.334 177.252C284.688 176.606 284.365 175.637 284.042 174.991C283.719 174.022 284.042 173.054 285.011 172.408C285.98 171.762 286.949 170.793 287.918 170.47C289.855 169.178 291.793 168.21 294.053 167.564C294.699 167.241 295.345 166.918 295.991 166.595C296.637 166.272 297.606 166.272 298.251 165.949C300.189 165.303 302.127 164.98 304.064 164.657C308.908 163.689 313.752 163.043 318.596 163.043C322.148 163.043 326.024 162.72 329.576 163.043C334.097 163.366 338.941 163.689 343.462 164.012C347.66 164.334 352.181 164.98 356.379 165.626C360.577 166.272 364.776 167.241 368.974 167.887C371.234 168.533 373.818 168.533 376.078 168.21C378.016 167.887 380.276 167.241 382.214 166.918C385.443 166.272 388.35 165.303 391.579 164.334C395.131 163.366 399.006 163.043 402.882 163.043C407.08 163.043 411.278 163.366 415.153 164.012C419.997 164.657 424.841 165.626 429.685 166.272C432.591 166.918 435.821 167.564 438.727 168.21C441.957 169.178 444.863 170.47 447.769 172.085C450.353 173.699 452.936 174.991 455.197 176.606C458.103 178.866 461.332 181.127 463.916 183.71C466.176 185.648 468.437 187.909 470.375 189.846C472.312 191.784 474.25 194.044 475.864 195.982C476.51 196.951 477.479 197.919 478.125 198.888C479.094 200.503 480.063 201.795 480.385 203.732C480.385 204.378 480.385 204.701 480.385 205.347C478.125 205.67 476.187 206.316 474.25 205.993C472.958 205.67 471.666 205.347 470.698 204.701C470.698 204.701 470.375 204.701 470.375 204.378C468.114 203.409 465.854 202.763 463.593 201.795C462.624 201.472 461.978 201.795 461.655 202.763C461.332 203.732 461.655 204.378 462.624 204.701C464.239 205.347 465.531 205.67 467.145 206.316C468.114 206.639 469.406 206.962 470.375 207.607C471.666 208.253 473.281 208.576 474.896 208.899C475.219 208.899 475.864 208.899 476.187 208.899C477.479 208.899 478.771 208.576 480.063 208.576C480.063 209.545 479.74 210.514 479.094 211.16C478.448 212.774 477.479 214.389 476.833 216.004C475.864 217.941 474.573 219.879 473.281 221.494C472.312 222.785 471.343 223.754 470.052 225.046C467.468 227.629 464.885 229.567 461.655 231.504C458.749 233.119 456.166 234.734 452.936 235.703C451.645 236.026 450.676 236.671 449.384 236.994C448.415 237.317 447.446 237.64 446.155 237.963C443.571 238.609 440.988 239.255 438.404 239.901C435.498 240.547 432.591 240.87 429.685 241.515C424.841 242.161 419.997 242.484 415.153 242.484C412.247 242.484 409.663 242.161 406.757 242.161C406.111 242.161 405.465 242.161 405.142 242.807C404.496 243.453 404.819 244.422 405.465 244.745C405.788 245.068 406.434 245.068 407.08 245.391H407.726C407.726 246.682 407.08 247.328 406.757 247.974C407.08 247.328 407.08 246.682 406.757 246.359C406.111 245.714 405.142 245.391 404.496 246.036C402.882 247.328 401.59 248.62 399.975 249.912C397.715 251.849 395.131 253.787 392.225 254.756C390.61 255.402 388.995 255.402 387.381 255.724C385.766 256.047 384.152 256.047 382.86 256.693C382.537 256.693 382.214 257.016 381.891 257.016C380.599 257.016 379.953 257.662 378.662 257.985C378.339 257.985 378.016 258.308 378.016 258.308C377.047 258.308 376.401 258.954 375.755 259.6C375.109 260.245 375.432 261.214 376.401 261.537C376.724 261.86 377.047 261.86 377.693 261.86C377.693 262.829 378.339 263.475 378.985 263.798C382.537 267.027 386.412 269.933 390.287 272.84C393.84 275.423 397.392 278.007 401.267 280.59C405.788 283.82 410.632 286.726 415.476 288.664C421.289 291.247 427.102 292.862 433.237 293.508C437.435 294.153 441.956 294.153 446.155 294.153C448.092 293.831 450.03 293.831 451.967 293.508C456.488 292.862 461.01 292.539 465.531 292.862C467.468 293.185 469.729 293.508 471.666 293.831C474.25 294.476 476.51 295.122 479.094 295.768C481.677 296.737 484.584 297.06 486.844 298.674C487.813 299.966 488.136 302.227 488.459 303.518C490.073 306.748 489.751 309.008 489.428 310.3Z" fill="white"/>
<path d="M483.938 203.409C483.615 202.117 483.292 200.826 482.323 199.534C481.354 198.242 480.708 196.951 479.74 195.659C476.833 192.107 473.604 188.554 470.052 185.325C466.822 182.096 463.27 179.189 459.395 176.283C458.103 175.314 456.811 174.668 455.52 173.699C454.228 173.054 452.936 172.085 451.644 171.439C449.061 169.824 446.477 168.855 443.894 167.564C440.342 165.949 436.144 165.303 432.268 164.657C429.039 164.011 426.133 163.366 422.903 163.043C417.736 162.397 412.569 161.751 407.403 161.428C403.85 161.428 399.975 161.428 396.423 161.751C396.1 161.751 395.777 161.751 395.131 162.074H394.162C394.808 160.136 394.485 159.813 392.548 159.167C390.287 158.522 387.704 157.553 385.443 156.907C381.568 155.938 377.693 154.969 373.818 154C369.942 153.032 366.39 152.386 362.515 151.417C360.577 151.094 358.64 150.771 356.379 150.448C355.41 150.448 354.764 150.125 353.796 149.802C351.212 149.479 348.952 149.156 346.368 148.834C343.462 148.511 340.232 148.511 337.326 148.188C335.066 148.188 332.805 147.865 330.222 147.865C326.346 147.865 322.471 147.865 318.919 147.865C315.367 147.865 311.814 148.188 308.262 148.511C306.325 148.834 304.387 148.834 302.449 149.156C300.512 149.156 298.897 149.802 297.282 150.771C295.345 152.063 294.699 154 295.022 156.261C295.022 158.199 295.991 159.813 297.605 161.105C298.251 161.751 299.22 162.074 300.189 162.72C300.189 162.72 300.512 163.043 300.835 163.043V163.366C300.512 163.366 300.512 163.366 300.189 163.688C299.22 164.011 297.928 164.334 296.959 164.657C296.314 164.98 295.345 164.98 294.699 165.303C292.761 165.949 290.501 166.918 288.886 167.887C287.271 168.855 285.657 169.824 284.365 170.793C283.073 171.762 282.427 173.054 282.427 174.668C282.427 176.606 283.396 178.22 284.688 179.835C285.98 181.45 287.917 182.741 289.855 184.033C293.084 185.648 296.314 187.263 299.543 188.231C305.033 190.169 310.846 191.461 316.658 192.429C319.888 193.075 323.44 193.398 326.992 193.721C331.19 194.367 335.066 194.367 339.264 194.69C339.91 194.69 340.555 194.69 341.201 194.69C341.201 194.69 341.524 194.69 341.847 194.69V195.013C341.201 195.336 340.878 195.659 340.233 195.659C338.618 196.305 337.326 196.951 335.711 197.273C334.097 197.919 334.097 198.242 334.42 199.857C334.42 199.857 334.097 200.18 333.774 200.18C330.545 201.149 327.315 202.117 324.086 202.763C319.242 204.055 314.721 205.024 309.877 206.316C307.293 206.961 304.387 207.607 301.803 208.576C298.897 209.222 295.991 209.868 292.761 210.514C288.563 211.16 284.042 211.483 279.844 211.483C276.938 211.483 273.708 211.805 270.479 211.805C266.604 211.805 262.406 212.128 258.53 212.128C254.332 212.128 249.811 211.805 245.613 211.805C243.676 211.805 241.415 211.483 239.477 211.483C233.665 210.837 227.852 210.191 222.039 209.545C219.456 209.222 216.872 208.899 214.612 208.576C213.32 208.576 211.705 208.253 210.413 207.93C208.153 207.607 205.892 207.284 203.632 207.284C200.403 206.961 197.173 206.639 193.944 206.316C188.454 205.993 182.641 205.347 176.828 205.347C176.828 205.347 176.506 205.347 176.183 205.024C176.183 205.024 176.183 204.701 176.506 204.701C179.089 203.409 181.995 202.44 184.902 201.795C187.808 201.472 190.715 200.826 193.298 200.503C193.944 200.503 194.913 200.503 195.882 200.503C197.819 200.503 200.08 200.18 202.017 200.503C202.663 200.503 203.309 200.503 204.278 200.503C206.215 200.503 208.153 200.826 210.091 200.826C211.059 200.826 211.705 201.149 212.674 201.149C213.966 201.149 214.612 200.503 214.289 199.211C214.289 198.565 213.966 197.919 213.643 197.273C212.351 194.367 210.736 191.784 208.476 189.2C204.924 185.325 200.725 182.096 196.204 179.512C192.329 177.575 188.131 175.96 183.933 174.668C181.35 174.022 178.443 173.376 175.86 173.054C171.339 172.408 166.818 172.085 162.296 172.085C159.713 172.085 157.13 172.731 154.546 173.376C151.963 174.022 149.056 174.991 146.473 175.96C145.181 176.283 144.212 176.929 142.921 177.575C141.952 178.22 140.983 178.543 139.691 179.189C139.368 179.512 138.722 179.835 138.399 180.158C137.754 180.804 136.785 181.127 136.139 181.773C135.17 182.741 133.878 183.387 132.91 184.356C131.618 185.325 130.649 186.617 129.68 187.908C127.42 190.815 125.482 194.367 124.513 197.919C123.545 200.826 123.222 204.055 123.222 206.961C123.222 208.899 123.222 210.837 123.222 213.097C123.222 213.743 123.545 214.389 123.867 215.358C124.513 217.941 125.159 220.525 125.482 223.431C125.482 224.4 125.482 225.369 125.159 226.337C124.836 227.629 125.159 227.952 126.128 228.598L126.451 228.921C126.451 229.567 126.128 229.89 126.128 230.536C126.128 230.858 126.451 231.504 126.451 232.15C126.774 233.765 126.451 235.38 125.159 236.994C124.836 236.348 125.159 236.348 125.159 236.025C125.482 235.057 125.159 234.411 124.513 234.088C123.867 233.765 123.222 234.088 122.576 234.734C122.576 235.057 122.253 235.057 122.253 235.38C120.961 237.963 119.992 240.869 118.701 243.453C117.409 246.359 115.794 248.943 114.179 251.526C112.242 254.433 109.981 256.693 107.075 258.308C104.814 259.6 102.231 261.214 99.9704 262.506C97.387 263.798 94.8035 264.766 92.2201 266.058C89.6366 267.027 86.7302 267.996 83.8238 268.642C81.8862 268.965 79.9486 269.288 78.011 268.965C77.0422 268.965 76.3963 268.319 75.4275 267.996C73.8129 267.027 72.5211 266.058 70.9065 265.089C69.6147 264.121 67.6771 263.475 66.0625 262.829C63.479 262.183 60.8955 262.183 58.3121 262.829C56.3745 263.152 54.4369 263.798 52.4993 264.444C51.2076 264.766 49.9158 265.412 48.6241 266.058C47.0094 266.704 45.3948 267.35 43.7801 268.319C40.2278 270.256 36.6756 272.194 33.4463 274.777C30.2169 277.038 26.9876 279.621 23.7583 282.205C21.1748 284.465 18.9143 286.726 16.6538 288.986C16.3308 289.309 16.0079 289.632 15.362 289.632C14.7161 289.632 14.0703 289.632 13.4244 289.955C12.7786 290.278 11.8097 289.955 10.8409 289.955C9.87215 289.955 9.22629 288.986 8.90336 288.341C8.58042 287.695 8.58043 286.726 8.58043 286.08C8.58043 285.434 8.58042 284.465 8.90336 283.819C9.22629 282.528 9.87216 281.559 10.518 280.59C11.8098 278.975 13.1015 277.361 14.3932 275.423C16.6537 272.194 19.5601 269.287 22.1436 266.381C26.3417 261.86 30.5399 257.662 34.738 253.141C36.3527 251.526 37.6444 249.912 39.582 248.62C41.8425 247.005 44.426 245.39 47.3324 245.39C49.5929 245.39 51.8534 245.713 54.114 246.682C55.7286 247.328 57.0204 247.974 58.635 248.297C62.8332 249.589 66.7083 250.234 71.2294 250.557C77.3651 250.88 83.5009 250.88 89.3137 249.589C90.9283 249.266 92.8659 248.62 94.4806 247.974C96.4182 247.005 98.0328 245.713 99.9704 244.422C102.231 242.484 103.846 240.224 105.46 237.64C106.106 236.671 106.752 236.025 107.721 235.702C108.69 235.057 109.658 234.411 110.95 234.088C111.919 233.765 112.888 233.442 113.857 233.119C116.117 232.473 123.545 229.89 125.482 229.244C126.451 228.921 126.774 228.598 126.774 227.629C126.774 226.66 126.128 226.337 125.159 226.337H124.836C122.253 227.306 114.502 229.89 111.919 230.536C110.304 231.181 108.69 231.827 107.075 232.796C105.137 233.765 103.523 235.057 102.554 236.994C102.231 237.64 101.585 238.286 101.262 239.255C100.616 239.901 99.9704 240.869 99.3246 241.515C99.0016 241.838 98.6787 241.838 98.6787 242.161C98.0328 242.807 97.064 243.453 96.4182 244.099C95.7723 244.422 95.1264 244.745 94.4806 245.068C92.8659 245.713 91.2512 246.359 89.6366 247.005C88.6678 247.328 87.699 247.328 87.0531 247.651C83.5009 247.974 79.9486 248.297 76.3963 248.297C72.8441 248.297 69.2918 247.974 65.7395 247.328C62.5102 246.682 59.6038 246.036 56.6974 244.745C53.791 243.453 50.5617 242.807 47.3324 243.453C44.7489 243.776 42.1654 245.068 39.9049 246.682C38.6132 247.651 37.3215 248.943 36.0297 249.912C34.0921 251.849 31.8316 253.787 29.894 256.047C26.6647 259.6 23.1124 263.152 19.8831 266.704C18.9143 267.673 17.9455 268.965 16.9767 269.933C14.3932 273.163 11.4868 276.392 9.22628 279.944C8.58042 281.236 7.61163 282.851 6.96576 284.142C6.96576 284.788 6.64282 285.111 6.64282 285.757C6.64282 288.018 6.64283 289.955 7.93456 291.893C9.22629 293.507 11.1639 294.153 13.1015 294.153H13.4244C13.4244 294.153 13.4244 294.153 13.7474 294.153C13.7474 294.476 13.4244 294.476 13.4244 294.799C11.4868 297.06 9.87215 299.643 8.25749 302.227C6.96576 304.487 5.99697 307.071 5.3511 309.977C5.02817 311.592 5.02816 313.529 5.99696 315.144C6.31989 315.79 6.64283 316.436 7.28869 317.082C8.90336 319.342 10.518 321.926 12.7786 323.54C14.3932 324.832 16.0079 325.478 17.9455 326.124C19.5601 326.447 21.1748 326.447 22.7895 326.124C23.7583 325.801 24.4041 325.478 25.3729 325.155C26.6647 324.509 27.9564 323.863 29.2481 322.894C29.5711 322.571 30.2169 322.249 30.8628 321.603C31.8316 320.957 32.8004 319.988 34.0921 319.342C36.0297 317.727 37.9673 316.436 40.2279 314.821C42.1654 313.529 44.103 311.915 46.0406 310.623C47.9782 309.331 50.2388 307.717 52.1764 306.425C54.4369 305.133 57.0204 303.518 59.2809 302.227C61.2185 301.258 63.1561 300.289 65.0937 299.32C67.0313 298.351 68.9689 298.029 71.2294 297.383C72.8441 297.06 74.4587 297.06 76.3963 297.383C78.011 297.706 79.9486 298.029 81.5633 298.351C82.5321 298.674 83.5009 298.997 84.4697 299.32C88.6678 300.612 92.8659 302.227 97.064 304.164C100.939 305.779 104.814 307.394 108.69 308.685C110.304 309.008 111.919 309.331 113.534 309.654C114.825 309.977 116.117 310.3 117.732 310.3C121.93 310.946 126.128 311.269 130.326 311.915C135.17 312.561 140.014 312.561 144.858 312.561C147.119 312.561 149.702 312.561 152.286 312.238C155.838 311.915 159.713 311.592 163.265 310.623C167.463 309.654 171.339 308.039 174.891 305.779C177.151 304.487 179.412 303.195 181.672 301.581C183.933 299.966 188.777 295.445 190.392 293.185C190.715 292.862 190.715 292.539 191.038 292.216C191.038 292.216 191.038 292.216 191.038 291.893C191.038 291.57 191.038 291.247 191.038 290.924C191.038 290.601 190.715 290.601 190.715 290.601C190.069 290.278 189.423 290.278 188.777 290.924C188.454 291.57 187.808 292.216 187.162 292.539C186.839 293.185 183.61 296.737 182.964 297.383C182.318 297.706 181.672 298.351 181.027 298.674C180.381 298.997 179.735 299.643 179.089 299.966C178.443 300.289 178.12 300.612 177.474 300.935C175.537 302.227 173.599 303.518 171.339 304.487C170.37 305.133 169.724 305.456 168.755 305.779C167.786 306.102 166.818 306.425 165.849 306.748C164.88 307.071 163.911 307.394 162.942 307.394C161.005 307.717 159.067 308.362 156.807 308.362C152.608 309.008 148.41 309.008 143.889 309.008H141.952C139.368 309.008 136.462 309.008 133.878 308.685C133.555 308.685 133.233 308.685 132.91 308.685C130.326 308.685 127.42 308.362 124.836 308.039C121.607 307.717 118.378 307.394 115.471 306.748C114.502 306.425 113.211 306.425 112.242 306.102C109.013 305.456 105.783 304.164 102.877 302.873C101.585 302.55 100.616 301.904 99.3246 301.258C97.064 300.289 94.4806 299.32 91.8971 298.351C90.6054 298.029 89.3136 297.383 88.3448 297.06C85.4384 296.091 82.2091 295.122 78.9798 294.799C78.011 294.476 76.7193 294.476 75.7505 294.476C73.8129 294.153 72.1982 294.476 70.2606 294.799C68.0001 295.445 65.4166 296.091 63.1561 297.383C62.5102 297.706 61.5414 298.029 60.8955 298.351C58.958 299.32 57.0204 300.612 54.7598 301.581C52.8222 302.873 50.8846 303.841 48.947 305.133C46.6865 306.748 44.426 308.362 42.1654 309.977C39.582 311.592 37.3215 313.529 34.738 315.467C32.4775 317.082 30.2169 319.019 27.9564 320.634C26.9876 321.28 26.0188 322.249 25.05 322.571C23.1124 323.54 21.1748 323.863 19.2372 323.217C17.6225 322.894 16.0079 321.926 14.7161 320.311C14.0703 319.665 13.1015 318.696 12.4556 317.727C11.8097 316.759 11.1639 315.79 10.518 314.821C9.87216 313.529 9.22628 312.238 9.22628 310.946C9.22628 309.977 9.22629 309.331 9.54923 308.362C10.518 305.133 12.1327 302.55 13.7474 299.643C16.3308 295.768 19.8831 292.216 23.1124 288.663C24.4041 287.372 26.0188 285.757 27.6335 284.465C29.2481 283.174 30.8628 281.559 32.8004 280.267C35.0609 278.653 37.6444 277.038 39.9049 275.423C43.4572 273.163 47.0094 271.225 50.8846 269.288C52.1764 268.642 53.791 267.996 55.0828 267.35C56.6974 267.027 57.9892 266.381 59.6038 266.058C60.2497 266.058 60.8956 265.735 61.8644 265.735C62.5102 265.735 63.479 265.735 64.1249 265.735C67.0313 265.735 69.2918 267.027 71.5523 268.642C73.167 269.61 74.4587 270.579 76.0734 271.548C78.6569 273.163 81.2403 273.163 84.1467 272.84C85.1155 272.84 86.4072 272.517 87.376 272.194C88.3448 271.871 89.3137 271.871 90.2824 271.548C94.1576 270.256 97.7099 268.965 101.262 267.027C103.846 265.735 106.429 264.444 109.013 262.829C111.596 261.214 114.502 259.277 116.44 256.693C118.701 254.11 120.315 250.88 121.93 247.974C122.576 246.359 123.545 244.745 124.513 242.807C124.513 242.807 124.836 242.484 125.159 242.484C126.128 242.484 126.774 241.838 127.42 241.515C127.743 241.192 128.389 240.869 128.711 240.546C129.357 239.901 130.003 238.932 130.649 237.963C130.972 237.64 130.972 236.994 131.295 236.348C131.618 235.057 131.618 234.088 131.295 232.796C131.295 232.15 131.295 231.504 131.618 230.858C132.91 228.921 134.201 227.306 135.816 225.369C137.108 223.431 139.045 222.139 140.983 220.848C145.504 217.941 150.025 216.004 155.192 214.389C156.807 214.066 158.098 213.42 159.713 213.097C162.619 212.451 165.849 211.805 169.078 210.837C171.016 210.514 172.953 210.191 174.891 209.868C176.183 209.868 177.474 209.545 178.766 209.545H180.381C182.318 209.545 184.256 209.545 185.871 209.545C187.808 209.545 189.746 209.868 191.683 209.868C192.975 209.868 194.267 209.868 195.559 210.191C196.85 210.191 197.819 210.514 199.111 210.514C200.403 210.514 202.017 210.514 203.309 210.837C203.632 210.837 204.278 210.837 204.601 211.16C204.924 211.16 205.569 211.16 206.215 211.16C206.538 211.16 207.184 211.16 207.507 211.16C207.83 211.16 208.153 211.16 208.476 211.16C208.799 211.16 209.122 211.16 209.445 211.16C210.736 211.16 212.028 211.483 213.32 211.483C214.289 211.483 215.257 211.805 216.226 211.805C221.07 212.451 226.237 213.097 231.081 213.743C235.925 214.389 240.769 214.712 245.613 215.358C252.072 215.681 258.208 216.004 264.666 215.681C268.218 215.681 271.448 215.358 275 215.358C276.938 215.358 279.198 215.358 281.136 215.035C283.073 215.035 285.334 215.035 287.594 214.712C289.209 214.712 290.824 214.389 292.438 214.066C294.053 213.743 295.668 213.42 297.282 213.097C298.897 212.774 300.512 212.451 302.126 212.128C306.002 211.16 310.2 209.868 314.075 208.899C317.304 207.93 320.857 206.961 324.086 206.316C325.055 206.316 326.023 205.993 326.992 205.67C328.93 205.024 330.867 204.701 332.805 204.055C333.774 203.732 334.743 203.409 335.711 203.409C337.003 203.086 337.972 202.763 339.264 202.44C340.555 202.117 340.878 201.795 340.555 200.503C340.555 200.18 340.555 200.18 340.555 199.857V199.534C340.878 199.534 340.878 199.211 341.201 199.211C342.816 198.565 344.108 197.919 345.722 197.596C346.691 197.273 347.014 196.951 347.014 195.659V195.336C347.337 195.336 347.66 195.336 347.983 195.336C351.212 195.013 354.764 194.69 357.994 194.367C358.317 194.367 358.317 194.367 358.64 194.367C360.9 194.367 363.161 194.367 365.098 194.69C366.067 194.69 367.036 195.013 368.005 195.336C368.651 195.659 369.296 195.336 369.942 194.69V194.367C369.942 194.044 369.942 193.721 369.942 193.398C369.942 193.398 369.619 193.075 369.296 193.075C368.328 192.752 367.036 192.107 366.067 192.107C364.775 192.107 363.161 191.784 361.546 191.784C358.64 191.784 355.733 191.784 352.827 192.107C351.535 192.107 349.92 192.429 348.629 192.752C346.045 193.075 343.462 193.075 341.201 193.075H340.878C337.326 193.075 333.451 192.752 329.899 192.429H329.576C325.701 192.107 321.502 191.461 317.627 190.815C313.106 190.169 308.585 189.2 304.387 187.908C301.481 186.94 298.574 185.971 295.991 185.002C294.053 184.356 292.438 183.064 290.824 182.096C289.855 181.45 288.886 180.481 287.917 179.512C287.272 178.866 286.949 178.22 286.626 177.252C286.626 176.929 286.626 176.929 286.626 176.606C286.626 176.283 286.626 175.96 286.949 175.637C286.949 175.314 287.272 174.991 287.594 174.991C288.563 174.345 289.532 173.699 290.501 173.054C290.824 172.731 291.47 172.408 292.115 172.408C292.761 172.085 293.73 171.439 294.376 171.116C295.022 170.793 295.668 170.47 296.637 170.147C297.282 169.824 297.928 169.501 298.574 169.178C299.22 168.855 300.189 168.855 300.835 168.532C301.803 168.21 302.772 167.887 303.741 167.887C304.71 167.564 305.679 167.564 306.647 167.241C311.491 166.272 316.335 165.949 321.502 165.626C325.055 165.626 328.607 165.626 332.482 165.626C337.003 165.626 341.847 166.272 346.368 166.595C350.566 166.918 355.087 167.564 359.608 168.21C361.546 168.532 363.807 168.855 365.744 169.178C367.682 169.501 369.942 170.147 372.203 170.47C373.495 170.793 375.109 170.793 376.401 170.793C377.37 170.793 378.339 170.793 378.984 170.47C380.922 170.147 383.183 169.501 385.12 169.178C385.766 169.178 386.412 168.855 387.058 168.855C389.641 168.21 391.902 167.564 394.485 166.918C397.069 166.272 399.975 165.949 402.881 165.626C403.85 165.626 404.819 165.626 405.788 165.626C407.725 165.626 409.986 165.626 411.924 165.949C413.861 165.949 416.122 166.272 418.059 166.595C420.32 166.918 422.903 167.241 425.487 167.564C427.747 167.887 430.331 168.21 432.914 168.855C434.206 169.178 435.821 169.501 437.435 169.824C439.05 170.147 440.342 170.47 441.956 170.793C445.186 171.439 448.092 173.054 450.998 174.345C453.582 175.637 456.165 177.252 458.426 178.866C461.332 180.804 464.562 183.387 467.145 185.971C469.406 187.908 471.666 190.169 473.604 192.107C474.573 193.075 475.541 194.044 476.51 195.336C477.479 196.305 478.448 197.273 479.094 198.565C479.417 198.888 479.739 199.534 480.062 199.857C480.385 200.18 480.708 200.826 481.031 201.149C481.031 201.149 481.354 201.472 481.354 201.795C481.677 202.117 482 202.763 482.323 203.409C482.646 204.055 482.969 205.024 483.292 205.993C483.292 206.639 483.292 206.961 483.292 207.607C481.354 207.93 479.094 208.576 477.156 208.253C475.864 208.253 474.573 207.607 473.604 206.961C473.604 206.961 473.604 206.961 473.281 206.961C472.312 206.639 471.02 205.993 470.052 205.67C469.083 205.347 467.791 204.701 466.822 204.378C466.176 204.055 465.853 204.378 465.53 204.378C465.207 204.378 465.208 204.701 465.208 205.024C465.208 205.347 465.208 205.347 465.208 205.67C465.208 205.993 465.207 205.993 465.53 206.316C465.53 206.639 465.853 206.639 466.176 206.961C467.468 207.607 469.083 207.93 470.697 208.576C471.343 208.899 471.666 208.899 472.312 209.222C472.958 209.545 473.281 209.545 473.927 209.868C474.573 210.191 475.218 210.514 476.187 210.514C476.833 210.837 477.802 210.837 478.448 210.837C478.771 210.837 479.094 210.837 479.74 210.837C481.031 210.837 482.323 210.514 483.615 210.514C483.615 211.483 483.292 212.451 482.969 213.097C482.323 214.712 481.354 216.327 480.708 217.941C480.385 218.91 479.74 219.879 479.094 220.848C478.448 221.816 477.802 222.462 477.156 223.431C476.187 224.723 475.218 225.692 473.927 226.983C471.343 229.567 468.76 231.504 465.53 233.442C462.947 235.057 460.041 236.671 456.811 237.64C455.842 237.963 454.551 238.609 453.259 238.932C452.29 239.255 451.321 239.578 450.03 239.901C447.446 240.546 444.863 241.192 442.279 241.838C439.373 242.484 436.466 242.807 433.56 243.13C428.716 243.776 423.872 244.099 419.028 244.099C416.445 244.099 413.538 244.099 410.632 243.776C410.309 243.776 409.663 243.776 409.34 244.099C409.34 244.099 409.017 244.099 409.017 244.422C408.371 245.068 408.694 246.036 409.34 246.359C409.663 246.682 410.309 246.682 410.955 246.682H411.601C415.476 247.005 419.028 247.005 422.903 246.682C427.101 246.682 430.977 246.359 435.175 245.713C437.758 245.39 440.342 244.745 442.925 244.422C446.154 243.776 449.707 242.807 452.936 241.838C453.905 241.515 455.197 240.869 456.488 240.546C457.134 240.224 457.78 239.901 458.749 239.901C462.947 238.286 466.822 236.025 470.374 233.442C473.281 231.181 476.187 228.921 478.448 226.014C479.094 225.046 479.74 224.077 480.708 223.108C481.354 222.462 481.677 221.493 482.323 220.848C483.938 218.587 485.229 216.004 486.198 213.097C486.521 212.128 486.844 210.837 487.167 209.545C484.584 206.961 484.261 205.347 483.938 203.409ZM169.724 205.993C169.401 205.993 169.078 206.316 168.755 206.316C167.786 206.639 166.495 206.639 165.526 206.961C161.328 207.93 156.807 208.899 152.608 210.514C148.41 211.805 144.212 213.42 140.337 215.681C138.076 216.649 135.816 218.264 133.878 219.879C131.618 221.816 130.003 224.4 128.066 226.66C127.743 226.983 127.743 227.306 127.42 227.629C127.42 227.306 127.42 227.306 127.42 227.306C127.743 224.4 127.097 221.493 126.451 218.91C125.482 216.004 125.159 213.097 125.159 209.868C125.159 207.284 125.482 204.701 126.128 202.117C127.097 197.919 129.034 194.044 131.941 190.492C133.555 188.554 135.493 186.94 137.431 185.325C139.691 183.71 141.952 182.096 144.535 181.127C145.181 180.804 146.15 180.481 146.796 180.158C147.764 179.835 148.733 179.512 149.702 179.189C154.546 177.575 159.39 176.283 164.557 176.606C167.14 176.606 170.047 176.929 172.63 177.252C175.214 177.575 177.797 178.22 180.381 178.543C184.256 179.189 187.808 180.481 191.36 182.096C195.882 184.033 200.08 186.617 203.632 190.169C204.924 191.461 205.892 192.429 207.184 194.044C208.153 195.336 208.799 196.951 209.768 198.242C209.768 198.242 209.768 198.565 210.091 198.888C209.768 198.888 209.445 198.888 209.122 198.888C208.476 198.888 207.507 198.565 206.538 198.565C204.278 198.565 202.017 198.242 199.757 198.242C199.111 198.242 198.465 198.242 197.496 198.242C195.236 198.242 193.298 198.565 191.038 198.565C186.839 198.888 182.964 199.534 179.089 200.826C175.214 201.795 172.307 203.409 169.724 205.993ZM377.693 165.949C375.755 166.272 373.495 166.595 371.234 165.949C370.265 165.626 368.974 165.626 368.005 165.303C362.838 164.334 357.348 163.366 351.858 162.397C350.243 162.074 348.952 162.074 347.337 161.751C346.045 161.751 344.754 161.751 343.462 161.428C341.201 161.105 338.941 161.105 337.003 160.782C332.482 160.459 327.961 160.136 323.117 160.459C319.242 160.459 315.367 160.782 311.169 161.105C309.554 161.428 308.262 161.428 306.647 161.105C305.679 160.782 304.71 160.782 303.418 160.459C301.803 160.136 300.512 159.49 299.22 158.522C297.928 157.553 297.605 155.938 297.928 154.323C297.928 153.678 298.251 153.032 298.897 152.709C299.543 152.386 300.512 152.063 301.158 151.74C302.126 151.417 303.418 151.417 304.71 151.417C306.325 151.417 307.939 151.094 309.554 150.771C314.075 150.448 318.596 150.125 323.117 150.125C327.315 150.125 331.513 150.125 335.711 150.448C337.972 150.448 340.233 150.771 342.493 151.094C343.785 151.094 344.754 151.094 346.045 151.417C347.337 151.417 348.306 151.74 349.598 152.063C351.535 152.386 353.473 152.386 355.733 152.709C357.671 153.032 359.608 153.355 361.546 153.678C366.067 154.646 370.265 155.615 374.786 156.584C377.047 157.23 379.63 157.876 382.214 158.522C385.443 159.49 388.349 160.459 391.579 161.428C391.902 161.428 391.902 161.428 392.225 161.751C391.902 161.751 391.902 162.074 391.579 162.074C389.964 162.397 388.349 163.043 386.735 163.366C383.828 164.334 380.922 165.626 377.693 165.949Z" fill="black"/>
<path d="M209.768 198.565C209.445 198.565 209.122 198.565 208.799 198.565C208.153 198.565 207.184 198.242 206.216 198.242C203.955 198.242 201.695 197.919 199.434 197.919C198.788 197.919 198.142 197.919 197.174 197.919C194.913 197.919 192.975 198.242 190.715 198.242C186.517 198.565 182.642 199.211 178.766 200.503C175.214 201.472 171.985 203.086 169.724 205.993C169.401 205.993 169.078 206.316 168.755 206.316C167.787 206.639 166.495 206.639 165.526 206.962C161.328 207.93 156.807 208.899 152.609 210.514C148.411 211.806 144.213 213.42 140.337 215.681C138.077 216.65 135.816 218.264 133.879 219.879C131.618 221.816 130.004 224.4 128.066 226.66C127.743 226.983 127.743 227.306 127.42 227.629C127.42 227.306 127.42 227.306 127.42 227.306C127.743 224.4 127.097 221.494 126.451 218.91C125.482 216.004 125.16 213.097 125.16 209.868C125.16 207.284 125.482 204.701 126.128 202.118C127.097 197.919 129.035 194.044 131.941 190.492C133.556 188.554 135.493 186.94 137.431 185.325C139.692 183.71 141.952 182.096 144.536 181.127C145.181 180.804 146.15 180.481 146.796 180.158C147.765 179.835 148.734 179.512 149.702 179.189C154.546 177.575 159.39 176.283 164.557 176.606C167.141 176.606 170.047 176.929 172.631 177.252C175.214 177.575 177.798 178.221 180.381 178.543C184.256 179.189 187.809 180.481 191.361 182.096C195.882 184.033 200.08 186.617 203.632 190.169C204.924 191.461 205.893 192.43 207.185 194.044C208.153 195.336 208.799 196.951 209.768 198.242C209.445 197.919 209.445 198.242 209.768 198.565Z" fill="white"/>
<path d="M491.365 307.394C491.042 308.039 491.042 308.685 490.72 309.008C490.397 309.654 489.751 310.3 489.751 310.623C489.751 310.946 489.751 311.592 489.428 311.915C489.105 312.883 488.136 313.852 487.167 314.821C485.876 315.79 484.261 316.759 482.646 317.405C479.74 318.373 477.156 319.665 474.25 319.988C472.635 320.311 471.021 320.957 469.729 321.28C467.791 321.603 465.531 321.926 463.27 322.571C461.978 322.894 460.687 322.894 459.072 323.217C458.103 323.217 457.135 323.54 456.489 323.863C454.228 324.186 451.968 324.509 450.03 324.832C448.092 325.155 446.155 325.801 444.217 326.124C441.957 326.447 439.373 326.447 437.113 326.124C430.977 325.478 425.487 324.186 419.351 322.571C415.799 321.603 411.924 320.957 408.372 319.988C405.142 319.019 401.59 318.05 398.361 316.759C395.454 315.79 392.548 314.498 389.641 313.206C386.412 311.592 383.183 310.3 379.954 308.685C374.787 306.102 369.62 303.195 364.453 300.612C361.223 298.674 357.994 296.737 354.765 294.799C353.15 293.83 351.858 293.185 350.244 292.216C349.275 291.57 349.275 291.57 348.629 292.216C346.046 294.476 343.462 297.06 340.879 299.643C340.556 299.966 340.233 300.289 339.91 300.612C339.264 301.258 337.972 300.612 337.649 299.966C337.649 299.643 337.649 299.643 337.649 298.997C337.003 299.32 336.358 299.643 336.035 299.643C335.066 299.966 334.42 300.289 333.451 300.935C331.191 301.904 328.607 302.873 326.024 303.195C325.055 303.518 324.409 303.841 323.44 303.841C320.534 304.487 317.305 304.81 314.398 305.456C312.138 305.779 309.554 306.102 306.971 306.102C304.387 306.425 301.481 306.425 298.897 306.425C295.991 306.425 293.085 306.425 290.178 306.425C287.272 306.425 284.365 306.425 281.459 306.425C278.553 306.425 275.646 306.425 272.74 306.425C270.156 306.425 267.573 306.425 265.312 306.102C260.791 306.102 256.593 305.779 252.072 305.779C250.457 305.779 248.843 305.456 247.228 305.456C245.936 305.456 244.645 305.133 243.03 305.133C241.415 305.133 240.124 304.81 238.509 304.81C237.54 304.81 236.894 304.487 235.925 304.487C232.696 304.164 229.467 303.518 225.915 302.873C224.946 302.873 223.977 302.55 223.331 302.55C221.716 302.227 220.102 301.904 218.487 301.581C215.258 300.935 212.351 300.289 209.122 299.32C205.57 298.351 201.695 297.06 198.142 296.091C194.59 295.122 190.715 293.83 187.163 292.539C185.871 292.216 185.548 291.247 185.871 290.278C186.194 289.309 186.84 289.309 188.131 289.632C190.069 290.278 191.684 290.924 193.621 291.57C198.142 292.862 202.986 294.476 207.83 295.768C213.32 297.383 219.133 298.674 224.946 299.966C227.206 300.612 229.79 300.935 232.373 301.258C233.342 301.258 234.311 301.581 235.28 301.904C236.894 302.227 238.186 302.227 239.801 302.55C240.447 302.55 241.092 302.873 242.061 302.873C244.322 303.195 246.582 303.195 248.843 303.518C251.426 303.518 253.687 303.841 256.27 303.841C259.5 303.841 262.729 303.841 266.281 304.164C269.51 304.164 272.74 304.487 275.969 304.487C280.167 304.487 284.042 304.487 288.241 304.487C291.147 304.487 294.053 304.487 296.96 304.487C300.189 304.487 303.096 304.164 306.325 304.164C310.2 303.841 314.075 303.518 317.95 302.873C320.857 302.227 324.086 301.904 326.67 300.935C329.899 299.966 333.451 298.674 336.358 297.06C337.003 296.737 337.649 296.414 338.295 295.768C339.264 295.122 339.91 295.445 340.556 296.091C340.556 296.091 340.879 296.091 340.879 296.414C342.816 294.476 344.754 292.539 346.691 290.924C346.369 290.601 346.046 290.601 346.046 290.278C341.202 287.372 336.681 284.142 331.837 281.236C331.514 280.913 330.868 280.59 330.222 280.267C329.576 279.944 329.576 278.976 329.899 278.33C330.222 277.684 331.514 277.361 331.837 278.007C332.482 278.33 333.128 278.653 333.774 279.298C337.649 281.559 341.202 284.142 345.077 286.403C347.66 288.018 350.244 289.632 352.827 291.247C357.025 293.83 361.546 296.414 365.744 298.997C368.651 300.612 371.557 302.227 374.464 303.518C377.693 305.133 380.922 307.071 384.152 308.362C388.996 310.623 393.84 312.883 398.684 314.821C400.944 315.467 403.205 316.436 405.465 317.082C409.34 318.05 413.216 319.019 417.091 319.988C423.872 321.603 430.331 323.217 437.436 323.863C440.342 324.186 442.925 323.863 445.832 323.54C447.447 323.217 448.738 322.894 450.353 322.571C451.968 322.249 453.905 321.926 455.52 321.603C457.78 321.28 460.041 320.957 462.301 320.634C464.562 320.311 466.822 319.988 469.083 319.342C470.375 319.019 471.666 318.696 473.281 318.373C475.865 317.727 478.771 317.082 481.354 316.113C481.677 315.79 482.323 315.467 482.969 315.467C482.646 314.821 482.323 314.498 482 314.175C481.032 312.883 479.74 311.915 478.125 310.623C475.865 309.008 473.281 307.717 470.375 308.039H469.729C469.083 308.039 468.76 307.394 468.76 306.748C468.76 306.102 469.083 305.456 469.729 305.133C470.052 305.133 470.375 305.133 470.698 305.133C473.281 305.133 475.542 305.779 477.802 307.071C480.063 308.362 482 309.977 483.615 311.915C484.261 312.561 484.907 313.206 484.907 314.175C485.23 314.175 485.876 313.529 486.198 313.206C486.521 312.883 486.521 312.883 486.521 312.561C487.167 311.592 487.813 310.946 488.136 309.977C489.105 308.362 490.72 307.717 491.365 307.394Z" fill="black"/>
<path d="M502.345 279.944C502.022 277.038 501.054 274.131 499.116 271.871C497.824 270.256 496.21 268.965 493.949 267.996C491.043 267.027 487.813 266.381 484.584 267.027C482.969 267.027 481.355 267.673 479.417 267.996C476.511 268.642 473.604 269.61 470.698 270.256C467.792 270.902 464.562 271.548 461.979 272.194C460.364 272.517 458.427 272.84 456.812 272.84C455.197 272.84 453.583 272.84 451.645 272.84C450.353 272.84 449.061 272.84 447.77 272.517C443.249 271.871 438.405 270.902 433.884 269.933C428.717 268.642 423.873 267.35 418.706 265.412C414.185 263.798 409.664 261.86 405.466 259.277C403.851 258.308 402.559 257.016 400.944 256.047C400.299 255.724 400.299 255.401 400.944 255.078C403.205 253.464 405.466 251.526 407.726 249.266C408.049 248.943 408.049 248.943 408.049 248.62C408.049 248.297 408.049 247.651 407.726 247.328C407.726 247.328 407.403 247.005 407.08 247.005C406.434 246.682 405.788 247.005 405.466 247.328C403.851 248.62 402.559 249.912 400.944 251.203C398.684 253.141 396.1 255.078 393.194 256.047C391.579 256.37 389.965 256.693 388.35 257.016C386.735 257.339 385.121 257.339 383.829 257.985C383.506 257.985 383.183 258.308 382.86 258.308C381.891 258.308 380.923 258.954 379.954 259.277C379.631 259.277 379.308 259.277 379.308 259.599C378.339 259.599 377.693 260.245 377.047 260.891C376.402 261.537 376.725 262.506 377.693 262.829C378.016 262.829 378.339 262.829 378.985 263.152C378.985 263.798 379.308 264.443 379.954 264.766C379.954 265.089 380.277 265.089 380.6 265.089C382.537 266.704 384.475 268.319 386.09 269.61C388.027 271.225 389.965 272.517 391.902 274.131C395.455 276.715 399.007 279.298 402.882 281.882C407.403 285.111 411.924 288.018 417.091 289.955C421.289 291.893 425.81 293.185 430.331 294.153C431.946 294.476 433.238 294.799 434.852 294.799C436.467 295.122 437.759 295.122 439.374 295.122C442.28 295.445 444.863 295.445 447.77 295.122C449.707 294.799 451.645 294.799 453.583 294.476C458.104 293.83 462.625 293.507 467.146 293.83C469.406 293.83 471.344 294.476 473.281 294.799C475.865 295.445 478.125 296.091 480.709 296.737C481.355 297.06 482.001 297.06 482.646 297.383C483.292 297.706 483.938 298.029 484.584 298.351C484.907 298.351 485.553 298.674 485.876 298.997C486.199 298.997 486.522 299.32 487.168 299.643C487.491 299.643 487.491 299.966 487.813 299.966C487.813 299.966 488.136 299.966 488.136 300.289C488.782 300.612 489.428 301.258 490.074 301.581C490.72 302.227 491.366 303.195 492.334 303.841C492.657 301.904 493.303 300.289 492.012 298.997C491.689 298.674 491.366 298.351 491.043 298.351C490.074 297.706 489.105 297.06 488.459 296.414C488.136 296.414 488.136 296.091 487.813 296.091C488.782 295.768 489.428 295.445 490.397 295.122C490.397 295.122 490.72 295.122 490.72 295.445C491.366 296.091 492.012 296.091 492.98 295.768C495.887 294.476 498.793 292.539 500.731 289.632C501.7 287.049 502.991 283.819 502.345 279.944ZM496.856 288.341C495.887 289.632 494.595 290.924 492.98 291.893C492.334 292.216 491.689 292.539 490.72 293.185V290.924C490.72 288.663 490.074 286.726 489.105 284.788C488.459 283.174 487.491 282.528 486.199 281.559C484.907 280.59 482.969 279.944 481.355 279.621C480.386 279.621 479.094 279.621 478.125 279.621C477.48 279.621 477.157 279.944 476.834 280.267C476.511 280.913 476.834 281.236 476.834 281.882C477.157 282.205 477.803 282.528 478.125 282.528C480.386 282.528 482.324 282.851 484.261 284.142C484.907 284.465 485.876 285.111 485.876 286.08C486.199 287.049 486.522 287.695 486.522 288.341C486.845 289.632 487.168 290.924 486.845 292.539C486.845 293.185 486.522 293.507 485.876 293.83C484.584 294.153 483.292 294.476 482.001 294.799C481.355 294.799 480.709 294.799 479.74 294.799C477.157 294.153 474.573 293.185 471.99 292.539C469.729 292.216 467.469 291.893 465.208 291.57C462.625 291.247 459.718 291.57 457.135 291.57C455.197 291.57 453.26 291.893 451.645 292.216C447.124 292.862 442.926 293.184 438.405 292.862C435.175 292.862 431.946 292.216 428.717 291.57C426.456 290.924 423.873 290.601 421.612 289.632C419.029 288.663 416.768 287.695 414.185 286.726C410.955 285.434 408.049 283.819 405.143 281.559C400.944 278.653 397.069 275.746 392.871 272.84C388.673 269.933 384.798 266.704 380.923 263.475C380.277 263.152 379.954 262.506 378.985 261.86C379.631 261.537 379.954 261.537 380.277 261.214C383.183 260.568 386.09 260.245 388.673 259.599C390.934 259.277 393.194 258.954 395.132 257.662C395.455 257.339 395.778 257.339 396.423 257.662C399.653 260.568 403.528 262.829 407.403 264.766C409.664 266.058 412.247 267.027 414.831 267.673C419.998 269.61 425.164 271.225 430.331 272.517C433.238 273.163 436.144 273.809 439.051 274.454C440.342 274.777 441.634 274.777 442.926 275.1C445.186 275.423 447.447 275.746 449.707 275.746C452.291 275.746 454.874 275.746 457.458 275.746C460.041 275.423 462.948 275.1 465.531 274.454C470.375 273.486 475.219 272.194 480.063 270.902C483.292 270.256 486.522 269.61 489.751 270.256C492.012 270.579 493.626 271.871 494.918 273.163C496.856 275.1 497.501 277.361 497.824 279.621C499.762 283.174 499.116 286.08 496.856 288.341ZM491.366 307.071C491.366 306.425 491.689 306.102 492.012 305.456V305.133V304.81L491.689 304.487C491.366 305.133 491.043 306.102 491.366 307.071Z" fill="black"/>
<path d="M496.855 288.341C495.886 289.632 494.271 290.924 492.98 291.893C492.334 292.216 491.688 292.539 490.719 293.184C490.719 292.216 490.719 291.57 490.719 290.924C490.719 288.663 490.073 286.726 489.104 284.788C488.459 283.174 487.49 282.205 486.198 281.559C484.583 280.59 482.969 279.944 481.031 279.621C480.062 279.621 478.771 279.298 477.802 279.298C477.156 279.298 476.833 279.621 476.51 279.944C476.187 280.59 476.187 280.913 476.51 281.559C476.833 281.882 477.479 282.205 478.125 282.205C480.385 282.205 482.323 282.528 484.26 283.819C484.906 284.142 485.875 284.788 485.875 285.757C486.198 286.403 486.521 287.372 486.521 288.018C486.844 289.309 487.167 290.601 486.844 292.216C486.844 292.862 486.521 293.185 485.875 293.507C484.583 293.83 483.292 294.153 482 294.476C481.354 294.476 480.708 294.476 479.739 294.476C477.156 293.83 474.572 292.862 471.989 292.539C469.728 291.893 467.468 291.893 465.207 291.57C462.624 291.247 459.718 291.57 457.134 291.57C455.197 291.893 453.259 291.893 451.644 292.216C447.123 292.862 442.925 293.184 438.404 292.862C435.175 292.539 431.945 292.216 428.716 291.57C426.455 290.924 423.872 290.601 421.612 289.632C419.028 288.663 416.768 287.695 414.184 286.726C410.955 285.434 408.048 283.819 405.142 281.559C400.944 278.653 397.069 275.746 392.87 272.84C388.672 269.933 385.12 266.704 380.922 263.475C380.276 263.152 379.953 262.506 378.984 261.86C379.63 261.537 379.953 261.537 380.599 261.214C383.505 260.568 386.089 260.245 388.995 259.599C391.256 259.277 393.193 258.954 395.454 257.662C395.777 257.339 396.1 257.339 396.746 257.662C399.975 260.568 403.85 262.829 407.725 264.766C409.986 266.058 412.569 267.027 415.153 267.673C420.32 269.61 425.487 271.225 430.654 272.517C433.56 273.163 436.466 273.809 439.373 274.454C440.665 274.777 441.956 275.1 443.248 275.1C445.509 275.423 447.769 275.746 450.03 275.746C452.613 275.746 455.197 275.746 457.78 275.423C460.363 275.1 463.27 274.777 465.853 274.131C470.697 273.163 475.541 271.871 480.385 270.579C483.615 269.933 486.844 269.287 490.073 269.933C492.011 270.579 493.948 271.548 495.24 272.84C496.855 274.777 497.824 277.038 498.147 279.298C499.761 283.174 499.115 286.08 496.855 288.341Z" fill="white"/>
<path d="M422.58 203.086C423.549 201.794 424.841 200.826 426.455 200.18C428.07 199.211 430.008 198.565 431.622 197.596C431.622 197.596 431.622 197.596 431.945 197.273C431.299 197.273 430.977 196.95 430.654 196.95C429.685 196.628 428.393 196.628 427.424 196.628C426.133 196.628 425.164 195.659 424.195 194.69C423.549 194.044 423.226 193.398 422.58 192.752C421.612 191.138 419.997 190.169 418.059 189.523C417.09 189.2 416.122 189.2 415.476 189.2C414.184 189.2 413.215 189.846 411.924 190.169C411.601 190.169 411.601 190.492 411.278 190.492C410.309 191.138 409.663 192.106 409.017 193.075C408.371 194.044 408.048 195.336 407.725 196.628C407.402 200.826 409.986 205.024 414.184 205.993C417.736 206.316 420.32 205.347 422.58 203.086ZM413.215 197.273C412.569 195.659 413.215 194.044 414.83 193.398C416.445 192.752 418.059 193.398 418.705 195.336C419.351 196.628 418.382 198.565 417.09 199.211C415.476 199.534 413.861 198.888 413.215 197.273Z" fill="black"/>
<path d="M346.045 174.022C343.139 173.053 339.91 172.731 337.003 172.408C332.482 172.085 328.284 172.731 324.086 174.022C323.44 174.345 322.794 174.668 322.148 174.991C321.179 175.314 320.857 176.283 321.179 176.929C321.502 177.575 322.471 177.897 323.44 177.575C324.086 177.252 324.409 177.252 325.055 176.929C327.638 175.96 330.544 175.314 333.128 175.314C335.711 174.991 338.295 175.314 341.201 175.637C345.076 176.283 348.952 177.575 352.504 179.189C352.827 179.512 353.473 179.512 353.796 179.835C354.442 180.158 355.087 179.835 355.733 179.189C356.056 178.543 356.056 177.575 355.41 177.252C355.087 176.929 354.442 176.606 354.119 176.606C351.212 175.637 348.629 174.668 346.045 174.022Z" fill="black"/>
<path d="M484.583 297.06C484.583 297.383 484.583 297.06 484.583 297.06C483.938 297.06 484.583 297.06 484.583 297.06Z" fill="black"/>
<path d="M491.688 305.133V305.456C491.688 305.779 491.688 306.425 491.365 307.071C491.365 307.716 491.042 308.039 490.719 308.685C490.396 310.3 489.751 311.269 489.428 311.592L488.136 312.238H487.49L486.844 311.915L486.198 311.269C486.521 310.946 486.521 310.946 486.521 310.623C487.167 309.654 487.813 309.008 488.136 308.039C490.073 303.195 486.521 298.997 486.521 298.997L484.906 296.414C485.552 296.737 486.844 297.06 489.428 297.706C489.751 297.706 489.751 297.706 490.073 298.028C491.042 298.351 491.365 298.997 491.688 299.643C491.688 299.643 491.688 299.643 491.688 299.966C492.334 301.904 492.334 303.518 491.688 305.133Z" fill="black"/>
</g>
<defs>
<filter id="filter0_d" x="18.6128" y="20.13" width="234.406" height="434.301" filterUnits="userSpaceOnUse" color-interpolation-filters="sRGB">
<feFlood flood-opacity="0" result="BackgroundImageFix"/>
<feColorMatrix in="SourceAlpha" type="matrix" values="0 0 0 0 0 0 0 0 0 0 0 0 0 0 0 0 0 0 127 0"/>
<feOffset dy="4"/>
<feGaussianBlur stdDeviation="10"/>
<feColorMatrix type="matrix" values="0 0 0 0 1 0 0 0 0 1 0 0 0 0 1 0 0 0 0.5 0"/>
<feBlend mode="normal" in2="BackgroundImageFix" result="effect1_dropShadow"/>
<feBlend mode="normal" in="SourceGraphic" in2="effect1_dropShadow" result="shape"/>
</filter>
<filter id="filter1_d" x="219.177" y="0.130005" width="274.406" height="474.301" filterUnits="userSpaceOnUse" color-interpolation-filters="sRGB">
<feFlood flood-opacity="0" result="BackgroundImageFix"/>
<feColorMatrix in="SourceAlpha" type="matrix" values="0 0 0 0 0 0 0 0 0 0 0 0 0 0 0 0 0 0 127 0"/>
<feOffset dy="4"/>
<feGaussianBlur stdDeviation="20"/>
<feColorMatrix type="matrix" values="0 0 0 0 1 0 0 0 0 1 0 0 0 0 1 0 0 0 0.5 0"/>
<feBlend mode="normal" in2="BackgroundImageFix" result="effect1_dropShadow"/>
<feBlend mode="normal" in="SourceGraphic" in2="effect1_dropShadow" result="shape"/>
</filter>
<filter id="filter2_d" x="0.927002" y="147.865" width="505.592" height="186.501" filterUnits="userSpaceOnUse" color-interpolation-filters="sRGB">
<feFlood flood-opacity="0" result="BackgroundImageFix"/>
<feColorMatrix in="SourceAlpha" type="matrix" values="0 0 0 0 0 0 0 0 0 0 0 0 0 0 0 0 0 0 127 0"/>
<feOffset dy="4"/>
<feGaussianBlur stdDeviation="2"/>
<feColorMatrix type="matrix" values="0 0 0 0 0 0 0 0 0 0 0 0 0 0 0 0 0 0 0.25 0"/>
<feBlend mode="normal" in2="BackgroundImageFix" result="effect1_dropShadow"/>
<feBlend mode="normal" in="SourceGraphic" in2="effect1_dropShadow" result="shape"/>
</filter>
<linearGradient id="paint0_linear" x1="356.622" y1="389.618" x2="356.622" y2="127.404" gradientUnits="userSpaceOnUse">
<stop stop-color="white"/>
<stop offset="1" stop-color="white" stop-opacity="0"/>
</linearGradient>
<linearGradient id="paint1_linear" x1="135.831" y1="133.94" x2="135.831" y2="306.151" gradientUnits="userSpaceOnUse">
<stop stop-color="white"/>
<stop offset="1" stop-color="white" stop-opacity="0"/>
</linearGradient>
</defs>
</svg>
