<svg width="274" height="99" viewBox="0 0 274 99" fill="none" xmlns="http://www.w3.org/2000/svg">
<path d="M44.8147 55.6236C46.2332 55.0917 48.1837 54.3824 50.3115 53.1412C52.4392 51.9 53.6805 49.2402 55.099 47.999C56.5175 46.7578 62.7236 44.2754 62.7236 44.2754L63.4328 43.5661L66.2699 43.0342L67.1565 43.9208C67.1565 43.9208 66.8018 44.2754 67.1565 44.4527C67.5111 44.63 68.043 44.4527 67.8657 44.8073C67.8657 45.162 68.043 47.1124 67.8657 47.4671C67.6884 47.8217 67.5111 48.3537 67.3338 49.0629C67.1565 49.7722 66.4472 50.3041 66.4472 50.4815C66.6245 50.6588 66.2699 51.0134 66.0926 50.6588C65.9152 50.3041 64.1421 51.9 64.1421 51.9L62.9009 55.0917L58.9999 60.5885L54.9217 63.0709L50.6661 65.0214L48.0063 66.2626L45.5239 67.1492L41.4457 67.8584H39.4952L36.8354 66.0853L35.5942 64.8441L33.1118 64.1348C33.1118 64.1348 31.3386 63.9575 31.1613 63.9575C30.984 63.9575 29.2109 63.9575 29.2109 63.9575L23.7141 66.2626L19.1038 68.9223L11.4793 74.9511L7.40098 78.6747C7.40098 78.6747 5.62783 78.6747 5.45051 78.6747C5.27319 78.6747 4.03198 78.1428 3.67735 77.9654C3.32272 77.7881 2.25882 77.6108 2.25882 77.2562C2.25882 77.0788 2.43614 76.7242 2.25882 76.1923C2.08151 75.6603 1.90419 75.3057 2.25882 74.4191C2.61346 73.5325 2.25882 73.1779 2.96808 72.2913C3.67735 71.4047 8.11025 65.7306 8.6422 65.1987C9.17414 64.6667 15.0256 59.5246 15.3802 58.638C15.7348 57.7514 19.1038 54.0278 21.4089 52.9639C23.7141 51.9 25.1326 52.0773 25.8418 52.2546C26.5511 52.4319 35.2396 54.3824 36.4808 54.5597C37.722 54.737 41.623 55.0917 43.0415 54.9144C44.1054 55.269 44.8147 55.6236 44.8147 55.6236Z" fill="white"/>
<path d="M195.356 9.87612L185.071 8.81223L168.404 8.45759L164.857 8.6349L162.73 8.10296C162.73 8.10296 161.311 6.3298 161.311 6.15249C161.311 5.97517 161.134 4.20201 161.134 3.84737C161.134 3.49274 161.488 2.42884 161.666 2.25153C161.843 2.07421 163.794 1.54226 163.971 1.54226C164.148 1.54226 171.773 0.833008 171.773 0.833008H178.511L187.022 1.54226L198.37 3.31542L204.222 4.37933L212.378 6.15249L213.974 7.21638L213.442 8.28027C213.442 8.28027 212.378 8.98954 211.669 9.16685C210.96 9.52149 208.477 10.2307 208.477 10.2307L205.285 10.5854H201.207L197.661 10.2307L195.356 9.87612Z" fill="white"/>
<path d="M266.637 89.4911C266.637 88.7818 266.46 88.2498 266.105 87.7179C265.928 87.3633 266.814 90.3776 266.46 90.5549C266.105 90.7322 265.396 89.8457 265.396 90.023C265.396 90.2003 265.218 90.5549 265.218 90.7323C265.218 90.9096 265.041 90.2003 265.041 90.5549C264.864 90.9096 264.332 90.5549 263.977 90.7323C263.977 90.2003 263.623 89.8457 263.268 89.4911C262.381 88.4272 261.318 87.5406 260.076 86.8313C258.835 86.122 257.594 85.7674 256.175 85.7674C255.998 85.7674 255.821 85.7674 255.466 85.7674C255.111 85.9447 254.934 86.122 254.934 86.654C254.934 87.0086 255.289 87.3633 255.466 87.3633C255.643 87.3633 255.643 87.3633 255.821 87.3633C257.417 87.186 258.835 87.8952 260.076 88.7818C260.786 89.3137 261.495 90.023 262.204 90.7323C262.381 90.9096 262.559 91.0869 262.736 91.4415C262.381 91.6188 262.204 91.7962 261.849 91.7962C260.431 92.3281 259.012 92.86 257.417 93.2147C256.707 93.392 255.998 93.5693 255.111 93.7466C253.87 93.9239 252.629 94.2786 251.388 94.4559C250.147 94.6332 248.905 94.8105 247.664 94.9878C246.778 95.1651 245.891 95.3425 244.827 95.5198C243.941 95.6971 243.231 95.8744 242.345 96.0517C240.749 96.4064 239.33 96.4064 237.734 96.4064C234.011 96.0517 230.287 95.1652 226.564 94.2786C224.436 93.7466 222.308 93.2147 220.18 92.6827C218.939 92.3281 217.698 91.7961 216.457 91.4415C213.797 90.3776 211.137 89.3137 208.477 88.0725C206.704 87.1859 204.931 86.2993 203.158 85.2355C201.562 84.3489 199.966 83.6396 198.37 82.5757C195.888 81.1572 193.583 79.7387 191.278 78.3201C189.859 77.4336 188.441 76.547 187.022 75.6604C184.894 74.4192 182.944 73.0007 180.816 71.5821C180.461 71.4048 180.107 71.2275 179.752 70.8729C179.398 70.6956 178.866 70.8729 178.688 71.2275C178.511 71.5821 178.511 71.9368 178.866 72.2914C179.22 72.4687 179.398 72.646 179.752 72.8233C182.412 74.4192 184.894 76.1923 187.554 77.7882C187.731 77.7882 187.731 77.9655 187.909 78.1428C186.845 79.2067 185.781 80.2706 184.717 81.1572C184.54 81.1572 184.54 81.1572 184.54 80.9799C184.185 80.4479 183.83 80.4479 183.298 80.8026C182.944 80.9799 182.589 81.1572 182.235 81.5118C180.639 82.3984 178.866 83.1077 176.915 83.6396C175.319 84.1716 173.723 84.5262 171.95 84.7035C169.822 85.0582 167.695 85.2355 165.567 85.4128C163.971 85.5901 162.198 85.5901 160.425 85.7674C158.829 85.7674 157.233 85.7674 155.46 85.7674C153.155 85.7674 151.027 85.7674 148.722 85.7674C146.949 85.7674 145.176 85.5901 143.402 85.5901C141.629 85.5901 139.856 85.4128 137.906 85.4128C136.487 85.4128 135.246 85.2355 133.827 85.2355C132.586 85.0581 131.345 85.0581 130.104 84.8808C129.749 84.8808 129.394 84.7035 128.862 84.7035C127.976 84.5262 127.267 84.5262 126.38 84.3489C125.848 84.3489 125.316 84.1716 124.784 83.9942C123.366 83.8169 122.124 83.6396 120.706 83.285C117.514 82.5757 114.5 81.6891 111.308 80.9799C108.648 80.2706 106.166 79.5613 103.506 78.6748C102.62 78.3201 101.556 77.9655 100.492 77.6109C99.7827 77.4336 99.428 77.4336 99.2507 77.9655C99.0734 78.3201 99.2507 78.8521 99.96 79.0294C99.7827 79.5613 99.428 80.0933 99.0734 80.6253C99.2507 80.4479 99.2507 80.4479 99.2507 80.2706C99.428 79.916 99.2507 79.5614 98.8961 79.384C98.5415 79.2067 98.0095 79.2067 97.8322 79.5613C96.7683 80.9799 95.1725 81.8665 93.7539 82.9304C91.9808 84.1716 90.0303 85.2355 88.0798 86.122C87.0159 86.654 85.952 87.0086 84.8881 87.1859C83.8242 87.5406 82.7603 87.7179 81.5191 87.8952C79.214 88.2498 76.9089 88.2498 74.4265 88.2498C70.8802 88.2498 67.3338 88.0725 63.9648 87.5406C62.1917 87.3633 60.4185 87.1859 58.8227 86.8313C56.3403 86.4767 54.0351 85.5901 51.73 84.7035C49.0703 83.6396 46.4106 82.3984 43.7508 81.5118C41.4457 80.8026 39.3179 80.2706 37.0128 79.916C35.9489 79.7387 34.885 79.916 33.9984 80.0933C32.2253 80.4479 30.4521 81.1572 28.8563 82.0438C26.5512 83.1077 24.4234 84.3489 22.2956 85.7674C21.0544 86.654 19.8132 87.5406 18.3946 88.4271C16.9761 89.3137 15.7349 90.3776 14.3164 91.4415C13.0752 92.3281 11.834 93.392 10.7701 94.2786C10.2381 94.6332 9.70616 95.1652 9.17421 95.3425C8.11031 95.8744 7.04642 96.0517 5.98252 95.6971C4.91863 95.5198 4.20937 94.8105 3.5001 94.1012C2.61352 93.2147 1.90426 92.1508 1.19499 91.0869C0.485728 90.023 0.485733 88.7818 0.840365 87.5406C1.37231 85.7674 2.25889 84.3489 3.14547 82.753C4.74132 80.4479 6.51447 78.6748 8.28763 76.7243C9.17421 76.015 9.88348 75.1285 10.7701 74.4192C11.6566 73.5326 12.7205 72.8233 13.6071 72.1141C14.8483 71.2275 16.2669 70.1636 17.5081 69.277C19.4585 68.0358 21.409 66.9719 23.5368 65.908C24.2461 65.5534 25.1327 65.1988 25.8419 64.8441C26.7285 64.4895 27.4378 64.1349 28.3243 64.1349C29.2109 63.9575 29.9202 63.9576 30.8068 63.9576C32.4026 63.9576 33.6438 64.6668 34.885 65.5534C35.7716 66.0853 36.4809 66.6173 37.3675 67.1492C38.786 68.0358 40.2045 68.0358 41.8004 67.8585C42.5096 67.6812 43.0416 67.5039 43.7508 67.5039C44.2828 67.3266 44.8147 67.3265 45.3467 67.1492C47.4745 66.44 49.4249 65.7307 51.3754 64.6668C52.7939 63.9576 54.2125 63.2483 55.631 62.3617C57.0495 61.4751 58.6454 60.4112 59.7093 59.17C60.9505 57.5742 61.8371 55.9783 62.7236 54.3825C63.0783 53.4959 63.6102 52.6093 64.1422 51.5454C64.1422 51.3681 64.3195 51.1908 64.4968 51.1908C65.0287 51.1908 65.3834 50.8362 65.9153 50.6589C66.9792 49.9496 67.6885 49.063 68.0431 47.8218C68.2204 47.1125 68.2204 46.5806 68.0431 45.8713C67.8658 45.5167 68.0431 45.1621 68.2204 44.8074C68.9297 43.7435 69.6389 42.6796 70.5255 41.7931C71.2348 40.7292 72.2987 40.0199 73.3626 39.1333C75.845 37.5375 78.3274 36.4736 81.1645 35.587C82.0511 35.2324 82.7603 35.055 83.6469 34.7004C85.2428 34.3458 87.0159 33.8138 88.7891 33.4592C89.853 33.2819 91.0942 33.1046 92.1581 32.9273C92.8673 32.7499 93.5766 32.7499 94.2859 32.7499C96.591 32.7499 99.0734 32.9273 101.379 33.1046C102.797 33.2819 104.038 33.2819 105.457 33.4592C106.521 33.6365 107.585 33.6365 108.648 33.8138C109.18 33.9911 109.712 33.9911 110.244 33.9911C110.599 33.9911 110.954 34.1685 111.486 34.1685C112.195 34.1685 112.904 34.3458 113.613 34.3458C114.145 34.3458 114.677 34.5231 115.209 34.7004C118.046 35.055 120.706 35.4097 123.543 35.7643C126.203 36.1189 128.862 36.4736 131.522 36.6509C135.069 37.0055 138.438 37.0055 141.984 37.0055C143.934 37.0055 145.707 36.8282 147.658 36.8282C149.963 36.6509 152.268 36.6509 154.573 36.4736C156.346 36.2963 158.12 36.1189 159.893 35.7643C160.779 35.587 161.666 35.4097 162.553 35.2324C164.68 34.7004 166.985 33.9911 169.113 33.4592C170.886 32.9272 172.837 32.3953 174.61 32.0407C176.738 31.686 178.866 30.9768 180.993 30.2675C181.703 30.0902 182.412 29.9129 182.944 29.7356C183.83 29.3809 183.83 29.2036 183.653 28.317V28.1397C183.83 28.1397 184.008 27.9624 184.008 27.9624C184.894 27.6078 185.604 27.2531 186.49 26.8985C187.199 26.7212 187.199 26.5439 187.199 25.8346V25.6573C187.377 25.6573 187.554 25.48 187.731 25.48C189.505 25.3027 191.455 25.1254 193.228 24.948C193.405 24.948 193.406 24.948 193.583 24.948C194.824 24.948 196.065 25.1253 197.129 25.1253C197.661 25.1253 198.193 25.48 198.725 25.48C199.08 25.6573 199.434 25.48 199.612 25.1253C199.789 24.7707 199.789 24.2388 199.257 24.0615C198.725 23.7068 198.016 23.5295 197.484 23.5295C196.597 23.5295 195.888 23.3522 195.001 23.3522C193.405 23.3522 191.81 23.3522 190.214 23.5295C189.505 23.5295 188.618 23.7068 187.909 23.8841C186.49 24.0615 185.072 24.0615 183.83 24.0615C181.703 23.8841 179.575 23.8841 177.447 23.7068C175.319 23.5295 173.191 23.1749 170.886 22.8202C168.404 22.4656 166.099 21.9337 163.616 21.2244C162.021 20.6925 160.425 20.1605 159.006 19.4512C157.942 19.0966 157.056 18.3873 156.169 17.8554C155.637 17.5008 155.105 16.9688 154.573 16.4369C154.219 16.0822 154.041 15.5503 153.864 15.1957C153.687 14.6637 153.864 14.1318 154.396 13.7771C154.928 13.4225 155.46 12.8905 155.992 12.7132C157.056 12.004 158.12 11.472 159.361 11.1174C159.715 10.9401 160.07 10.7628 160.425 10.5854C160.779 10.4081 161.311 10.4081 161.666 10.2308C162.73 9.87617 163.794 9.69886 164.858 9.52154C167.517 8.98959 170.177 8.63496 172.837 8.63496C174.787 8.63496 176.915 8.45764 178.866 8.63496C181.348 8.81228 184.008 8.9896 186.49 9.16691C188.795 9.34423 191.278 9.69886 193.583 10.0535C195.888 10.4081 198.193 10.9401 200.498 11.2947C201.739 11.6493 203.158 11.6493 204.399 11.472C205.463 11.2947 206.704 10.9401 207.768 10.7628C209.541 10.4081 211.137 9.87617 212.91 9.34423C214.861 8.81228 216.989 8.63496 219.116 8.63496C221.421 8.63496 223.727 8.81228 225.854 9.16691C228.514 9.52154 231.174 10.0535 233.834 10.4081C235.429 10.7628 237.203 11.1174 238.798 11.472C240.572 12.004 242.167 12.7132 243.763 13.5998C245.182 14.4864 246.6 15.1957 247.841 16.0822C249.437 17.3235 251.21 18.5647 252.629 19.9832C253.87 21.0471 255.111 22.2883 256.175 23.3522C257.239 24.4161 258.303 25.6573 259.19 26.7212C259.544 27.2531 260.076 27.7851 260.431 28.317C260.963 29.2036 261.495 29.9129 261.672 30.9768C261.672 31.3314 261.672 31.5087 261.672 31.8634C260.431 32.0407 259.367 32.3953 258.303 32.218C257.594 32.0407 256.885 31.8634 256.353 31.5087C256.353 31.5087 256.175 31.5087 256.175 31.3314C254.934 30.7995 253.693 30.4448 252.452 29.9129C251.92 29.7356 251.565 29.9129 251.388 30.4448C251.21 30.9768 251.388 31.3314 251.92 31.5087C252.806 31.8634 253.516 32.0407 254.402 32.3953C254.934 32.5726 255.643 32.7499 256.175 33.1046C256.885 33.4592 257.771 33.6365 258.658 33.8138C258.835 33.8138 259.19 33.8138 259.367 33.8138C260.076 33.8138 260.786 33.6365 261.495 33.6365C261.495 34.1685 261.318 34.7004 260.963 35.055C260.608 35.9416 260.076 36.8282 259.722 37.7148C259.19 38.7787 258.48 39.8426 257.771 40.7292C257.239 41.4384 256.707 41.9704 255.998 42.6796C254.58 44.0982 253.161 45.1621 251.388 46.226C249.792 47.1125 248.373 47.9991 246.6 48.5311C245.891 48.7084 245.359 49.063 244.65 49.2403C244.118 49.4176 243.586 49.595 242.877 49.7723C241.458 50.1269 240.04 50.4815 238.621 50.8362C237.025 51.1908 235.429 51.3681 233.834 51.7227C231.174 52.0774 228.514 52.2547 225.854 52.2547C224.258 52.2547 222.84 52.0774 221.244 52.0774C220.889 52.0774 220.535 52.0774 220.358 52.432C220.003 52.7866 220.18 53.3186 220.535 53.4959C220.712 53.6732 221.067 53.6732 221.421 53.8505H221.776C221.776 54.5598 221.421 54.9144 221.244 55.2691C221.421 54.9144 221.421 54.5598 221.244 54.3825C220.889 54.0279 220.358 53.8505 220.003 54.2052C219.116 54.9144 218.407 55.6237 217.52 56.333C216.279 57.3969 214.861 58.4607 213.265 58.9927C212.378 59.3473 211.492 59.3473 210.605 59.5247C209.719 59.702 208.832 59.702 208.123 60.0566C207.945 60.0566 207.768 60.2339 207.591 60.2339C206.882 60.2339 206.527 60.5885 205.818 60.7659C205.64 60.7659 205.463 60.9432 205.463 60.9432C204.931 60.9432 204.576 61.2978 204.222 61.6524C203.867 62.0071 204.044 62.539 204.576 62.7163C204.754 62.8936 204.931 62.8937 205.286 62.8937C205.286 63.4256 205.64 63.7802 205.995 63.9576C207.945 65.7307 210.073 67.3265 212.201 68.9224C214.151 70.3409 216.102 71.7594 218.23 73.178C220.712 74.9511 223.372 76.547 226.032 77.6109C229.223 79.0294 232.415 79.916 235.784 80.2706C238.089 80.6253 240.572 80.6253 242.877 80.6253C243.941 80.4479 245.004 80.4479 246.068 80.2706C248.551 79.916 251.033 79.7387 253.516 79.916C254.579 80.0933 255.821 80.2706 256.885 80.4479C258.303 80.8026 259.544 81.1572 260.963 81.5118C262.381 82.0438 263.977 82.2211 265.218 83.1077C265.75 83.8169 265.928 85.0581 266.105 85.7674C266.992 87.5406 266.814 88.7818 266.637 89.4911Z" fill="white"/>
<path d="M263.623 30.7994C263.445 30.0901 263.268 29.3808 262.736 28.6716C262.204 27.9623 261.849 27.2531 261.317 26.5438C259.722 24.5933 257.948 22.6428 255.998 20.8697C254.225 19.0965 252.274 17.5007 250.147 15.9048C249.437 15.3729 248.728 15.0183 248.019 14.4863C247.309 14.1317 246.6 13.5997 245.891 13.2451C244.472 12.3585 243.054 11.8266 241.635 11.1173C239.685 10.2307 237.38 9.87608 235.252 9.52145C233.479 9.16682 231.883 8.81219 230.11 8.63487C227.273 8.28024 224.436 7.92561 221.599 7.74829C219.648 7.74829 217.52 7.7483 215.57 7.92562C215.393 7.92562 215.215 7.92561 214.861 8.10293H214.329C214.683 7.03903 214.506 6.86172 213.442 6.50708C212.201 6.15245 210.782 5.62051 209.541 5.26588C207.413 4.73393 205.286 4.20198 203.158 3.67003C201.03 3.13808 199.08 2.78345 196.952 2.2515C195.888 2.07418 194.824 1.89687 193.583 1.71956C193.051 1.71956 192.696 1.54223 192.164 1.36492C190.746 1.1876 189.504 1.01029 188.086 0.832979C186.49 0.655663 184.717 0.655655 183.121 0.478339C181.88 0.478339 180.639 0.301025 179.22 0.301025C177.092 0.301025 174.965 0.301025 173.014 0.301025C171.064 0.301025 169.113 0.478336 167.163 0.655652C166.099 0.832968 165.035 0.832976 163.971 1.01029C162.907 1.01029 162.021 1.36492 161.134 1.89687C160.07 2.60614 159.715 3.67003 159.893 4.91124C159.893 5.97513 160.425 6.86171 161.311 7.57098C161.666 7.92561 162.198 8.10293 162.73 8.45756C162.73 8.45756 162.907 8.63487 163.084 8.63487V8.8122C162.907 8.8122 162.907 8.81219 162.73 8.98951C162.198 9.16683 161.489 9.34413 160.957 9.52145C160.602 9.69877 160.07 9.69877 159.715 9.87609C158.652 10.2307 157.41 10.7627 156.524 11.2946C155.637 11.8266 154.751 12.3585 154.041 12.8905C153.332 13.4224 152.977 14.1317 152.977 15.0183C152.977 16.0822 153.509 16.9687 154.219 17.8553C154.928 18.7419 155.992 19.4511 157.056 20.1604C158.829 21.047 160.602 21.9336 162.375 22.4655C165.39 23.5294 168.581 24.2387 171.773 24.7706C173.546 25.1253 175.497 25.3026 177.447 25.4799C179.752 25.8345 181.88 25.8345 184.185 26.0118C184.54 26.0118 184.894 26.0118 185.249 26.0118C185.249 26.0118 185.426 26.0118 185.604 26.0118V26.1892C185.249 26.3665 185.072 26.5438 184.717 26.5438C183.83 26.8984 183.121 27.2531 182.235 27.4304C181.348 27.785 181.348 27.9623 181.525 28.8489C181.525 28.8489 181.348 29.0262 181.171 29.0262C179.397 29.5582 177.624 30.0901 175.851 30.4447C173.191 31.154 170.709 31.6859 168.049 32.3952C166.631 32.7498 165.035 33.1045 163.616 33.6364C162.021 33.9911 160.425 34.3457 158.652 34.7003C156.346 35.055 153.864 35.2323 151.559 35.2323C149.963 35.2323 148.19 35.4096 146.417 35.4096C144.289 35.4096 141.984 35.5869 139.856 35.5869C137.551 35.5869 135.068 35.4096 132.763 35.4096C131.699 35.4096 130.458 35.2323 129.394 35.2323C126.203 34.8776 123.011 34.523 119.819 34.1684C118.401 33.9911 116.982 33.8138 115.741 33.6364C115.032 33.6364 114.145 33.4591 113.436 33.2818C112.195 33.1045 110.954 32.9272 109.712 32.9272C107.939 32.7499 106.166 32.5725 104.393 32.3952C101.378 32.2179 98.1868 31.8633 94.9951 31.8633C94.9951 31.8633 94.8178 31.8633 94.6404 31.6859C94.6404 31.6859 94.6404 31.5086 94.8178 31.5086C96.2363 30.7994 97.8321 30.2674 99.428 29.9128C101.024 29.7355 102.62 29.3808 104.038 29.2035C104.393 29.2035 104.925 29.2035 105.457 29.2035C106.521 29.2035 107.762 29.0262 108.826 29.2035C109.18 29.2035 109.535 29.2035 110.067 29.2035C111.131 29.2035 112.195 29.3808 113.259 29.3808C113.791 29.3808 114.145 29.5582 114.677 29.5582C115.386 29.5582 115.741 29.2035 115.564 28.4943C115.564 28.1396 115.386 27.785 115.209 27.4304C114.5 25.8345 113.613 24.416 112.372 22.9975C110.422 20.8697 108.116 19.0965 105.634 17.678C103.506 16.6141 101.201 15.7275 98.896 15.0183C97.4775 14.6636 95.8816 14.309 94.4631 14.1317C91.9807 13.777 89.4983 13.5997 87.0159 13.5997C85.5973 13.5997 84.1788 13.9544 82.7603 14.309C81.3417 14.6636 79.7459 15.1956 78.3274 15.7275C77.6181 15.9048 77.0862 16.2595 76.3769 16.6141C75.8449 16.9687 75.313 17.146 74.6037 17.5007C74.4264 17.678 74.0718 17.8553 73.8945 18.0326C73.5398 18.3873 73.0079 18.5646 72.6533 18.9192C72.1213 19.4512 71.4121 19.8058 70.8801 20.3377C70.1708 20.8697 69.6389 21.5789 69.1069 22.2882C67.8657 23.8841 66.8018 25.8345 66.2699 27.785C65.7379 29.3808 65.5606 31.154 65.5606 32.7499C65.5606 33.8138 65.5606 34.8776 65.5606 36.1188C65.5606 36.4735 65.7379 36.8281 65.9153 37.3601C66.2699 38.7786 66.6245 40.1971 66.8018 41.793C66.8018 42.3249 66.8018 42.8569 66.6245 43.3888C66.4472 44.0981 66.6245 44.2754 67.1565 44.63L67.3338 44.8073C67.3338 45.162 67.1565 45.3393 67.1565 45.6939C67.1565 45.8712 67.3338 46.2259 67.3338 46.5805C67.5111 47.4671 67.3338 48.3537 66.6245 49.2402C66.4472 48.8856 66.6245 48.8856 66.6245 48.7083C66.8018 48.1763 66.6245 47.8217 66.2699 47.6444C65.9153 47.4671 65.5606 47.6444 65.206 47.999C65.206 48.1763 65.0287 48.1763 65.0287 48.3537C64.3194 49.7722 63.7875 51.368 63.0782 52.7866C62.3689 54.3824 61.4824 55.8009 60.5958 57.2195C59.5319 58.8153 58.2907 60.0565 56.6948 60.9431C55.4536 61.6523 54.0351 62.5389 52.7939 63.2482C51.3753 63.9575 49.9568 64.4894 48.5383 65.1987C47.1198 65.7306 45.5239 66.2626 43.9281 66.6172C42.8642 66.7945 41.8003 66.9718 40.7364 66.7945C40.2044 66.7945 39.8498 66.4399 39.3179 66.2626C38.4313 65.7306 37.722 65.1987 36.8354 64.6667C36.1262 64.1348 35.0623 63.7801 34.1757 63.4255C32.7572 63.0709 31.3386 63.0709 29.9201 63.4255C28.8562 63.6028 27.7923 63.9575 26.7284 64.3121C26.0192 64.4894 25.3099 64.844 24.6006 65.1987C23.7141 65.5533 22.8275 65.9079 21.9409 66.4399C19.9904 67.5038 18.0399 68.5677 16.2668 69.9862C14.4936 71.2274 12.7205 72.6459 10.9473 74.0645C9.52878 75.3057 8.28757 76.5469 7.04636 77.7881C6.86905 77.9654 6.69173 78.1427 6.3371 78.1427C5.98246 78.1427 5.62783 78.1427 5.2732 78.3201C4.91857 78.4974 4.38662 78.3201 3.85467 78.3201C3.32272 78.3201 2.96809 77.7881 2.79078 77.4335C2.61346 77.0788 2.61346 76.5469 2.61346 76.1923C2.61346 75.8376 2.61346 75.3057 2.79078 74.951C2.96809 74.2418 3.32272 73.7098 3.67736 73.1779C4.38662 72.2913 5.09588 71.4047 5.80515 70.3408C7.04636 68.5677 8.6422 66.9718 10.0607 65.376C12.3658 62.8936 14.6709 60.5885 16.9761 58.106C17.8626 57.2195 18.5719 56.3329 19.6358 55.6236C20.877 54.737 22.2955 53.8504 23.8914 53.8504C25.1326 53.8504 26.3738 54.0278 27.615 54.5597C28.5016 54.9143 29.2109 55.269 30.0974 55.4463C32.4025 56.1556 34.5303 56.5102 37.0128 56.6875C40.3818 56.8648 43.7508 56.8648 46.9425 56.1556C47.829 55.9782 48.8929 55.6236 49.7795 55.269C50.8434 54.737 51.73 54.0278 52.7939 53.3185C54.0351 52.2546 54.9217 51.0134 55.8083 49.5949C56.1629 49.0629 56.5175 48.7083 57.0495 48.531C57.5814 48.1763 58.1133 47.8217 58.8226 47.6444C59.3546 47.4671 59.8865 47.2898 60.4185 47.1124C61.6597 46.7578 65.7379 45.3393 66.8018 44.9846C67.3338 44.8073 67.5111 44.63 67.5111 44.0981C67.5111 43.5661 67.1565 43.3888 66.6245 43.3888H66.4472C65.0287 43.9208 60.7731 45.3393 59.3546 45.6939C58.468 46.0485 57.5814 46.4032 56.6948 46.9351C55.6309 47.4671 54.7444 48.1763 54.2124 49.2402C54.0351 49.5949 53.6805 49.9495 53.5031 50.4815C53.1485 50.8361 52.7939 51.368 52.4392 51.7227C52.2619 51.9 52.0846 51.9 52.0846 52.0773C51.73 52.4319 51.198 52.7866 50.8434 53.1412C50.4888 53.3185 50.1341 53.4958 49.7795 53.6731C48.8929 54.0278 48.0063 54.3824 47.1198 54.737C46.5878 54.9143 46.0559 54.9143 45.7012 55.0917C43.7508 55.269 41.8003 55.4463 39.8498 55.4463C37.8993 55.4463 35.9489 55.269 33.9984 54.9144C32.2252 54.5597 30.6294 54.2051 29.0335 53.4958C27.4377 52.7866 25.6645 52.4319 23.8914 52.7866C22.4729 52.9639 21.0543 53.6731 19.8131 54.5597C19.1038 55.0917 18.3946 55.8009 17.6853 56.3329C16.6214 57.3968 15.3802 58.4607 14.3163 59.7019C12.5432 61.6524 10.5927 63.6028 8.81952 65.5533C8.28757 66.0853 7.75562 66.7945 7.22367 67.3265C5.80515 69.0996 4.2093 70.8728 2.96809 72.8233C2.61346 73.5325 2.08151 74.4191 1.72688 75.1284C1.72688 75.483 1.54956 75.6603 1.54956 76.0149C1.54956 77.2561 1.54957 78.3201 2.25883 79.384C2.96809 80.2705 4.03199 80.6252 5.09588 80.6252H5.2732C5.2732 80.6252 5.2732 80.6252 5.45052 80.6252C5.45052 80.8025 5.2732 80.8025 5.2732 80.9798C4.20931 82.221 3.32272 83.6395 2.43614 85.0581C1.72688 86.2993 1.19493 87.7178 0.840303 89.3136C0.662987 90.2002 0.662982 91.2641 1.19493 92.1507C1.37225 92.5053 1.54956 92.86 1.9042 93.2146C2.79078 94.4558 3.67736 95.8743 4.91857 96.7609C5.80515 97.4702 6.69173 97.8248 7.75562 98.1794C8.6422 98.3568 9.52878 98.3568 10.4154 98.1794C10.9473 98.0021 11.3019 97.8248 11.8339 97.6475C12.5432 97.2929 13.2524 96.9382 13.9617 96.4063C14.139 96.229 14.4936 96.0517 14.8483 95.697C15.3802 95.3424 15.9122 94.8104 16.6214 94.4558C17.6853 93.5692 18.7492 92.86 19.9904 91.9734C21.0543 91.2641 22.1182 90.3775 23.1821 89.6683C24.246 88.959 25.4872 88.0724 26.5511 87.3632C27.7923 86.6539 29.2109 85.7673 30.4521 85.0581C31.516 84.5261 32.5799 83.9942 33.6438 83.4622C34.7077 82.9303 35.7715 82.753 37.0128 82.3983C37.8993 82.221 38.7859 82.221 39.8498 82.3983C40.7364 82.5756 41.8003 82.753 42.6869 82.9303C43.2188 83.1076 43.7508 83.2849 44.2827 83.4622C46.5878 84.1715 48.8929 85.0581 51.198 86.1219C53.3258 87.0085 55.4536 87.8951 57.5814 88.6044C58.468 88.7817 59.3546 88.959 60.2411 89.1363C60.9504 89.3137 61.6597 89.491 62.5462 89.491C64.8514 89.8456 67.1565 90.0229 69.4616 90.3775C72.1213 90.7322 74.7811 90.7322 77.4408 90.7322C78.682 90.7322 80.1005 90.7322 81.5191 90.5548C83.4695 90.3775 85.5973 90.2002 87.5478 89.6683C89.8529 89.1363 91.9807 88.2497 93.9312 87.0085C95.1724 86.2993 96.4136 85.59 97.6548 84.7034C98.896 83.8169 101.556 81.3344 102.442 80.0932C102.62 79.9159 102.62 79.7386 102.797 79.5613C102.797 79.5613 102.797 79.5613 102.797 79.384C102.797 79.2066 102.797 79.0293 102.797 78.852C102.797 78.6747 102.62 78.6747 102.62 78.6747C102.265 78.4974 101.91 78.4974 101.556 78.852C101.378 79.2066 101.024 79.5613 100.669 79.7386C100.492 80.0932 98.7187 82.0437 98.3641 82.3983C98.0094 82.5756 97.6548 82.9303 97.3002 83.1076C96.9456 83.2849 96.5909 83.6395 96.2363 83.8169C95.8816 83.9942 95.7043 84.1715 95.3497 84.3488C94.2858 85.0581 93.2219 85.7673 91.9807 86.2993C91.4488 86.6539 91.0941 86.8312 90.5622 87.0085C90.0302 87.1858 89.4983 87.3632 88.9663 87.5405C88.4344 87.7178 87.9024 87.8951 87.3705 87.8951C86.3066 88.0724 85.2427 88.4271 84.0015 88.4271C81.6964 88.7817 79.3913 88.7817 76.9089 88.7817H75.8449C74.4264 88.7817 72.8306 88.7817 71.412 88.6044C71.2347 88.6044 71.0574 88.6044 70.8801 88.6044C69.4616 88.6044 67.8657 88.4271 66.4472 88.2498C64.674 88.0724 62.9009 87.8951 61.305 87.5405C60.7731 87.3632 60.0638 87.3632 59.5319 87.1859C57.7587 86.8312 55.9856 86.122 54.3897 85.4127C53.6805 85.2354 53.1485 84.8807 52.4392 84.5261C51.198 83.9942 49.7795 83.4622 48.361 82.9303C47.6517 82.753 46.9424 82.3983 46.4105 82.221C44.8147 81.689 43.0415 81.1571 41.2683 80.9798C40.7364 80.8025 40.0271 80.8025 39.4952 80.8025C38.4313 80.6252 37.5447 80.8025 36.4808 80.9798C35.2396 81.3344 33.8211 81.6891 32.5799 82.3983C32.2252 82.5756 31.6933 82.753 31.3386 82.9303C30.2747 83.4622 29.2109 84.1715 27.9696 84.7034C26.9057 85.4127 25.8419 85.9446 24.778 86.6539C23.5367 87.5405 22.2955 88.4271 21.0543 89.3136C19.6358 90.2002 18.3946 91.2641 16.9761 92.328C15.7348 93.2146 14.4936 94.2785 13.2524 95.1651C12.7205 95.5197 12.1885 96.0517 11.6566 96.229C10.5927 96.7609 9.52878 96.9382 8.46489 96.5836C7.57831 96.4063 6.69173 95.8743 5.98246 94.9877C5.62783 94.6331 5.09588 94.1012 4.74125 93.5692C4.38662 93.0373 4.03199 92.5053 3.67736 91.9734C3.32272 91.2641 2.96809 90.5549 2.96809 89.8456C2.96809 89.3136 2.96809 88.959 3.14541 88.4271C3.67736 86.6539 4.56394 85.2354 5.45052 83.6395C6.86904 81.5117 8.81952 79.5613 10.5927 77.6108C11.3019 76.9015 12.1885 76.015 13.0751 75.3057C13.9617 74.5964 14.8483 73.7098 15.9122 73.0006C17.1534 72.114 18.5719 71.2274 19.8131 70.3408C21.7636 69.0996 23.7141 68.0357 25.8419 66.9718C26.5511 66.6172 27.4377 66.2626 28.147 65.9079C29.0335 65.7306 29.7428 65.376 30.6294 65.1987C30.984 65.1987 31.3386 65.0214 31.8706 65.0214C32.2252 65.0214 32.7572 65.0214 33.1118 65.0214C34.7076 65.0214 35.9489 65.7306 37.1901 66.6172C38.0767 67.1491 38.7859 67.6811 39.6725 68.2131C41.091 69.0996 42.5096 69.0996 44.1054 68.9223C44.6373 68.9223 45.3466 68.745 45.8786 68.5677C46.4105 68.3904 46.9425 68.3904 47.4744 68.2131C49.6022 67.5038 51.5527 66.7945 53.5031 65.7306C54.9217 65.0214 56.3402 64.3121 57.7587 63.4255C59.1772 62.5389 60.7731 61.475 61.837 60.0565C63.0782 58.638 63.9648 56.8648 64.8514 55.269C65.206 54.3824 65.7379 53.4958 66.2699 52.4319C66.2699 52.4319 66.4472 52.2546 66.6245 52.2546C67.1565 52.2546 67.5111 51.9 67.8657 51.7227C68.043 51.5453 68.3977 51.368 68.575 51.1907C68.9296 50.8361 69.2843 50.3041 69.6389 49.7722C69.8162 49.5949 69.8162 49.2402 69.9935 48.8856C70.1708 48.1763 70.1708 47.6444 69.9935 46.9351C69.9935 46.5805 69.9935 46.2259 70.1708 45.8712C70.8801 44.8073 71.5894 43.9208 72.476 42.8569C73.1852 41.793 74.2491 41.0837 75.313 40.3744C77.7954 38.7786 80.2779 37.7147 83.1149 36.8281C84.0015 36.6508 84.7107 36.2962 85.5973 36.1188C87.1932 35.7642 88.9663 35.4096 90.7395 34.8776C91.8034 34.7003 92.8673 34.523 93.9312 34.3457C94.6404 34.3457 95.3497 34.1684 96.059 34.1684H96.9455C98.0094 34.1684 99.0733 34.1684 99.9599 34.1684C101.024 34.1684 102.088 34.3457 103.152 34.3457C103.861 34.3457 104.57 34.3457 105.279 34.523C105.989 34.523 106.521 34.7003 107.23 34.7003C107.939 34.7003 108.826 34.7003 109.535 34.8776C109.712 34.8776 110.067 34.8776 110.244 35.055C110.422 35.055 110.776 35.055 111.131 35.055C111.308 35.055 111.663 35.055 111.84 35.055C112.017 35.055 112.195 35.055 112.372 35.055C112.549 35.055 112.727 35.055 112.904 35.055C113.613 35.055 114.323 35.2323 115.032 35.2323C115.564 35.2323 116.096 35.4096 116.628 35.4096C119.287 35.7642 122.124 36.1189 124.784 36.4735C127.444 36.8281 130.104 37.0054 132.763 37.3601C136.31 37.5374 139.679 37.7147 143.225 37.5374C145.175 37.5374 146.949 37.3601 148.899 37.3601C149.963 37.3601 151.204 37.3601 152.268 37.1828C153.332 37.1828 154.573 37.1827 155.814 37.0054C156.701 37.0054 157.588 36.8281 158.474 36.6508C159.361 36.4735 160.247 36.2962 161.134 36.1188C162.021 35.9415 162.907 35.7642 163.794 35.5869C165.921 35.055 168.227 34.3457 170.354 33.8137C172.128 33.2818 174.078 32.7498 175.851 32.3952C176.383 32.3952 176.915 32.2179 177.447 32.0406C178.511 31.686 179.575 31.5086 180.639 31.154C181.171 30.9767 181.703 30.7994 182.235 30.7994C182.944 30.6221 183.476 30.4447 184.185 30.2674C184.894 30.0901 185.072 29.9128 184.894 29.2035C184.894 29.0262 184.894 29.0262 184.894 28.8489V28.6716C185.072 28.6716 185.072 28.4943 185.249 28.4943C186.135 28.1396 186.845 27.785 187.731 27.6077C188.263 27.4304 188.441 27.2531 188.441 26.5438V26.3665C188.618 26.3665 188.795 26.3665 188.973 26.3665C190.746 26.1892 192.696 26.0118 194.469 25.8345C194.647 25.8345 194.647 25.8345 194.824 25.8345C196.065 25.8345 197.306 25.8345 198.37 26.0118C198.902 26.0118 199.434 26.1892 199.966 26.3665C200.321 26.5438 200.675 26.3665 201.03 26.0118V25.8345C201.03 25.6572 201.03 25.4799 201.03 25.3026C201.03 25.3026 200.853 25.1253 200.675 25.1253C200.143 24.9479 199.434 24.5933 198.902 24.5933C198.193 24.5933 197.306 24.416 196.42 24.416C194.824 24.416 193.228 24.416 191.632 24.5933C190.923 24.5933 190.036 24.7706 189.327 24.9479C187.909 25.1253 186.49 25.1253 185.249 25.1253H185.072C183.121 25.1253 180.993 24.948 179.043 24.7706H178.866C176.738 24.5933 174.433 24.2387 172.305 23.8841C169.822 23.5294 167.34 22.9975 165.035 22.2882C163.439 21.7563 161.843 21.2243 160.425 20.6924C159.361 20.3377 158.474 19.6285 157.588 19.0965C157.056 18.7419 156.524 18.2099 155.992 17.678C155.637 17.3234 155.46 16.9687 155.283 16.4368C155.283 16.2595 155.283 16.2595 155.283 16.0821C155.283 15.9048 155.283 15.7275 155.46 15.5502C155.46 15.3729 155.637 15.1956 155.814 15.1956C156.346 14.8409 156.878 14.4863 157.41 14.1317C157.588 13.9544 157.942 13.777 158.297 13.777C158.652 13.5997 159.183 13.2451 159.538 13.0678C159.893 12.8905 160.247 12.7131 160.779 12.5358C161.134 12.3585 161.489 12.1812 161.843 12.0039C162.198 11.8266 162.73 11.8266 163.084 11.6493C163.616 11.4719 164.148 11.2946 164.68 11.2946C165.212 11.1173 165.744 11.1173 166.276 10.94C168.936 10.408 171.596 10.2307 174.433 10.0534C176.383 10.0534 178.334 10.0534 180.461 10.0534C182.944 10.0534 185.604 10.408 188.086 10.5854C190.391 10.7627 192.873 11.1173 195.356 11.4719C196.42 11.6493 197.661 11.8266 198.725 12.0039C199.789 12.1812 201.03 12.5358 202.271 12.7131C202.98 12.8905 203.867 12.8905 204.576 12.8905C205.108 12.8905 205.64 12.8905 205.995 12.7131C207.059 12.5358 208.3 12.1812 209.364 12.0039C209.719 12.0039 210.073 11.8266 210.428 11.8266C211.846 11.4719 213.087 11.1173 214.506 10.7627C215.925 10.408 217.52 10.2307 219.116 10.0534C219.648 10.0534 220.18 10.0534 220.712 10.0534C221.776 10.0534 223.017 10.0534 224.081 10.2307C225.145 10.2307 226.386 10.408 227.45 10.5854C228.691 10.7627 230.11 10.94 231.528 11.1173C232.77 11.2946 234.188 11.4719 235.607 11.8266C236.316 12.0039 237.202 12.1812 238.089 12.3585C238.976 12.5358 239.685 12.7131 240.571 12.8905C242.345 13.2451 243.94 14.1317 245.536 14.8409C246.955 15.5502 248.373 16.4368 249.615 17.3234C251.21 18.3873 252.984 19.8058 254.402 21.2243C255.643 22.2882 256.885 23.5294 257.948 24.5933C258.48 25.1253 259.012 25.6572 259.544 26.3665C260.076 26.8984 260.608 27.4304 260.963 28.1396C261.14 28.3169 261.317 28.6716 261.495 28.8489C261.672 29.0262 261.849 29.3808 262.027 29.5582C262.027 29.5582 262.204 29.7355 262.204 29.9128C262.381 30.0901 262.559 30.4447 262.736 30.7994C262.913 31.154 263.091 31.686 263.268 32.2179C263.268 32.5725 263.268 32.7498 263.268 33.1045C262.204 33.2818 260.963 33.6364 259.899 33.4591C259.19 33.4591 258.48 33.1045 257.948 32.7499C257.948 32.7499 257.948 32.7499 257.771 32.7499C257.239 32.5725 256.53 32.2179 255.998 32.0406C255.466 31.8633 254.757 31.5086 254.225 31.3313C253.87 31.154 253.693 31.3313 253.516 31.3313C253.338 31.3313 253.338 31.5086 253.338 31.6859C253.338 31.8633 253.338 31.8633 253.338 32.0406C253.338 32.2179 253.338 32.2179 253.516 32.3952C253.516 32.5725 253.693 32.5725 253.87 32.7499C254.579 33.1045 255.466 33.2818 256.353 33.6364C256.707 33.8138 256.885 33.8137 257.239 33.9911C257.594 34.1684 257.771 34.1684 258.126 34.3457C258.48 34.523 258.835 34.7003 259.367 34.7003C259.722 34.8776 260.254 34.8776 260.608 34.8776C260.785 34.8776 260.963 34.8776 261.317 34.8776C262.027 34.8776 262.736 34.7003 263.445 34.7003C263.445 35.2323 263.268 35.7642 263.091 36.1188C262.736 37.0054 262.204 37.892 261.849 38.7786C261.672 39.3105 261.317 39.8425 260.963 40.3744C260.608 40.9064 260.254 41.261 259.899 41.793C259.367 42.5022 258.835 43.0342 258.126 43.7434C256.707 45.162 255.289 46.2259 253.516 47.2898C252.097 48.1763 250.501 49.0629 248.728 49.5949C248.196 49.7722 247.487 50.1268 246.778 50.3041C246.246 50.4814 245.714 50.6588 245.004 50.8361C243.586 51.1907 242.167 51.5453 240.749 51.9C239.153 52.2546 237.557 52.4319 235.961 52.6092C233.302 52.9639 230.642 53.1412 227.982 53.1412C226.564 53.1412 224.968 53.1412 223.372 52.9639C223.195 52.9639 222.84 52.9639 222.663 53.1412C222.663 53.1412 222.485 53.1412 222.485 53.3185C222.131 53.6731 222.308 54.2051 222.663 54.3824C222.84 54.5597 223.195 54.5597 223.549 54.5597H223.904C226.032 54.737 227.982 54.737 230.11 54.5597C232.415 54.5597 234.543 54.3824 236.848 54.0278C238.266 53.8505 239.685 53.4958 241.103 53.3185C242.877 52.9639 244.827 52.4319 246.6 51.9C247.132 51.7227 247.841 51.368 248.551 51.1907C248.905 51.0134 249.26 50.8361 249.792 50.8361C252.097 49.9495 254.225 48.7083 256.175 47.2898C257.771 46.0485 259.367 44.8073 260.608 43.2115C260.963 42.6795 261.317 42.1476 261.849 41.6157C262.204 41.261 262.381 40.7291 262.736 40.3744C263.623 39.1332 264.332 37.7147 264.864 36.1188C265.041 35.5869 265.218 34.8776 265.396 34.1684C263.977 32.7498 263.8 31.8633 263.623 30.7994ZM91.0941 32.2179C90.9168 32.2179 90.7395 32.3952 90.5622 32.3952C90.0302 32.5725 89.321 32.5725 88.789 32.7499C86.4839 33.2818 84.0015 33.8137 81.6964 34.7003C79.3913 35.4096 77.0862 36.2962 74.9584 37.5374C73.7172 38.0693 72.4759 38.9559 71.412 39.8425C70.1708 40.9064 69.2843 42.3249 68.2204 43.5661C68.0431 43.7434 68.043 43.9207 67.8657 44.0981C67.8657 43.9207 67.8657 43.9208 67.8657 43.9208C68.043 42.3249 67.6884 40.7291 67.3338 39.3105C66.8018 37.7147 66.6245 36.1188 66.6245 34.3457C66.6245 32.9272 66.8018 31.5086 67.1565 30.0901C67.6884 27.785 68.7523 25.6572 70.3482 23.7067C71.2347 22.6428 72.2986 21.7563 73.3625 20.8697C74.6037 19.9831 75.8449 19.0965 77.2635 18.5646C77.6181 18.3873 78.1501 18.2099 78.5047 18.0326C79.0366 17.8553 79.5686 17.678 80.1005 17.5007C82.7603 16.6141 85.42 15.9048 88.2571 16.0821C89.6756 16.0821 91.2714 16.2595 92.69 16.4368C94.1085 16.6141 95.527 16.9687 96.9455 17.146C99.0733 17.5007 101.024 18.2099 102.974 19.0965C105.457 20.1604 107.762 21.5789 109.712 23.5294C110.422 24.2387 110.954 24.7706 111.663 25.6572C112.195 26.3665 112.549 27.253 113.081 27.9623C113.081 27.9623 113.081 28.1396 113.259 28.317C113.081 28.317 112.904 28.317 112.727 28.317C112.372 28.317 111.84 28.1396 111.308 28.1396C110.067 28.1396 108.826 27.9623 107.585 27.9623C107.23 27.9623 106.875 27.9623 106.343 27.9623C105.102 27.9623 104.038 28.1396 102.797 28.1396C100.492 28.3169 98.3641 28.6716 96.2363 29.3808C94.1085 29.9128 92.5127 30.7994 91.0941 32.2179ZM205.286 10.2307C204.222 10.408 202.98 10.5853 201.739 10.2307C201.207 10.0534 200.498 10.0534 199.966 9.87609C197.129 9.34414 194.115 8.81219 191.1 8.28024C190.214 8.10293 189.504 8.10293 188.618 7.92562C187.909 7.92562 187.199 7.92561 186.49 7.74829C185.249 7.57097 184.008 7.57098 182.944 7.39366C180.461 7.21635 177.979 7.03904 175.319 7.21635C173.191 7.21635 171.064 7.39366 168.759 7.57098C167.872 7.74829 167.163 7.74829 166.276 7.57098C165.744 7.39366 165.212 7.39367 164.503 7.21635C163.616 7.03904 162.907 6.68441 162.198 6.15246C161.489 5.62051 161.311 4.73392 161.489 3.84734C161.489 3.49271 161.666 3.13808 162.021 2.96076C162.375 2.78345 162.907 2.60613 163.262 2.42881C163.794 2.2515 164.503 2.2515 165.212 2.2515C166.099 2.2515 166.985 2.07419 167.872 1.89687C170.354 1.71956 172.837 1.54223 175.319 1.54223C177.624 1.54223 179.929 1.54224 182.235 1.71956C183.476 1.71956 184.717 1.89687 185.958 2.07419C186.667 2.07419 187.199 2.07418 187.909 2.2515C188.618 2.2515 189.15 2.42882 189.859 2.60614C190.923 2.78345 191.987 2.78345 193.228 2.96076C194.292 3.13808 195.356 3.3154 196.42 3.49272C198.902 4.02467 201.207 4.5566 203.69 5.08855C204.931 5.44318 206.35 5.79783 207.768 6.15246C209.541 6.68441 211.137 7.21634 212.91 7.74829C213.088 7.74829 213.087 7.7483 213.265 7.92562C213.087 7.92562 213.088 8.10293 212.91 8.10293C212.024 8.28025 211.137 8.63488 210.25 8.8122C208.655 9.34415 207.059 10.0534 205.286 10.2307Z" fill="black"/>
<path d="M113.082 28.1395C112.904 28.1395 112.727 28.1395 112.55 28.1395C112.195 28.1395 111.663 27.9622 111.131 27.9622C109.89 27.9622 108.649 27.7849 107.407 27.7849C107.053 27.7849 106.698 27.7849 106.166 27.7849C104.925 27.7849 103.861 27.9622 102.62 27.9622C100.315 28.1395 98.187 28.4942 96.0592 29.2034C94.1087 29.7354 92.3356 30.6219 91.0944 32.2178C90.917 32.2178 90.7397 32.3951 90.5624 32.3951C90.0305 32.5724 89.3212 32.5724 88.7893 32.7497C86.4841 33.2817 84.0017 33.8136 81.6966 34.7002C79.3915 35.4095 77.0864 36.2961 74.9586 37.5373C73.7174 38.0692 72.4762 38.9558 71.4123 39.8424C70.1711 40.9063 69.2845 42.3248 68.2206 43.566C68.0433 43.7433 68.0433 43.9206 67.866 44.098C67.866 43.9206 67.866 43.9206 67.866 43.9206C68.0433 42.3248 67.6887 40.729 67.334 39.3104C66.8021 37.7146 66.6248 36.1187 66.6248 34.3456C66.6248 32.9271 66.8021 31.5085 67.1567 30.09C67.6887 27.7849 68.7525 25.6571 70.3484 23.7066C71.235 22.6427 72.2989 21.7561 73.3628 20.8696C74.604 19.983 75.8452 19.0964 77.2637 18.5645C77.6183 18.3872 78.1503 18.2098 78.5049 18.0325C79.0369 17.8552 79.5688 17.6779 80.1008 17.5006C82.7605 16.614 85.4202 15.9047 88.2573 16.082C89.6758 16.082 91.2717 16.2594 92.6902 16.4367C94.1087 16.614 95.5273 16.9686 96.9458 17.1459C99.0736 17.5006 101.024 18.2098 102.975 19.0964C105.457 20.1603 107.762 21.5788 109.713 23.5293C110.422 24.2386 110.954 24.7705 111.663 25.6571C112.195 26.3664 112.55 27.2529 113.082 27.9622C112.904 27.7849 112.904 27.9622 113.082 28.1395Z" fill="white"/>
<path d="M267.701 87.895C267.524 88.2496 267.524 88.6042 267.346 88.7815C267.169 89.1362 266.814 89.4908 266.814 89.6681C266.814 89.8454 266.814 90.2001 266.637 90.3774C266.46 90.9093 265.928 91.4413 265.396 91.9732C264.687 92.5052 263.8 93.0371 262.913 93.3918C261.317 93.9237 259.899 94.633 258.303 94.8103C257.417 94.9876 256.53 95.3422 255.821 95.5196C254.757 95.6969 253.516 95.8742 252.274 96.2288C251.565 96.4061 250.856 96.4061 249.969 96.5835C249.437 96.5835 248.905 96.7608 248.551 96.9381C247.31 97.1154 246.068 97.2927 245.004 97.47C243.941 97.6474 242.877 98.002 241.813 98.1793C240.572 98.3566 239.153 98.3566 237.912 98.1793C234.543 97.8247 231.528 97.1154 228.159 96.2288C226.209 95.6969 224.081 95.3422 222.131 94.8103C220.357 94.2784 218.407 93.7464 216.634 93.0371C215.038 92.5052 213.442 91.7959 211.846 91.0867C210.073 90.2001 208.3 89.4908 206.527 88.6042C203.69 87.1857 200.853 85.5899 198.016 84.1713C196.243 83.1074 194.469 82.0435 192.696 80.9796C191.81 80.4477 191.1 80.0931 190.214 79.5611C189.682 79.2065 189.682 79.2065 189.327 79.5611C187.909 80.8023 186.49 82.2209 185.072 83.6394C184.894 83.8167 184.717 83.994 184.54 84.1713C184.185 84.526 183.476 84.1713 183.298 83.8167C183.298 83.6394 183.298 83.6394 183.298 83.2848C182.944 83.4621 182.589 83.6394 182.412 83.6394C181.88 83.8167 181.525 83.994 180.993 84.3486C179.752 84.8806 178.334 85.4126 176.915 85.5899C176.383 85.7672 176.028 85.9445 175.497 85.9445C173.901 86.2991 172.128 86.4764 170.532 86.8311C169.291 87.0084 167.872 87.1857 166.453 87.1857C165.035 87.363 163.439 87.363 162.021 87.363C160.425 87.363 158.829 87.363 157.233 87.363C155.637 87.363 154.041 87.363 152.445 87.363C150.85 87.363 149.254 87.363 147.658 87.363C146.239 87.363 144.821 87.363 143.58 87.1857C141.097 87.1857 138.792 87.0084 136.31 87.0084C135.423 87.0084 134.537 86.8311 133.65 86.8311C132.941 86.8311 132.231 86.6538 131.345 86.6538C130.458 86.6538 129.749 86.4765 128.862 86.4765C128.33 86.4765 127.976 86.2991 127.444 86.2991C125.671 86.1218 123.898 85.7672 121.947 85.4125C121.415 85.4125 120.883 85.2352 120.529 85.2352C119.642 85.0579 118.755 84.8806 117.869 84.7033C116.096 84.3487 114.5 83.994 112.727 83.4621C110.776 82.9301 108.648 82.2208 106.698 81.6889C104.747 81.157 102.62 80.4477 100.669 79.7384C99.9599 79.5611 99.7826 79.0292 99.96 78.4972C100.137 77.9653 100.492 77.9653 101.201 78.1426C102.265 78.4972 103.152 78.8519 104.216 79.2065C106.698 79.9158 109.358 80.8023 112.017 81.5116C115.032 82.3982 118.223 83.1075 121.415 83.8167C122.656 84.1713 124.075 84.3487 125.493 84.526C126.025 84.526 126.557 84.7033 127.089 84.8806C127.976 85.0579 128.685 85.0579 129.572 85.2352C129.926 85.2352 130.281 85.4125 130.813 85.4125C132.054 85.5899 133.295 85.5899 134.537 85.7672C135.955 85.7672 137.196 85.9445 138.615 85.9445C140.388 85.9445 142.161 85.9445 144.112 86.1218C145.885 86.1218 147.658 86.2991 149.431 86.2991C151.736 86.2991 153.864 86.2991 156.169 86.2991C157.765 86.2991 159.361 86.2991 160.957 86.2991C162.73 86.2991 164.326 86.1218 166.099 86.1218C168.227 85.9445 170.354 85.7672 172.482 85.4125C174.078 85.0579 175.851 84.8806 177.27 84.3486C179.043 83.8167 180.993 83.1074 182.589 82.2209C182.944 82.0435 183.298 81.8662 183.653 81.5116C184.185 81.157 184.54 81.3343 184.894 81.6889C184.894 81.6889 185.072 81.6889 185.072 81.8662C186.136 80.8023 187.199 79.7384 188.263 78.8519C188.086 78.6745 187.909 78.6746 187.909 78.4972C185.249 76.9014 182.767 75.1282 180.107 73.5324C179.929 73.3551 179.575 73.1777 179.22 73.0004C178.866 72.8231 178.866 72.2912 179.043 71.9365C179.22 71.5819 179.929 71.4046 180.107 71.7592C180.461 71.9365 180.816 72.1138 181.171 72.4685C183.298 73.7097 185.249 75.1282 187.377 76.3694C188.795 77.256 190.214 78.1426 191.632 79.0292C193.937 80.4477 196.42 81.8662 198.725 83.2848C200.321 84.1713 201.917 85.0579 203.512 85.7672C205.286 86.6538 207.059 87.7176 208.832 88.4269C211.492 89.6681 214.151 90.9093 216.811 91.9732C218.052 92.3279 219.294 92.8598 220.535 93.2144C222.663 93.7464 224.79 94.2784 226.918 94.8103C230.642 95.6969 234.188 96.5835 238.089 96.9381C239.685 97.1154 241.103 96.9381 242.699 96.7608C243.586 96.5834 244.295 96.4061 245.182 96.2288C246.068 96.0515 247.132 95.8742 248.019 95.6969C249.26 95.5196 250.501 95.3422 251.742 95.1649C252.984 94.9876 254.225 94.8103 255.466 94.4557C256.175 94.2784 256.885 94.101 257.771 93.9237C259.19 93.5691 260.786 93.2145 262.204 92.6825C262.381 92.5052 262.736 92.3279 263.091 92.3279C262.913 91.9732 262.736 91.7959 262.559 91.6186C262.027 90.9093 261.317 90.3774 260.431 89.6681C259.19 88.7815 257.771 88.0723 256.175 88.2496H255.821C255.466 88.2496 255.289 87.895 255.289 87.5403C255.289 87.1857 255.466 86.8311 255.821 86.6538C255.998 86.6538 256.175 86.6538 256.353 86.6538C257.771 86.6538 259.012 87.0084 260.254 87.7177C261.495 88.4269 262.559 89.3135 263.445 90.3774C263.8 90.732 264.155 91.0867 264.155 91.6186C264.332 91.6186 264.686 91.264 264.864 91.0867C265.041 90.9093 265.041 90.9093 265.041 90.732C265.396 90.2001 265.75 89.8454 265.928 89.3135C266.46 88.4269 267.346 88.0723 267.701 87.895Z" fill="black"/>
<path d="M273.73 72.8233C273.553 71.2274 273.021 69.6316 271.957 68.3904C271.248 67.5038 270.361 66.7945 269.12 66.2626C267.524 65.7306 265.751 65.376 263.978 65.7306C263.091 65.7306 262.204 66.0852 261.14 66.2626C259.545 66.6172 257.949 67.1491 256.353 67.5038C254.757 67.8584 252.984 68.213 251.565 68.5677C250.679 68.745 249.615 68.9223 248.728 68.9223C247.842 68.9223 246.955 68.9223 245.891 68.9223C245.182 68.9223 244.473 68.9223 243.764 68.745C241.281 68.3904 238.621 67.8584 236.139 67.3265C233.302 66.6172 230.642 65.9079 227.805 64.844C225.323 63.9575 222.84 62.8936 220.535 61.475C219.649 60.9431 218.939 60.2338 218.053 59.7019C217.698 59.5246 217.698 59.3472 218.053 59.1699C219.294 58.2833 220.535 57.2195 221.776 55.9782C221.954 55.8009 221.954 55.8009 221.954 55.6236C221.954 55.4463 221.954 55.0917 221.776 54.9143C221.776 54.9143 221.599 54.737 221.422 54.737C221.067 54.5597 220.712 54.737 220.535 54.9143C219.649 55.6236 218.939 56.3329 218.053 57.0421C216.811 58.106 215.393 59.1699 213.797 59.7019C212.911 59.8792 212.024 60.0565 211.137 60.2338C210.251 60.4111 209.364 60.4111 208.655 60.7658C208.478 60.7658 208.3 60.9431 208.123 60.9431C207.591 60.9431 207.059 61.2977 206.527 61.475C206.35 61.475 206.173 61.475 206.173 61.6523C205.641 61.6523 205.286 62.007 204.931 62.3616C204.577 62.7162 204.754 63.2482 205.286 63.4255C205.463 63.4255 205.641 63.4255 205.995 63.6028C205.995 63.9574 206.173 64.3121 206.527 64.4894C206.527 64.6667 206.704 64.6667 206.882 64.6667C207.946 65.5533 209.01 66.4399 209.896 67.1491C210.96 68.0357 212.024 68.745 213.088 69.6316C215.038 71.0501 216.989 72.4686 219.117 73.8871C221.599 75.6603 224.081 77.2562 226.918 78.32C229.224 79.3839 231.706 80.0932 234.188 80.6252C235.075 80.8025 235.784 80.9798 236.671 80.9798C237.557 81.1571 238.267 81.1571 239.153 81.1571C240.749 81.3344 242.168 81.3344 243.764 81.1571C244.827 80.9798 245.891 80.9798 246.955 80.8025C249.438 80.4478 251.92 80.2705 254.402 80.4478C255.644 80.4478 256.708 80.8025 257.771 80.9798C259.19 81.3344 260.431 81.6891 261.85 82.0437C262.204 82.221 262.559 82.221 262.914 82.3983C263.268 82.5756 263.623 82.753 263.978 82.9303C264.155 82.9303 264.509 83.1076 264.687 83.2849C264.864 83.2849 265.041 83.4622 265.396 83.6395C265.573 83.6395 265.573 83.8169 265.751 83.8169C265.751 83.8169 265.928 83.8168 265.928 83.9942C266.283 84.1715 266.637 84.5261 266.992 84.7034C267.347 85.0581 267.701 85.59 268.233 85.9446C268.41 84.8807 268.765 83.9942 268.056 83.2849C267.879 83.1076 267.701 82.9303 267.524 82.9303C266.992 82.5756 266.46 82.221 266.105 81.8664C265.928 81.8664 265.928 81.689 265.751 81.689C266.283 81.5117 266.637 81.3344 267.169 81.1571C267.169 81.1571 267.347 81.1571 267.347 81.3344C267.701 81.689 268.056 81.6891 268.588 81.5117C270.184 80.8025 271.779 79.7386 272.843 78.1427C273.375 76.7242 274.085 74.951 273.73 72.8233ZM270.716 77.4335C270.184 78.1427 269.474 78.852 268.588 79.384C268.233 79.5613 267.878 79.7386 267.347 80.0932V78.852C267.347 77.6108 266.992 76.5469 266.46 75.483C266.105 74.5964 265.573 74.2418 264.864 73.7098C264.155 73.1779 263.091 72.8233 262.204 72.6459C261.672 72.6459 260.963 72.6459 260.431 72.6459C260.077 72.6459 259.899 72.8233 259.722 73.0006C259.545 73.3552 259.722 73.5325 259.722 73.8871C259.899 74.0645 260.254 74.2418 260.431 74.2418C261.672 74.2418 262.736 74.4191 263.8 75.1284C264.155 75.3057 264.687 75.6603 264.687 76.1923C264.864 76.7242 265.041 77.0788 265.041 77.4335C265.219 78.1427 265.396 78.852 265.219 79.7386C265.219 80.0932 265.041 80.2705 264.687 80.4478C263.978 80.6252 263.268 80.8025 262.559 80.9798C262.204 80.9798 261.85 80.9798 261.318 80.9798C259.899 80.6252 258.481 80.0932 257.062 79.7386C255.821 79.5613 254.58 79.3839 253.339 79.2066C251.92 79.0293 250.324 79.2066 248.906 79.2066C247.842 79.2066 246.778 79.3839 245.891 79.5613C243.409 79.9159 241.104 80.0932 238.621 79.9159C236.848 79.9159 235.075 79.5613 233.302 79.2066C232.061 78.852 230.642 78.6747 229.401 78.1427C227.982 77.6108 226.741 77.0788 225.323 76.5469C223.55 75.8376 221.954 74.951 220.358 73.7098C218.053 72.114 215.925 70.5181 213.62 68.9223C211.315 67.3265 209.187 65.5533 207.059 63.7801C206.704 63.6028 206.527 63.2482 205.995 62.8936C206.35 62.7162 206.527 62.7162 206.704 62.5389C208.3 62.1843 209.896 62.007 211.315 61.6523C212.556 61.475 213.797 61.2977 214.861 60.5885C215.038 60.4111 215.216 60.4111 215.57 60.5885C217.343 62.1843 219.471 63.4255 221.599 64.4894C222.84 65.1987 224.259 65.7306 225.677 66.0852C228.514 67.1491 231.351 68.0357 234.188 68.745C235.784 69.0996 237.38 69.4542 238.976 69.8089C239.685 69.9862 240.395 69.9862 241.104 70.1635C242.345 70.3408 243.586 70.5181 244.827 70.5181C246.246 70.5181 247.664 70.5181 249.083 70.5181C250.502 70.3408 252.097 70.1635 253.516 69.8089C256.176 69.2769 258.835 68.5677 261.495 67.8584C263.268 67.5038 265.041 67.1491 266.815 67.5038C268.056 67.6811 268.942 68.3904 269.652 69.0996C270.716 70.1635 271.07 71.4047 271.247 72.6459C272.311 74.5964 271.957 76.1923 270.716 77.4335ZM267.701 87.7178C267.701 87.3632 267.879 87.1859 268.056 86.8312V86.6539V86.4766L267.879 86.2993C267.701 86.6539 267.524 87.1859 267.701 87.7178Z" fill="black"/>
<path d="M270.715 77.4333C270.183 78.1426 269.297 78.8519 268.587 79.3838C268.233 79.5611 267.878 79.7384 267.346 80.0931C267.346 79.5611 267.346 79.2065 267.346 78.8519C267.346 77.6106 266.992 76.5468 266.46 75.4829C266.105 74.5963 265.573 74.0643 264.864 73.7097C263.977 73.1777 263.091 72.8231 262.027 72.6458C261.495 72.6458 260.785 72.4685 260.254 72.4685C259.899 72.4685 259.722 72.6458 259.544 72.8231C259.367 73.1777 259.367 73.3551 259.544 73.7097C259.722 73.887 260.076 74.0643 260.431 74.0643C261.672 74.0643 262.736 74.2416 263.8 74.9509C264.154 75.1282 264.686 75.4828 264.686 76.0148C264.864 76.3694 265.041 76.9014 265.041 77.256C265.218 77.9653 265.396 78.6745 265.218 79.5611C265.218 79.9157 265.041 80.0931 264.686 80.2704C263.977 80.4477 263.268 80.625 262.559 80.8023C262.204 80.8023 261.849 80.8023 261.317 80.8023C259.899 80.4477 258.48 79.9158 257.062 79.7384C255.821 79.3838 254.579 79.3838 253.338 79.2065C251.92 79.0292 250.324 79.2065 248.905 79.2065C247.841 79.3838 246.778 79.3838 245.891 79.5611C243.409 79.9157 241.103 80.0931 238.621 79.9157C236.848 79.7384 235.075 79.5611 233.302 79.2065C232.06 78.8519 230.642 78.6745 229.401 78.1426C227.982 77.6106 226.741 77.0787 225.322 76.5467C223.549 75.8375 221.953 74.9509 220.357 73.7097C218.052 72.1139 215.925 70.518 213.619 68.9222C211.314 67.3263 209.364 65.5532 207.059 63.78C206.704 63.6027 206.527 63.2481 205.995 62.8934C206.35 62.7161 206.527 62.7161 206.881 62.5388C208.477 62.1842 209.896 62.0068 211.492 61.6522C212.733 61.4749 213.797 61.2976 215.038 60.5883C215.215 60.411 215.393 60.411 215.747 60.5883C217.52 62.1842 219.648 63.4254 221.776 64.4893C223.017 65.1985 224.436 65.7305 225.854 66.0851C228.691 67.149 231.528 68.0356 234.365 68.7448C235.961 69.0995 237.557 69.4541 239.153 69.8087C239.862 69.9861 240.571 70.1634 241.281 70.1634C242.522 70.3407 243.763 70.518 245.004 70.518C246.423 70.518 247.841 70.518 249.26 70.3407C250.678 70.1634 252.274 69.9861 253.693 69.6314C256.353 69.0995 259.012 68.3902 261.672 67.6809C263.445 67.3263 265.218 66.9717 266.992 67.3263C268.055 67.681 269.119 68.2129 269.829 68.9222C270.715 69.9861 271.247 71.2273 271.424 72.4685C272.311 74.5963 271.956 76.1921 270.715 77.4333Z" fill="white"/>
<path d="M229.932 30.6221C230.464 29.9129 231.174 29.3809 232.06 29.0263C232.947 28.4943 234.011 28.1397 234.897 27.6078C234.897 27.6078 234.897 27.6078 235.075 27.4305C234.72 27.4305 234.543 27.2531 234.365 27.2531C233.833 27.0758 233.124 27.0758 232.592 27.0758C231.883 27.0758 231.351 26.5439 230.819 26.0119C230.464 25.6573 230.287 25.3027 229.932 24.948C229.4 24.0615 228.514 23.5295 227.45 23.1749C226.918 22.9976 226.386 22.9976 226.031 22.9976C225.322 22.9976 224.79 23.3522 224.081 23.5295C223.904 23.5295 223.904 23.7068 223.726 23.7068C223.194 24.0614 222.84 24.5934 222.485 25.1253C222.131 25.6573 221.953 26.3666 221.776 27.0758C221.599 29.3809 223.017 31.686 225.322 32.218C227.273 32.3953 228.691 31.8633 229.932 30.6221ZM224.79 27.4305C224.436 26.5439 224.79 25.6573 225.677 25.3027C226.563 24.948 227.45 25.3027 227.805 26.3666C228.159 27.0758 227.627 28.1397 226.918 28.4944C226.031 28.6717 225.145 28.317 224.79 27.4305Z" fill="black"/>
<path d="M187.909 14.6637C186.313 14.1318 184.54 13.9544 182.944 13.7771C180.461 13.5998 178.156 13.9544 175.851 14.6637C175.496 14.841 175.142 15.0183 174.787 15.1957C174.255 15.373 174.078 15.9049 174.255 16.2595C174.433 16.6142 174.964 16.7915 175.496 16.6142C175.851 16.4369 176.028 16.4369 176.383 16.2595C177.802 15.7276 179.397 15.373 180.816 15.373C182.234 15.1957 183.653 15.373 185.249 15.5503C187.377 15.9049 189.504 16.6142 191.455 17.5008C191.632 17.6781 191.987 17.6781 192.164 17.8554C192.519 18.0327 192.873 17.8554 193.228 17.5008C193.405 17.1461 193.405 16.6142 193.051 16.4369C192.873 16.2595 192.519 16.0822 192.341 16.0822C190.746 15.5503 189.327 15.0183 187.909 14.6637Z" fill="black"/>
<path d="M263.977 82.2209C263.977 82.3983 263.977 82.2209 263.977 82.2209C263.622 82.2209 263.977 82.2209 263.977 82.2209Z" fill="black"/>
<path d="M267.878 86.654V86.8313C267.878 87.0086 267.878 87.3633 267.701 87.7179C267.701 88.0725 267.524 88.2498 267.346 88.6045C267.169 89.491 266.814 90.023 266.637 90.2003L265.928 90.5549H265.573L265.218 90.3776L264.864 90.023C265.041 89.8457 265.041 89.8457 265.041 89.6683C265.396 89.1364 265.75 88.7818 265.928 88.2498C266.992 85.5901 265.041 83.285 265.041 83.285L264.155 81.8665C264.509 82.0438 265.218 82.2211 266.637 82.5757C266.814 82.5757 266.814 82.5757 266.992 82.753C267.524 82.9304 267.701 83.285 267.878 83.6396C267.878 83.6396 267.878 83.6396 267.878 83.8169C268.233 84.8808 268.233 85.7674 267.878 86.654Z" fill="black"/>
</svg>
