<svg  viewBox="0 0 167 167" fill="none" xmlns="http://www.w3.org/2000/svg">
<path d="M149.245 101.163L126.974 108.565L131.646 131.6L108.593 126.919L101.121 149.224L83.5076 133.66L65.9621 149.246L58.4731 126.952L35.4376 131.624L40.2061 108.594L17.9007 101.122L33.4651 83.5089L17.8788 65.9634L40.173 58.4744L35.5004 35.439L58.5304 40.2075L65.9157 17.8787L83.5287 33.4431L101.161 17.8802L108.563 40.151L131.599 35.4784L126.917 58.5317L149.246 65.9171L133.682 83.53L149.245 101.163Z" fill="#D02128"/>
<path d="M61.5112 79.4582C61.3705 80.9494 60.8201 82.1141 59.8601 82.9525C58.9001 83.7845 57.6234 84.2005 56.0298 84.2005C54.9163 84.2005 53.9339 83.9381 53.0827 83.4133C52.238 82.8821 51.5852 82.1301 51.1244 81.1574C50.6636 80.1846 50.4236 79.055 50.4044 77.7687V76.4631C50.4044 75.1448 50.638 73.9832 51.1052 72.9784C51.5724 71.9737 52.2412 71.1993 53.1115 70.6553C53.9883 70.1113 54.9995 69.8393 56.145 69.8393C57.6874 69.8393 58.9289 70.2585 59.8697 71.0969C60.8105 71.9353 61.3577 73.1192 61.5112 74.6488H59.0921C58.9769 73.644 58.6825 72.9208 58.209 72.4793C57.7418 72.0313 57.0538 71.8073 56.145 71.8073C55.0891 71.8073 54.2763 72.1945 53.7067 72.9688C53.1435 73.7368 52.8555 74.8664 52.8427 76.3575V77.5959C52.8427 79.1062 53.1115 80.2582 53.6491 81.0518C54.1931 81.8453 54.9867 82.2421 56.0298 82.2421C56.9834 82.2421 57.7002 82.0277 58.1802 81.5989C58.6601 81.1702 58.9641 80.4566 59.0921 79.4582H61.5112Z" fill="white"/>
<path d="M63.028 78.719C63.028 77.7015 63.2296 76.7863 63.6328 75.9735C64.036 75.1544 64.6023 74.5272 65.3319 74.092C66.0615 73.6504 66.8999 73.4296 67.847 73.4296C69.2486 73.4296 70.3846 73.8808 71.2549 74.7832C72.1317 75.6855 72.6053 76.8823 72.6757 78.3735L72.6853 78.9206C72.6853 79.9446 72.4869 80.8598 72.0901 81.6661C71.6997 82.4725 71.1365 83.0965 70.4006 83.5381C69.671 83.9797 68.8262 84.2005 67.8662 84.2005C66.4007 84.2005 65.2263 83.7141 64.3432 82.7413C63.4664 81.7621 63.028 80.4598 63.028 78.8342V78.719ZM65.3607 78.9206C65.3607 79.9894 65.5815 80.8278 66.0231 81.4358C66.4647 82.0373 67.0791 82.3381 67.8662 82.3381C68.6534 82.3381 69.2646 82.0309 69.6998 81.4166C70.1414 80.8022 70.3622 79.903 70.3622 78.719C70.3622 77.6695 70.135 76.8375 69.6806 76.2231C69.2326 75.6087 68.6214 75.3016 67.847 75.3016C67.0855 75.3016 66.4807 75.6055 66.0327 76.2135C65.5847 76.8151 65.3607 77.7175 65.3607 78.9206Z" fill="white"/>
<path d="M76.8515 73.6216L76.9187 74.7064C77.6483 73.8552 78.6467 73.4296 79.9138 73.4296C81.3026 73.4296 82.253 73.9608 82.7649 75.0232C83.5201 73.9608 84.5825 73.4296 85.952 73.4296C87.0976 73.4296 87.9488 73.7464 88.5055 74.38C89.0687 75.0136 89.3567 75.9479 89.3695 77.1831V84.0085H87.0368V77.2503C87.0368 76.5911 86.8928 76.1079 86.6048 75.8007C86.3168 75.4936 85.84 75.34 85.1745 75.34C84.6433 75.34 84.2081 75.484 83.8689 75.7719C83.5361 76.0535 83.3025 76.4247 83.1681 76.8855L83.1777 84.0085H80.845V77.1735C80.813 75.9511 80.189 75.34 78.9731 75.34C78.0387 75.34 77.3763 75.7207 76.9859 76.4823V84.0085H74.6532V73.6216H76.8515Z" fill="white"/>
<path d="M94.2462 84.0085H91.9134V73.6216H94.2462V84.0085ZM91.7694 70.9241C91.7694 70.5657 91.8814 70.2681 92.1054 70.0313C92.3358 69.7945 92.6622 69.6761 93.0846 69.6761C93.507 69.6761 93.8334 69.7945 94.0638 70.0313C94.2942 70.2681 94.4093 70.5657 94.4093 70.9241C94.4093 71.2761 94.2942 71.5705 94.0638 71.8073C93.8334 72.0377 93.507 72.1529 93.0846 72.1529C92.6622 72.1529 92.3358 72.0377 92.1054 71.8073C91.8814 71.5705 91.7694 71.2761 91.7694 70.9241Z" fill="white"/>
<path d="M98.9596 73.6216L99.0268 74.8216C99.7948 73.8936 100.803 73.4296 102.051 73.4296C104.214 73.4296 105.315 74.668 105.353 77.1447V84.0085H103.02V77.2791C103.02 76.6199 102.876 76.1335 102.588 75.8199C102.307 75.5 101.843 75.34 101.196 75.34C100.256 75.34 99.5548 75.7655 99.094 76.6167V84.0085H96.7613V73.6216H98.9596Z" fill="white"/>
<path d="M107.331 78.7382C107.331 77.1255 107.708 75.8391 108.463 74.8792C109.225 73.9128 110.233 73.4296 111.487 73.4296C112.671 73.4296 113.602 73.8424 114.281 74.668L114.386 73.6216H116.489V83.6917C116.489 85.0548 116.063 86.13 115.212 86.9172C114.367 87.7043 113.225 88.0979 111.785 88.0979C111.023 88.0979 110.278 87.9379 109.548 87.6179C108.825 87.3044 108.274 86.8916 107.897 86.3796L109.001 84.978C109.718 85.8292 110.601 86.2548 111.65 86.2548C112.425 86.2548 113.036 86.0436 113.484 85.6212C113.932 85.2052 114.156 84.5908 114.156 83.7781V83.0773C113.484 83.8261 112.588 84.2005 111.468 84.2005C110.252 84.2005 109.257 83.7173 108.482 82.7509C107.715 81.7845 107.331 80.447 107.331 78.7382ZM109.654 78.9398C109.654 79.983 109.865 80.8054 110.287 81.407C110.716 82.0021 111.308 82.2997 112.063 82.2997C113.004 82.2997 113.702 81.8965 114.156 81.0902V76.5207C113.714 75.7335 113.023 75.34 112.082 75.34C111.314 75.34 110.716 75.6439 110.287 76.2519C109.865 76.8599 109.654 77.7559 109.654 78.9398Z" fill="white"/>
<path d="M68.8358 96.9143C68.8358 96.4983 68.663 96.1815 68.3174 95.9639C67.9782 95.7463 67.4118 95.5543 66.6183 95.3879C65.8247 95.2215 65.1623 95.0103 64.6311 94.7544C63.4664 94.1912 62.884 93.3752 62.884 92.3064C62.884 91.4105 63.2616 90.6617 64.0168 90.0601C64.7719 89.4585 65.7319 89.1577 66.8967 89.1577C68.1382 89.1577 69.1398 89.4649 69.9014 90.0793C70.6693 90.6937 71.0533 91.4905 71.0533 92.4696H68.7206C68.7206 92.0216 68.5542 91.6505 68.2214 91.3561C67.8886 91.0553 67.447 90.9049 66.8967 90.9049C66.3847 90.9049 65.9655 91.0233 65.6391 91.2601C65.3191 91.4969 65.1591 91.8136 65.1591 92.2104C65.1591 92.5688 65.3095 92.8472 65.6103 93.0456C65.9111 93.244 66.5191 93.4456 67.4342 93.6504C68.3494 93.8488 69.0662 94.0888 69.5846 94.3704C70.1094 94.6456 70.4965 94.9783 70.7461 95.3687C71.0021 95.7591 71.1301 96.2327 71.1301 96.7895C71.1301 97.7239 70.7429 98.4822 69.9686 99.0646C69.1942 99.6406 68.1798 99.9286 66.9255 99.9286C66.0743 99.9286 65.3159 99.775 64.6503 99.4678C63.9848 99.1606 63.4664 98.7382 63.0952 98.2006C62.724 97.6631 62.5384 97.0839 62.5384 96.4631H64.8039C64.8359 97.0135 65.0439 97.4391 65.4279 97.7399C65.8119 98.0342 66.3207 98.1814 66.9543 98.1814C67.5686 98.1814 68.0358 98.0662 68.3558 97.8358C68.6758 97.5991 68.8358 97.2919 68.8358 96.9143Z" fill="white"/>
<path d="M72.7333 94.4472C72.7333 93.4296 72.9349 92.5144 73.3381 91.7017C73.7412 90.8825 74.3076 90.2553 75.0372 89.8201C75.7668 89.3785 76.6051 89.1577 77.5523 89.1577C78.9539 89.1577 80.0898 89.6089 80.9602 90.5113C81.837 91.4137 82.3106 92.6104 82.3809 94.1016L82.3905 94.6488C82.3905 95.6727 82.1922 96.5879 81.7954 97.3943C81.405 98.2006 80.8418 98.8246 80.1058 99.2662C79.3763 99.7078 78.5315 99.9286 77.5715 99.9286C76.106 99.9286 74.9316 99.4422 74.0484 98.4694C73.1717 97.4903 72.7333 96.1879 72.7333 94.5624V94.4472ZM75.066 94.6488C75.066 95.7175 75.2868 96.5559 75.7284 97.1639C76.17 97.7654 76.7843 98.0662 77.5715 98.0662C78.3587 98.0662 78.9699 97.7591 79.405 97.1447C79.8466 96.5303 80.0674 95.6311 80.0674 94.4472C80.0674 93.3976 79.8402 92.5656 79.3858 91.9512C78.9379 91.3369 78.3267 91.0297 77.5523 91.0297C76.7907 91.0297 76.186 91.3337 75.738 91.9416C75.29 92.5432 75.066 93.4456 75.066 94.6488Z" fill="white"/>
<path d="M83.9265 94.4472C83.9265 93.4296 84.1281 92.5144 84.5313 91.7017C84.9345 90.8825 85.5008 90.2553 86.2304 89.8201C86.96 89.3785 87.7984 89.1577 88.7455 89.1577C90.1471 89.1577 91.2831 89.6089 92.1534 90.5113C93.0302 91.4137 93.5038 92.6104 93.5742 94.1016L93.5838 94.6488C93.5838 95.6727 93.3854 96.5879 92.9886 97.3943C92.5982 98.2006 92.035 98.8246 91.2991 99.2662C90.5695 99.7078 89.7247 99.9286 88.7647 99.9286C87.2992 99.9286 86.1248 99.4422 85.2417 98.4694C84.3649 97.4903 83.9265 96.1879 83.9265 94.5624V94.4472ZM86.2592 94.6488C86.2592 95.7175 86.48 96.5559 86.9216 97.1639C87.3632 97.7654 87.9776 98.0662 88.7647 98.0662C89.5519 98.0662 90.1631 97.7591 90.5983 97.1447C91.0399 96.5303 91.2607 95.6311 91.2607 94.4472C91.2607 93.3976 91.0335 92.5656 90.5791 91.9512C90.1311 91.3369 89.5199 91.0297 88.7455 91.0297C87.984 91.0297 87.3792 91.3337 86.9312 91.9416C86.4832 92.5432 86.2592 93.4456 86.2592 94.6488Z" fill="white"/>
<path d="M97.7212 89.3497L97.7884 90.5497C98.5564 89.6217 99.5644 89.1577 100.812 89.1577C102.975 89.1577 104.076 90.3961 104.115 92.8728V99.7366H101.782V93.0072C101.782 92.348 101.638 91.8616 101.35 91.5481C101.068 91.2281 100.604 91.0681 99.958 91.0681C99.0172 91.0681 98.3164 91.4937 97.8556 92.3448V99.7366H95.5229V89.3497H97.7212Z" fill="white"/>
</svg>

