<svg width="56" height="55" viewBox="0 0 56 55" fill="none" xmlns="http://www.w3.org/2000/svg">
<path d="M55.2612 34.8137L45.9526 37.9075L47.9056 47.5357L38.27 45.579L35.1466 54.9021L27.7849 48.3966L20.4513 54.9113L17.3211 45.5929L7.69287 47.5459L9.68598 37.92L0.362908 34.7967L6.86839 27.4349L0.353753 20.1013L9.67215 16.9711L7.71912 7.34291L17.345 9.33602L20.4319 0.00317627L27.7937 6.50866L35.1637 0.00379141L38.2574 9.31242L47.8857 7.35938L45.929 16.9951L55.2619 20.0819L48.7564 27.4437L55.2612 34.8137Z" fill="#D02128"/>
<path d="M16.5917 25.3696C16.52 26.1281 16.2401 26.7205 15.7518 27.147C15.2635 27.5701 14.6141 27.7817 13.8036 27.7817C13.2372 27.7817 12.7375 27.6483 12.3045 27.3813C11.8749 27.1112 11.5428 26.7287 11.3084 26.2339C11.0741 25.7391 10.952 25.1646 10.9422 24.5103V23.8462C10.9422 23.1756 11.0611 22.5848 11.2987 22.0737C11.5363 21.5627 11.8765 21.1688 12.3192 20.8921C12.7652 20.6154 13.2795 20.4771 13.8622 20.4771C14.6467 20.4771 15.2782 20.6903 15.7567 21.1167C16.2352 21.5431 16.5135 22.1453 16.5917 22.9233H15.3612C15.3026 22.4123 15.1528 22.0444 14.912 21.8198C14.6743 21.592 14.3244 21.478 13.8622 21.478C13.325 21.478 12.9116 21.675 12.6219 22.0688C12.3355 22.4595 12.189 23.034 12.1825 23.7925V24.4224C12.1825 25.1906 12.3192 25.7765 12.5926 26.1802C12.8693 26.5838 13.273 26.7856 13.8036 26.7856C14.2886 26.7856 14.6532 26.6766 14.8973 26.4585C15.1415 26.2404 15.2961 25.8774 15.3612 25.3696H16.5917ZM17.3631 24.9937C17.3631 24.4761 17.4657 24.0106 17.6708 23.5972C17.8758 23.1805 18.1639 22.8615 18.535 22.6401C18.9061 22.4155 19.3325 22.3032 19.8143 22.3032C20.5272 22.3032 21.105 22.5327 21.5477 22.9917C21.9937 23.4507 22.2346 24.0594 22.2704 24.8179L22.2752 25.0962C22.2752 25.617 22.1743 26.0825 21.9725 26.4927C21.7739 26.9028 21.4875 27.2202 21.1131 27.4448C20.742 27.6694 20.3124 27.7817 19.8241 27.7817C19.0786 27.7817 18.4813 27.5343 18.0321 27.0396C17.5861 26.5415 17.3631 25.8791 17.3631 25.0522V24.9937ZM18.5497 25.0962C18.5497 25.6398 18.662 26.0662 18.8866 26.3755C19.1112 26.6815 19.4237 26.8345 19.8241 26.8345C20.2245 26.8345 20.5353 26.6782 20.7567 26.3657C20.9813 26.0532 21.0936 25.5959 21.0936 24.9937C21.0936 24.4598 20.978 24.0366 20.7469 23.7241C20.5191 23.4116 20.2082 23.2554 19.8143 23.2554C19.4269 23.2554 19.1193 23.41 18.8915 23.7192C18.6636 24.0252 18.5497 24.4842 18.5497 25.0962ZM24.3944 22.4009L24.4286 22.9526C24.7997 22.5197 25.3075 22.3032 25.952 22.3032C26.6584 22.3032 27.1418 22.5734 27.4022 23.1138C27.7863 22.5734 28.3267 22.3032 29.0233 22.3032C29.606 22.3032 30.0389 22.4644 30.3221 22.7866C30.6086 23.1089 30.7551 23.5841 30.7616 24.2124V27.6841H29.575V24.2466C29.575 23.9113 29.5018 23.6655 29.3553 23.5093C29.2088 23.353 28.9663 23.2749 28.6278 23.2749C28.3576 23.2749 28.1362 23.3481 27.9637 23.4946C27.7944 23.6379 27.6756 23.8267 27.6073 24.061L27.6122 27.6841H26.4256V24.2075C26.4094 23.5858 26.092 23.2749 25.4735 23.2749C24.9982 23.2749 24.6613 23.4686 24.4627 23.856V27.6841H23.2762V22.4009H24.3944ZM33.242 27.6841H32.0555V22.4009H33.242V27.6841ZM31.9823 21.0288C31.9823 20.8465 32.0392 20.6951 32.1532 20.5747C32.2704 20.4543 32.4364 20.394 32.6512 20.394C32.8661 20.394 33.0321 20.4543 33.1493 20.5747C33.2665 20.6951 33.325 20.8465 33.325 21.0288C33.325 21.2078 33.2665 21.3576 33.1493 21.478C33.0321 21.5952 32.8661 21.6538 32.6512 21.6538C32.4364 21.6538 32.2704 21.5952 32.1532 21.478C32.0392 21.3576 31.9823 21.2078 31.9823 21.0288ZM35.6395 22.4009L35.6737 23.0112C36.0643 22.5392 36.577 22.3032 37.2118 22.3032C38.312 22.3032 38.8719 22.9331 38.8915 24.1929V27.6841H37.7049V24.2612C37.7049 23.9259 37.6317 23.6785 37.4852 23.519C37.342 23.3563 37.106 23.2749 36.7772 23.2749C36.2987 23.2749 35.9422 23.4914 35.7079 23.9243V27.6841H34.5213V22.4009H35.6395ZM39.8973 25.0034C39.8973 24.1831 40.0894 23.5288 40.4735 23.0405C40.8609 22.549 41.3736 22.3032 42.0116 22.3032C42.6138 22.3032 43.0874 22.5132 43.4325 22.9331L43.4862 22.4009H44.5555V27.5229C44.5555 28.2163 44.339 28.7632 43.9061 29.1636C43.4764 29.564 42.8954 29.7642 42.1629 29.7642C41.7756 29.7642 41.3963 29.6828 41.0252 29.52C40.6574 29.3605 40.3775 29.1506 40.1854 28.8901L40.7469 28.1772C41.1115 28.6102 41.5607 28.8267 42.0946 28.8267C42.4885 28.8267 42.7993 28.7192 43.0272 28.5044C43.2551 28.2928 43.369 27.9803 43.369 27.5669V27.2104C43.0272 27.5913 42.5715 27.7817 42.0018 27.7817C41.3833 27.7817 40.8771 27.536 40.4833 27.0444C40.0926 26.5529 39.8973 25.8726 39.8973 25.0034ZM41.079 25.106C41.079 25.6366 41.1864 26.0549 41.4012 26.3608C41.6193 26.6636 41.9204 26.8149 42.3045 26.8149C42.7831 26.8149 43.1379 26.6099 43.369 26.1997V23.8755C43.1444 23.4751 42.7928 23.2749 42.3143 23.2749C41.9237 23.2749 41.6193 23.4295 41.4012 23.7388C41.1864 24.048 41.079 24.5037 41.079 25.106ZM20.3172 34.2485C20.3172 34.0369 20.2293 33.8758 20.0536 33.7651C19.881 33.6545 19.593 33.5568 19.1893 33.4722C18.7857 33.3875 18.4487 33.2801 18.1786 33.1499C17.5861 32.8634 17.2899 32.4484 17.2899 31.9048C17.2899 31.4491 17.4819 31.0682 17.8661 30.7622C18.2502 30.4562 18.7385 30.3032 19.3309 30.3032C19.9624 30.3032 20.4719 30.4595 20.8592 30.772C21.2499 31.0845 21.4452 31.4897 21.4452 31.9878H20.2586C20.2586 31.7599 20.174 31.5711 20.0047 31.4214C19.8355 31.2684 19.6109 31.1919 19.3309 31.1919C19.0705 31.1919 18.8573 31.2521 18.6913 31.3726C18.5285 31.493 18.4471 31.6541 18.4471 31.856C18.4471 32.0382 18.5236 32.1799 18.6766 32.2808C18.8296 32.3817 19.1389 32.4842 19.6043 32.5884C20.0698 32.6893 20.4344 32.8114 20.6981 32.9546C20.965 33.0946 21.162 33.2638 21.2889 33.4624C21.4191 33.661 21.4842 33.9019 21.4842 34.1851C21.4842 34.6603 21.2873 35.0461 20.8934 35.3423C20.4995 35.6353 19.9836 35.7817 19.3456 35.7817C18.9126 35.7817 18.5269 35.7036 18.1883 35.5474C17.8498 35.3911 17.5861 35.1763 17.3973 34.9028C17.2085 34.6294 17.1141 34.3348 17.1141 34.019H18.2665C18.2827 34.299 18.3885 34.5155 18.5838 34.6685C18.7792 34.8182 19.0379 34.8931 19.3602 34.8931C19.6727 34.8931 19.9103 34.8345 20.0731 34.7173C20.2359 34.5968 20.3172 34.4406 20.3172 34.2485ZM22.2997 32.9937C22.2997 32.4761 22.4022 32.0106 22.6073 31.5972C22.8124 31.1805 23.1004 30.8615 23.4715 30.6401C23.8426 30.4155 24.2691 30.3032 24.7508 30.3032C25.4637 30.3032 26.0415 30.5327 26.4842 30.9917C26.9302 31.4507 27.1711 32.0594 27.2069 32.8179L27.2118 33.0962C27.2118 33.617 27.1109 34.0825 26.909 34.4927C26.7105 34.9028 26.424 35.2202 26.0497 35.4448C25.6786 35.6694 25.2489 35.7817 24.7606 35.7817C24.0152 35.7817 23.4178 35.5343 22.9686 35.0396C22.5226 34.5415 22.2997 33.8791 22.2997 33.0522V32.9937ZM23.4862 33.0962C23.4862 33.6398 23.5985 34.0662 23.8231 34.3755C24.0477 34.6815 24.3602 34.8345 24.7606 34.8345C25.161 34.8345 25.4719 34.6782 25.6932 34.3657C25.9178 34.0532 26.0301 33.5959 26.0301 32.9937C26.0301 32.4598 25.9146 32.0366 25.6834 31.7241C25.4556 31.4116 25.1447 31.2554 24.7508 31.2554C24.3635 31.2554 24.0558 31.41 23.828 31.7192C23.6001 32.0252 23.4862 32.4842 23.4862 33.0962ZM27.993 32.9937C27.993 32.4761 28.0956 32.0106 28.3006 31.5972C28.5057 31.1805 28.7938 30.8615 29.1649 30.6401C29.536 30.4155 29.9624 30.3032 30.4442 30.3032C31.1571 30.3032 31.7349 30.5327 32.1776 30.9917C32.6236 31.4507 32.8644 32.0594 32.9002 32.8179L32.9051 33.0962C32.9051 33.617 32.8042 34.0825 32.6024 34.4927C32.4038 34.9028 32.1174 35.2202 31.743 35.4448C31.3719 35.6694 30.9422 35.7817 30.454 35.7817C29.7085 35.7817 29.1112 35.5343 28.662 35.0396C28.216 34.5415 27.993 33.8791 27.993 33.0522V32.9937ZM29.1795 33.0962C29.1795 33.6398 29.2918 34.0662 29.5165 34.3755C29.7411 34.6815 30.0536 34.8345 30.454 34.8345C30.8543 34.8345 31.1652 34.6782 31.3866 34.3657C31.6112 34.0532 31.7235 33.5959 31.7235 32.9937C31.7235 32.4598 31.6079 32.0366 31.3768 31.7241C31.1489 31.4116 30.8381 31.2554 30.4442 31.2554C30.0568 31.2554 29.7492 31.41 29.5213 31.7192C29.2935 32.0252 29.1795 32.4842 29.1795 33.0962ZM35.0096 30.4009L35.0438 31.0112C35.4344 30.5392 35.9471 30.3032 36.5819 30.3032C37.6821 30.3032 38.242 30.9331 38.2616 32.1929V35.6841H37.075V32.2612C37.075 31.9259 37.0018 31.6785 36.8553 31.519C36.7121 31.3563 36.4761 31.2749 36.1473 31.2749C35.6688 31.2749 35.3124 31.4914 35.078 31.9243V35.6841H33.8915V30.4009H35.0096Z" fill="white"/>
</svg>
