<svg width="19" height="19" viewBox="0 0 19 19" fill="none" xmlns="http://www.w3.org/2000/svg">
<path d="M7.06706 11.8246H3.51868V4.76977C3.51868 4.55002 3.69683 4.37195 3.9165 4.37195H7.06706C7.28682 4.37195 7.46489 4.5501 7.46489 4.76977V11.4268C7.46489 11.6465 7.28682 11.8246 7.06706 11.8246Z" fill="#D7C1B3"/>
<path d="M3.51887 10.7311H1.5083C1.28854 10.7311 1.11047 10.5529 1.11047 10.3332V5.86303C1.11047 5.64328 1.28862 5.46521 1.5083 5.46521H3.51887V10.7311Z" fill="#F6851B"/>
<path d="M7.46497 5.92302V10.3774L15.9434 14.6976C16.2861 14.8723 16.6923 14.6234 16.6923 14.2387V2.06178C16.6923 1.67718 16.2861 1.42825 15.9434 1.60281L7.46497 5.92302Z" fill="#F6851B"/>
<path d="M4.66517 18.4573C4.03213 18.4573 3.51904 17.9441 3.51904 17.3111V11.8247H5.81138V17.3111C5.8113 17.9441 5.29822 18.4573 4.66517 18.4573Z" fill="#F6851B"/>
<path d="M7.31936 15.2233H5.81104V13.323H7.31936C7.53593 13.323 7.71145 13.4985 7.71145 13.7151V14.8312C7.71137 15.0477 7.53585 15.2233 7.31936 15.2233Z" fill="#F6851B"/>
<path d="M5.11242 4.37158C4.89242 4.37158 4.71467 4.55013 4.71467 4.76933V11.8243H3.51904V4.76933C3.51904 4.55013 3.69679 4.37158 3.91679 4.37158H5.11242Z" fill="#C0AD9E"/>
<path d="M8.66096 5.31372V10.9866L7.46533 10.3776V5.92269L8.66096 5.31372Z" fill="#161616"/>
<path d="M16.6923 2.06163V14.2387C16.6923 14.6237 16.2857 14.8724 15.943 14.6978L13.543 13.4751V2.82523L15.943 1.6025C16.2857 1.42794 16.6923 1.67743 16.6923 2.06163Z" fill="#C0AD9E"/>
<path d="M14.9271 0.351562H18.4576V15.8448H14.9271V0.351562Z" fill="#D7C1B3"/>
<path d="M14.9269 0.351929H16.1225V15.8449H14.9269V0.351929Z" fill="#C0AD9E"/>
<path d="M17.2623 0.351929H18.458V15.8449H17.2623V0.351929Z" fill="#D7C1B3"/>
<path d="M18.0208 0.0327148H15.3631C14.9467 0.0327148 14.6078 0.371476 14.6078 0.787953V1.925L7.78341 5.40244V4.76963C7.78341 4.37444 7.46194 4.05297 7.06675 4.05297H3.91619C3.521 4.05297 3.19953 4.37444 3.19953 4.76963V5.14641H1.5078C1.1126 5.14641 0.791138 5.46788 0.791138 5.86307V10.3333C0.791138 10.7285 1.1126 11.0499 1.5078 11.0499H3.19953V17.311C3.19953 18.1187 3.85673 18.7759 4.66457 18.7759C5.47234 18.7759 6.12954 18.1187 6.12954 17.311V15.542H7.31895C7.71087 15.542 8.02979 15.2231 8.02979 14.8312V13.715C8.02979 13.323 7.71087 13.0041 7.31895 13.0041H6.12946V12.1435H7.06675C7.46194 12.1435 7.78341 11.822 7.78341 11.4268V10.8979L14.6078 14.3753V15.4085C14.6078 15.825 14.9467 16.1637 15.3631 16.1637H18.0208C18.4372 16.1637 18.776 15.825 18.776 15.4085V0.787953C18.7759 0.371556 18.4372 0.0327148 18.0208 0.0327148ZM1.5078 10.4124C1.4642 10.4124 1.42881 10.3769 1.42881 10.3334V5.86307C1.42881 5.81955 1.4642 5.78408 1.5078 5.78408H3.19953V10.4123H1.5078V10.4124ZM7.31895 13.6417C7.35928 13.6417 7.39212 13.6746 7.39212 13.715V14.8312C7.39212 14.8715 7.35928 14.9043 7.31895 14.9043H6.12946V13.6417H7.31895V13.6417ZM5.49179 17.311C5.49179 17.7671 5.12067 18.1383 4.66449 18.1383C4.20824 18.1383 3.83712 17.7671 3.83712 17.311V12.1434H5.49179V17.311ZM7.14574 11.4267C7.14574 11.4702 7.11035 11.5057 7.06675 11.5057C5.55229 11.5057 5.28893 11.5057 3.83712 11.5057C3.83712 10.7557 3.83712 5.47848 3.83712 4.76963C3.83712 4.72611 3.87251 4.69064 3.91611 4.69064H7.06667C7.11027 4.69064 7.14566 4.72611 7.14566 4.76963V11.4267H7.14574ZM7.78365 10.1822V6.11806L14.6078 2.64078V13.6596L7.78365 10.1822ZM18.1383 15.4084C18.1383 15.4732 18.0856 15.526 18.0207 15.526H15.3631C15.2983 15.526 15.2455 15.4732 15.2455 15.4084V0.787953C15.2455 0.72315 15.2982 0.670383 15.3631 0.670383H18.0208C18.0856 0.670383 18.1383 0.72315 18.1383 0.787953V15.4084H18.1383Z" fill="#763D16"/>
<path d="M5.04125 5.87573C4.86517 5.87573 4.72241 6.01849 4.72241 6.19457V6.41496C4.72241 6.59104 4.86517 6.73379 5.04125 6.73379C5.21732 6.73379 5.36008 6.59104 5.36008 6.41496V6.19457C5.36008 6.01849 5.21732 5.87573 5.04125 5.87573Z" fill="#763D16"/>
<path d="M5.04125 7.29175C4.86517 7.29175 4.72241 7.43451 4.72241 7.61058V10.0018C4.72241 10.1779 4.86517 10.3207 5.04125 10.3207C5.21732 10.3207 5.36008 10.1779 5.36008 10.0018V7.61058C5.36008 7.43451 5.21732 7.29175 5.04125 7.29175Z" fill="#763D16"/>
</svg>
