<svg  viewBox="0 0 18 14" xmlns="http://www.w3.org/2000/svg">
<path d="M11.7057 7.50425C11.039 7.21092 10.519 6.77092 10.1457 6.18425C9.77233 5.59759 9.58566 4.90426 9.58566 4.10426C9.58566 2.95759 9.94566 2.02426 10.6657 1.30426C11.3857 0.610922 12.3057 0.264255 13.4257 0.264255C14.5457 0.264255 15.479 0.624255 16.2257 1.34426C16.9457 2.06426 17.3057 2.98426 17.3057 4.10426C17.3057 4.63759 17.239 5.17092 17.1057 5.70426C16.9723 6.23759 16.679 7.03759 16.2257 8.10426L13.9057 13.8643L9.94566 13.8643L11.7057 7.50425ZM2.26566 7.50425C1.599 7.21092 1.079 6.77092 0.705664 6.18425C0.332331 5.59759 0.145665 4.90426 0.145665 4.10426C0.145665 2.95759 0.505666 2.02425 1.22567 1.30426C1.94567 0.610921 2.86567 0.264254 3.98567 0.264254C5.10567 0.264254 6.039 0.624254 6.78566 1.34425C7.50566 2.06425 7.86566 2.98426 7.86566 4.10426C7.86566 4.63759 7.799 5.17092 7.66567 5.70426C7.53233 6.23759 7.239 7.03759 6.78566 8.10426L4.46566 13.8643L0.505663 13.8643L2.26566 7.50425Z" />
</svg>
