<svg  viewBox="0 0 17 17"  xmlns="http://www.w3.org/2000/svg">
<path d="M16.0657 14.7801L12.2577 10.8196C13.2368 9.65567 13.7733 8.19122 13.7733 6.66666C13.7733 3.10467 10.8752 0.206665 7.31326 0.206665C3.75128 0.206665 0.853271 3.10467 0.853271 6.66666C0.853271 10.2286 3.75128 13.1267 7.31326 13.1267C8.65048 13.1267 9.92479 12.7233 11.0143 11.9577L14.8512 15.9483C15.0116 16.1148 15.2273 16.2067 15.4585 16.2067C15.6773 16.2067 15.8848 16.1232 16.0424 15.9716C16.3772 15.6494 16.3879 15.1152 16.0657 14.7801ZM7.31326 1.89188C9.94613 1.89188 12.088 4.03379 12.088 6.66666C12.088 9.29953 9.94613 11.4414 7.31326 11.4414C4.6804 11.4414 2.53849 9.29953 2.53849 6.66666C2.53849 4.03379 4.6804 1.89188 7.31326 1.89188Z"/>
</svg>
